<svg width="70" height="62" viewBox="0 0 70 62" fill="none" xmlns="http://www.w3.org/2000/svg">
<path d="M30 29.5V22.5H40V30H48L47.5 39.5L40 40.5L39 48H30V40.5L22.5 39.5V30.5L30 29.5Z" fill="#209956" stroke="black"/>
<path d="M47.2572 28.7203C47.2524 28.7203 47.2477 28.7203 47.2428 28.7203H41.3807V22.7369C41.3886 21.5301 40.4342 20.5452 39.249 20.5371C39.2441 20.5371 39.2393 20.5371 39.2346 20.5371H30.7655C29.5803 20.5371 28.6194 21.5155 28.6194 22.7222V28.7056H22.7572C21.572 28.6975 20.6047 29.6691 20.5967 30.8759C20.5967 30.8858 20.5967 30.8955 20.5967 30.9054V39.5138C20.5967 40.7206 21.5576 41.6989 22.7428 41.6989H28.6194V47.6677C28.6115 48.8744 29.5658 49.8594 30.7511 49.8674C30.7559 49.8674 30.7608 49.8674 30.7655 49.8674H39.2202C40.4054 49.8674 41.3663 48.8891 41.3663 47.6823V41.6989H47.2428C48.428 41.707 49.3954 40.7353 49.4033 39.5285C49.4033 39.5236 49.4033 39.5186 49.4033 39.5138V30.9054C49.4033 29.6986 48.4426 28.7203 47.2572 28.7203ZM46.5227 38.7659H39.9404C39.1449 38.7659 38.5 39.4225 38.5 40.2324V46.9344H31.5V40.2324C31.5 39.4225 30.8551 38.7659 30.0597 38.7659H23.4774V31.6533H30.0597C30.8551 31.6533 31.5 30.9967 31.5 30.1868V23.4701H38.4856V30.1721C38.4856 30.982 39.1305 31.6386 39.926 31.6386H46.5227V38.7659Z" fill="black"/>
<path d="M60.0617 9.56758H48.1934V4.40544C48.2681 2.04984 46.4531 0.0784788 44.1396 0.00240319C44.0217 -0.00144642 43.9038 -0.000346697 43.786 0.005886H26.214C23.9023 -0.116751 21.9306 1.69183 21.81 4.04541C21.8039 4.16529 21.8026 4.28537 21.8066 4.40544V9.53825H9.93827C5.35803 9.53825 0 12.1926 0 19.6572V51.554C0 59.0185 5.35803 61.6729 9.93827 61.6729H60.0617C64.642 61.6729 70 59.0185 70 51.554V19.6865C70 12.222 64.6564 9.56758 60.0617 9.56758ZM24.6872 4.40544C24.6872 3.98015 24.6872 2.83626 26.2284 2.83626H43.786C45.3272 2.83626 45.3272 3.96548 45.3272 4.40544V9.53825H24.6872V4.40544ZM67.1193 51.554C67.1193 58.036 62.1934 58.7399 60.0617 58.7399H9.93827C7.82099 58.7399 2.88066 58.036 2.88066 51.554V19.6865C2.88066 13.2045 7.80658 12.5006 9.93827 12.5006H60.0617C62.179 12.5006 67.1193 13.2045 67.1193 19.6865V51.554Z" fill="black"/>
</svg>
