<svg width="129" height="129" viewBox="0 0 129 129" fill="none" xmlns="http://www.w3.org/2000/svg">
<g opacity="0.2" clip-path="url(#clip0_85:134)">
<path d="M120.654 73.5539C121.698 73.5539 122.544 72.7079 122.544 71.6643V18.0963C122.544 12.8796 118.3 8.63544 113.083 8.63544H105.004V5.74629C105.003 2.57773 102.426 0 99.2572 0H98.3897C95.2211 0 92.6434 2.57773 92.6434 5.74629V8.63544H36.3571V5.74629C36.3571 2.57773 33.7793 0 30.6108 0H29.7433C26.5747 0 23.997 2.57773 23.997 5.74629V8.63544H15.9176C10.7009 8.63544 6.45679 12.8796 6.45679 18.0963V119.552C6.45679 124.762 10.6951 129 15.905 129H113.095C118.305 129 122.544 124.762 122.544 119.552V79.2229C122.544 78.1793 121.698 77.3332 120.654 77.3332C119.61 77.3332 118.764 78.1793 118.764 79.2229V88.3277C118.764 90.7064 116.829 92.6416 114.45 92.6416H101.837C97.3743 92.6416 93.7437 96.2723 93.7437 100.735V113.348C93.7437 115.727 91.8084 117.662 89.4297 117.662H15.9176C12.7848 117.662 10.2361 115.114 10.2361 111.981V39.4191H24.1081C25.1517 39.4191 25.9978 38.573 25.9978 37.5294C25.9978 36.4858 25.1517 35.6398 24.1081 35.6398H10.2361V18.0963C10.2361 14.9635 12.7848 12.4147 15.9176 12.4147H23.9968V17.9708C23.9968 21.1394 26.5745 23.7171 29.7431 23.7171C30.7866 23.7171 31.6327 22.871 31.6327 21.8275C31.6327 20.7839 30.7866 19.9378 29.7431 19.9378C28.6584 19.9378 27.7761 19.0555 27.7761 17.9708V12.4147H92.6434V17.9708C92.6434 21.1394 95.2211 23.7171 98.3897 23.7171C99.4333 23.7171 100.279 22.871 100.279 21.8275C100.279 20.7839 99.4333 19.9378 98.3897 19.9378C97.305 19.9378 96.4227 19.0555 96.4227 17.9708V12.4147H113.083C116.216 12.4147 118.764 14.9635 118.764 18.0963V35.6395H31.6667C30.6231 35.6395 29.7771 36.4856 29.7771 37.5292C29.7771 38.5728 30.6231 39.4188 31.6667 39.4188H118.764V71.664C118.764 72.7079 119.61 73.5539 120.654 73.5539ZM97.523 113.348V100.735C97.523 98.356 99.4582 96.4207 101.837 96.4207H114.45C115.107 96.4207 115.744 96.3401 116.356 96.1919L97.2942 115.254C97.4426 114.642 97.523 114.005 97.523 113.348ZM15.9176 121.441H92.5325C95.0596 121.441 97.4355 120.457 99.2224 118.67L118.764 99.1282V119.552C118.764 122.677 116.221 125.22 113.095 125.22H15.905C12.779 125.22 10.2361 122.677 10.2361 119.552V119.54C11.8194 120.733 13.7871 121.441 15.9176 121.441ZM32.5778 8.63544H27.7763V5.74629C27.7763 4.66164 28.6586 3.7793 29.7433 3.7793H30.6108C31.6954 3.7793 32.5778 4.66164 32.5778 5.74629V8.63544ZM101.224 8.63544H96.4227V5.74629C96.4227 4.66164 97.305 3.7793 98.3897 3.7793H99.2572C100.342 3.7793 101.224 4.66164 101.224 5.74629V8.63544ZM65.2055 68.493C65.2055 62.5884 60.4007 57.7849 54.4947 57.7849C49.3878 57.7849 44.9681 61.4163 43.9852 66.4194C43.7842 67.4433 44.4511 68.4368 45.4753 68.6378C46.4992 68.8386 47.4924 68.172 47.6937 67.1478C48.3294 63.9124 51.1895 61.564 54.4949 61.564C58.3168 61.564 61.4264 64.6721 61.4264 68.4927C61.4264 72.3133 58.3171 75.4214 54.4949 75.4214C53.4513 75.4214 52.6053 76.2675 52.6053 77.3111C52.6053 78.3546 53.4513 79.2007 54.4949 79.2007C58.3168 79.2007 61.4264 82.3088 61.4264 86.1294C61.4264 89.95 58.3171 93.0581 54.4949 93.0581C51.056 93.0581 48.1049 90.496 47.6307 87.0982C47.5861 86.7795 47.5637 86.4537 47.5637 86.1294C47.5637 85.0858 46.7176 84.2398 45.674 84.2398C44.6305 84.2398 43.7844 85.0858 43.7844 86.1294C43.7844 86.6278 43.8192 87.1294 43.8877 87.6205C44.6211 92.875 49.1812 96.8374 54.4952 96.8374C60.401 96.8374 65.206 92.0339 65.206 86.1294C65.206 82.4751 63.3644 79.2443 60.5617 77.3111C63.3639 75.3781 65.2055 72.147 65.2055 68.493ZM83.3267 96.0977C84.3703 96.0977 85.2163 95.2516 85.2163 94.208V59.7451C85.2163 58.7016 84.3703 57.8555 83.3267 57.8555H75.9583C74.9147 57.8555 74.0687 58.7016 74.0687 59.7451C74.0687 60.7887 74.9147 61.6348 75.9583 61.6348H81.437V94.2078C81.437 95.2516 82.2831 96.0977 83.3267 96.0977Z" fill="white"/>
</g>
<defs>
<clipPath id="clip0_85:134">
<rect width="129" height="129" fill="white"/>
</clipPath>
</defs>
</svg>
