<svg width="80" height="79" viewBox="0 0 80 79" fill="none" xmlns="http://www.w3.org/2000/svg">
<g clip-path="url(#clip0_41:38)">
<path d="M47.7426 63.3725H41.6802C40.8174 63.3725 40.1179 64.0632 40.1179 64.9153C40.1179 65.7675 40.8174 66.4582 41.6802 66.4582H47.7426C48.6782 66.4582 49.4394 67.2097 49.4394 68.1337C49.4394 69.0576 48.6783 69.8092 47.7426 69.8092H31.4232C28.9701 69.8092 26.6632 68.7411 25.0945 66.8788L21.1918 62.2465C19.0978 59.7608 16.0501 58.305 12.7892 58.2129V49.099H18.5417C21.3786 49.099 24.0646 50.1705 26.1054 52.1158L34.5285 60.1447C35.124 60.7123 35.1518 61.6628 34.5904 62.2633C34.0182 62.8752 33.047 62.9152 32.4253 62.3525L25.8123 56.3664C25.1765 55.7907 24.1881 55.833 23.6051 56.4611C23.022 57.0893 23.065 58.0652 23.701 58.6409L30.314 64.627C31.2059 65.4342 32.3345 65.833 33.4602 65.833C34.7171 65.833 35.9704 65.336 36.8865 64.356C38.5906 62.533 38.5063 59.648 36.6987 57.9248L28.2756 49.896C25.6492 47.3924 22.1923 46.0136 18.5417 46.0136H12.4858C11.8979 44.6397 10.5194 43.673 8.91655 43.673H1.56234C0.69953 43.673 0 44.3637 0 45.2158V56.4975C0 57.3496 0.69953 58.0404 1.56234 58.0404C2.42515 58.0404 3.12468 57.3497 3.12468 56.4975V46.7585H8.9167C9.3292 46.7585 9.66467 47.0899 9.66467 47.4971V59.8629C9.66467 60.2701 9.3292 60.6015 8.9167 60.6015H7.29405C6.43124 60.6015 5.73171 61.2922 5.73171 62.1443C5.73171 62.9964 6.43124 63.6871 7.29405 63.6871H8.91655C10.5409 63.6871 11.9339 62.6941 12.5081 61.2908C14.9437 61.3045 17.2311 62.3696 18.7898 64.2199L22.6925 68.8522C24.8568 71.4214 28.039 72.8948 31.4232 72.8948H47.7426C50.401 72.8948 52.564 70.759 52.564 68.1337C52.564 65.5083 50.401 63.3725 47.7426 63.3725Z" fill="black"/>
<path d="M78.4375 20.357C77.5747 20.357 76.8752 21.0476 76.8752 21.8998V32.2415H71.0831C70.6706 32.2415 70.3352 31.9101 70.3352 31.5029V19.1371C70.3352 18.7299 70.6706 18.3985 71.0831 18.3985H72.5911C73.4539 18.3985 74.1535 17.7079 74.1535 16.8557C74.1535 16.0037 73.4539 15.3129 72.5911 15.3129H71.0831C69.4588 15.3129 68.0658 16.3059 67.4916 17.7093C65.056 17.6955 62.7686 16.6304 61.2099 14.7801L57.3072 10.1479C55.143 7.57876 51.9607 6.10522 48.5763 6.10522H32.2573C29.5988 6.10522 27.4359 8.241 27.4359 10.8662C27.4359 13.4914 29.5988 15.6272 32.2573 15.6272H38.9304C39.7932 15.6272 40.4927 14.9365 40.4927 14.0844C40.4927 13.2322 39.7932 12.5416 38.9304 12.5416H32.2573C31.3217 12.5416 30.5604 11.79 30.5604 10.866C30.5604 9.94227 31.3215 9.19054 32.2573 9.19054H48.5765C51.0297 9.19054 53.3366 10.2586 54.9054 12.1209L58.808 16.7531C60.9019 19.2388 63.9497 20.6946 67.2106 20.7869V29.9007H61.4582C58.6213 29.9007 55.9352 28.8293 53.8944 26.8839L45.4713 18.8551C44.8758 18.2874 44.848 17.3371 45.4094 16.7364C45.9816 16.1243 46.9529 16.0845 47.5746 16.6472L54.1877 22.6333C54.8238 23.209 55.8118 23.1667 56.395 22.5386C56.978 21.9104 56.935 20.9345 56.299 20.3588L49.6858 14.3729C47.7983 12.6644 44.8502 12.7861 43.1134 14.6438C41.4093 16.467 41.4935 19.3521 43.3012 21.0751L51.7243 29.1039C54.3507 31.6075 57.8075 32.9863 61.4582 32.9863H67.5141C68.1019 34.3602 69.4805 35.3268 71.0833 35.3268H78.4377C79.3005 35.3268 80 34.6362 80 33.784V21.8995C79.9998 21.0476 79.3003 20.357 78.4375 20.357Z" fill="black"/>
<path d="M50.4434 58.5776C50.0881 57.8012 49.1646 57.4548 48.379 57.8055C47.5877 58.1457 47.2259 59.0548 47.5704 59.8359C47.8263 60.4165 48.4007 60.7631 49.0035 60.7631C49.2118 60.7631 49.4234 60.7217 49.6265 60.6344C49.6331 60.6316 49.6537 60.6225 49.6601 60.6197C50.4465 60.269 50.7985 59.3542 50.4434 58.5776Z" fill="black"/>
<path d="M54.3269 55.9802C53.8161 55.2951 52.8344 55.1525 52.1399 55.6546C51.4438 56.1579 51.2925 57.1233 51.8022 57.8107C52.1083 58.2235 52.5827 58.4423 53.0639 58.4423C53.3843 58.4423 53.7075 58.3454 53.9857 58.1443C53.9882 58.1426 54.0028 58.1318 54.0052 58.1301C54.6972 57.624 54.8375 56.6649 54.3269 55.9802Z" fill="black"/>
<path d="M46.0756 60.3096C45.8976 59.4787 45.0715 58.9467 44.2293 59.1186C43.3881 59.2835 42.8381 60.0882 42.9993 60.9214C43.1424 61.6604 43.7973 62.1747 44.5321 62.1747C44.6293 62.1747 44.7282 62.1656 44.8271 62.1469C44.8373 62.1449 44.8629 62.1398 44.8732 62.1377C45.717 61.961 46.2542 61.1429 46.0756 60.3096Z" fill="black"/>
<path d="M57.5907 52.6246C56.95 52.054 55.9624 52.1041 55.3843 52.7369C55.3766 52.7454 55.3586 52.7654 55.3511 52.7739C54.7874 53.419 54.8602 54.3933 55.5135 54.9498C55.8086 55.2013 56.1718 55.3245 56.5332 55.3245C56.9671 55.3245 57.3985 55.147 57.7069 54.8008C58.2822 54.168 58.2305 53.1944 57.5907 52.6246ZM56.7182 53.9254L56.5444 53.7702L56.7325 53.9378L56.7182 53.9254Z" fill="black"/>
<path d="M61.5672 44.2635C60.7416 44.0162 59.8682 44.4814 59.6177 45.2968C59.3639 46.1112 59.8268 46.9745 60.6514 47.2251C60.8044 47.2717 60.9591 47.2937 61.1113 47.2937C61.7791 47.2937 62.3974 46.8676 62.6039 46.2043L62.6105 46.1831C62.8608 45.3677 62.3928 44.5107 61.5672 44.2635Z" fill="black"/>
<path d="M63.5683 36.3009C63.5649 36.2813 63.5611 36.2617 63.5569 36.2421C63.3805 35.4083 62.553 34.8749 61.7089 35.0488C60.8678 35.2219 60.3271 36.0341 60.4964 36.8645C60.6397 37.6007 61.293 38.1159 62.0286 38.1159C62.12 38.1159 62.2128 38.108 62.3058 38.0915C63.1552 37.9414 63.7203 37.1397 63.5683 36.3009Z" fill="black"/>
<path d="M62.1355 39.6484C61.2788 39.5737 60.5179 40.2009 60.4421 41.0495C60.4407 41.0645 60.4385 41.0949 60.4375 41.1099C60.3869 41.9605 61.0439 42.6906 61.9054 42.7406C61.9366 42.7425 61.9675 42.7434 61.9985 42.7434C62.8119 42.7434 63.4955 42.1222 63.5554 41.3132C63.6266 40.4677 62.9925 39.723 62.1355 39.6484Z" fill="black"/>
<path d="M60.0378 48.6536C59.2879 48.2337 58.3338 48.4939 57.9085 49.2353L57.8868 49.2739C57.4754 50.0228 57.753 50.966 58.5113 51.3723C58.7499 51.5 59.0066 51.5607 59.2596 51.5607C59.811 51.5607 60.3436 51.2718 60.6257 50.7583L59.2675 49.9958L60.6267 50.7565C61.0522 50.0151 60.7886 49.0737 60.0378 48.6536Z" fill="black"/>
<path d="M31.7023 19.2717C31.3165 18.5094 30.3776 18.2004 29.6064 18.5817L29.5925 18.5884C28.8206 18.9696 28.5148 19.8927 28.9007 20.6548C29.174 21.1947 29.7278 21.5054 30.3018 21.5054C30.5384 21.5054 30.7784 21.4526 31.0036 21.3416C31.7754 20.9606 32.0881 20.0339 31.7023 19.2717Z" fill="black"/>
<path d="M36.2221 17.9853C36.0188 17.1575 35.1754 16.6486 34.3356 16.8495C34.3284 16.8512 34.3062 16.8567 34.299 16.8586C33.4634 17.0712 32.9573 17.9132 33.1724 18.7382C33.3542 19.4344 33.9865 19.8972 34.6816 19.8972C34.8104 19.8972 34.9413 19.8813 35.072 19.8481C35.9104 19.6474 36.4254 18.8134 36.2221 17.9853Z" fill="black"/>
<path d="M27.5712 21.4965C27.0309 20.8335 26.0471 20.7293 25.375 21.2616L26.3435 22.4721L25.3703 21.2652C24.6953 21.796 24.5839 22.7665 25.1212 23.433C25.43 23.8157 25.8851 24.0149 26.3446 24.0149C26.6856 24.0149 27.0292 23.905 27.3168 23.679L27.3375 23.6626C28.0078 23.128 28.1115 22.1595 27.5712 21.4965Z" fill="black"/>
<path d="M19.241 32.4734C18.4085 32.2494 17.5498 32.7337 17.3228 33.5558C17.3189 33.5698 17.3114 33.599 17.3078 33.6132C17.1046 34.441 17.6196 35.2734 18.4578 35.4745C18.5815 35.5041 18.7053 35.5183 18.8271 35.5183C19.5281 35.5183 20.165 35.0486 20.3425 34.3486C20.5567 33.5327 20.0671 32.6959 19.241 32.4734Z" fill="black"/>
<path d="M18.2457 37.0065C17.3821 36.9591 16.6456 37.607 16.5956 38.4575C16.5943 38.4774 16.5935 38.4971 16.5929 38.5169C16.5676 39.3681 17.2459 40.0774 18.1081 40.1029C18.124 40.1033 18.1396 40.1037 18.1554 40.1037C18.9929 40.1037 19.6849 39.4474 19.7159 38.6167C19.7549 37.7744 19.1006 37.0555 18.2457 37.0065Z" fill="black"/>
<path d="M21.2073 28.2573C20.4431 27.8613 19.4989 28.1522 19.0981 28.9067L19.0726 28.9564C18.6919 29.7206 19.0112 30.6436 19.785 31.02C20.0065 31.1278 20.2414 31.1787 20.4731 31.1787C21.0469 31.1787 21.5992 30.8652 21.8729 30.3252C22.262 29.5733 21.9664 28.6506 21.2073 28.2573Z" fill="black"/>
<path d="M24.0289 24.5453C23.365 24.0011 22.38 24.0914 21.8289 24.7468C21.8214 24.7559 21.8042 24.7769 21.7967 24.786C21.261 25.4537 21.3756 26.4223 22.0514 26.9516C22.3382 27.1764 22.6804 27.2853 23.0204 27.2853C23.4787 27.2853 23.9331 27.0872 24.2417 26.7073C24.7829 26.052 24.6892 25.0868 24.0289 24.5453Z" fill="black"/>
<path d="M37.5 34.5L39.5 37.5L45 33L49.5 34.5L51 40.5L40.5 48.5L38.5 48L31 40.5L30.5 37L33.5 33L37.5 34.5Z" fill="#209956" stroke="black"/>
<path d="M20.0113 42.8988C19.8593 42.06 19.047 41.5019 18.1981 41.6522C17.3487 41.8025 16.7835 42.6041 16.9356 43.4428L16.9384 43.4579C17.0737 44.2037 17.7295 44.7216 18.4703 44.7216C18.5626 44.7216 18.6562 44.7136 18.7503 44.6969C19.5996 44.5468 20.1635 43.7375 20.0113 42.8988Z" fill="black"/>
<path d="M45.3643 31.1872C43.3307 31.1872 41.4465 32.0153 40.1038 33.4128C38.761 32.0153 36.877 31.1872 34.8434 31.1872C30.8429 31.1872 27.5884 34.401 27.5884 38.3515C27.5884 40.4831 28.5404 42.4893 30.2001 43.8557C30.2101 43.864 30.2204 43.8722 30.2307 43.8804L39.134 50.841C39.418 51.0632 39.7609 51.1742 40.1037 51.1742C40.448 51.1742 40.7924 51.0621 41.0771 50.8381L50.3576 43.5383C50.403 43.5027 50.4463 43.4644 50.4874 43.424C51.8622 42.07 52.6193 40.2686 52.6193 38.3515C52.6193 34.401 49.3647 31.1872 45.3643 31.1872ZM48.3374 41.183L40.101 47.6616L32.187 41.4745C31.2501 40.6962 30.7131 39.5592 30.7131 38.3518C30.7129 36.1026 32.5659 34.2728 34.8434 34.2728C36.5201 34.2728 38.0184 35.2617 38.6605 36.792C38.9026 37.3683 39.4721 37.7442 40.1038 37.7442C40.7355 37.7442 41.3051 37.3685 41.5471 36.792C42.1893 35.2617 43.6876 34.2728 45.3643 34.2728C47.6418 34.2728 49.4947 36.1026 49.4947 38.3516C49.4947 39.4166 49.0843 40.4189 48.3374 41.183Z" fill="black"/>
<path d="M1.56233 63.6819C2.42217 63.6819 3.11921 62.9936 3.11921 62.1445C3.11921 61.2954 2.42217 60.6071 1.56233 60.6071C0.702498 60.6071 0.00546265 61.2954 0.00546265 62.1445C0.00546265 62.9936 0.702498 63.6819 1.56233 63.6819Z" fill="black"/>
<path d="M78.4373 18.3928C79.2972 18.3928 79.9942 17.7044 79.9942 16.8553C79.9942 16.0063 79.2972 15.3179 78.4373 15.3179C77.5775 15.3179 76.8805 16.0063 76.8805 16.8553C76.8805 17.7044 77.5775 18.3928 78.4373 18.3928Z" fill="black"/>
</g>
<defs>
<clipPath id="clip0_41:38">
<rect width="80" height="79" fill="white"/>
</clipPath>
</defs>
</svg>
