<svg width="70" height="71" viewBox="0 0 70 71" fill="none" xmlns="http://www.w3.org/2000/svg">
<g clip-path="url(#clip0_41:35)">
<rect x="14" y="60" width="20" height="9" fill="#209956"/>
<rect x="35" y="54" width="21" height="5" fill="#209956"/>
<path d="M63.4013 12.7306C62.2733 12.7306 61.2479 13.1811 60.489 13.9127C59.4546 13.3544 58.2257 13.2483 57.0892 13.6571C54.8852 14.4498 53.7343 16.9 54.5167 19.1347C58.1456 29.5028 57.9437 28.8861 57.9571 29.0507L56.8793 30.3069C56.6476 29.4974 56.199 28.767 55.5672 28.1854C53.7354 26.5003 50.954 26.5918 49.2348 28.3944L39.2133 38.898C37.8883 40.2874 37.1582 42.117 37.1582 44.0495V52.8832H36.426C35.885 52.8832 35.3862 53.0624 34.9787 53.3618C34.5712 53.0624 34.0719 52.8832 33.5309 52.8832H32.7987V44.0495C32.7987 42.117 32.0692 40.2868 30.7436 38.898L20.7226 28.3944C19.0029 26.5918 16.2215 26.5003 14.3897 28.1854C13.7579 28.7664 13.3099 29.4974 13.0775 30.3069L11.9998 29.0512C12.0057 28.9781 12.0206 28.9061 12.0447 28.8373L15.4402 19.1352C16.7358 15.4331 12.8436 12.0906 9.46785 13.9127C6.78528 11.3282 2.3243 13.2575 2.3243 17.0213V26.8718C2.3243 29.3144 3.11844 31.738 4.55185 33.6846L12.0997 44.2136C13.9379 46.778 15.1102 49.7551 15.5267 52.8832H15.1967C13.8332 52.8832 12.724 54.0078 12.724 55.3907V68.4652C12.724 69.8476 13.8332 70.9722 15.1967 70.9722H33.5314C34.0719 70.9722 34.5712 70.7935 34.9787 70.4936C35.3862 70.7935 35.885 70.9722 36.426 70.9722H54.7607C56.1242 70.9722 57.2334 69.8476 57.2334 68.4652V67.0888C57.2334 66.5143 56.7747 66.0491 56.208 66.0491C55.6414 66.0491 55.1826 66.5143 55.1826 67.0888V68.4652C55.1826 68.7007 54.9931 68.893 54.7607 68.893H36.426C36.1932 68.893 36.0036 68.7007 36.0036 68.4652V60.4324H55.1821V62.2366C55.1821 62.8111 55.6414 63.2768 56.208 63.2768C56.7741 63.2768 57.2334 62.8111 57.2334 62.2366C57.2334 60.8212 57.2334 56.8072 57.2334 55.3907C57.2334 54.0078 56.1242 52.8832 54.7602 52.8832H54.4302C54.8467 49.7551 56.019 46.7775 57.8572 44.2136L65.3976 33.6955C66.8385 31.738 67.6326 29.3144 67.6326 26.8718V17.0213C67.6326 14.655 65.734 12.7306 63.4013 12.7306ZM13.5075 18.4394L10.787 26.2117V17.0207C10.787 16.5621 10.7127 16.1029 10.5744 15.6762C12.3 14.9052 14.151 16.6 13.5075 18.4394ZM13.7585 42.991L6.20262 32.4511C5.02396 30.8505 4.37508 28.8687 4.37508 26.8718V17.0207C4.37508 15.8019 5.35347 14.8099 6.55563 14.8099C7.75993 14.8099 8.73619 15.8057 8.73619 17.0207V27.3158C8.73619 28.0484 9.01283 28.7383 9.44862 29.2467C16.3529 37.2914 12.0575 32.4923 19.9188 41.1115C20.3033 41.5333 20.9522 41.5588 21.3677 41.1689C21.7838 40.779 21.8094 40.1211 21.4249 39.6999C15.7238 33.4491 16.926 34.7914 15.2853 32.88C14.7118 31.8848 14.8629 30.5582 15.7676 29.7254C16.7743 28.7994 18.3033 28.8498 19.248 29.8402L29.2691 40.3437C30.2229 41.3433 30.7479 42.659 30.7479 44.0495V52.8832H17.5967C17.169 49.3121 15.8514 45.9106 13.7585 42.991ZM33.9528 68.4647C33.9528 68.7007 33.7637 68.893 33.5309 68.893H15.1967C14.9638 68.893 14.7748 68.7007 14.7748 68.4647V60.4324H33.9528V68.4647ZM33.9528 58.3531H14.7748V55.3902C14.7748 55.1547 14.9638 54.9624 15.1967 54.9624H33.5309C33.7637 54.9624 33.9528 55.1547 33.9528 55.3902V58.3531ZM56.4494 18.4394C56.0462 17.2882 56.6396 16.0255 57.7755 15.6167C58.3031 15.4272 58.8757 15.4499 59.3825 15.6768C59.2436 16.1046 59.1694 16.5659 59.1694 17.0213V26.2117L56.4494 18.4394ZM54.7602 54.9624C54.9931 54.9624 55.1821 55.1547 55.1821 55.3902V58.3531H36.0036V55.3902C36.0036 55.1547 36.1932 54.9624 36.426 54.9624H54.7602ZM65.5818 26.8718C65.5818 28.8687 64.9324 30.8505 63.7463 32.462L56.1984 42.991C54.1055 45.9101 52.7879 49.3121 52.3602 52.8832H39.209V44.0495C39.209 42.6596 39.734 41.3433 40.6873 40.3437L50.7088 29.8402C51.6536 28.8493 53.1826 28.7989 54.1888 29.7254C55.0956 30.5592 55.2441 31.8864 54.6716 32.8795C53.0293 34.793 54.2331 33.4485 48.532 39.6999C48.1475 40.1211 48.1731 40.779 48.5886 41.1689C49.0041 41.5588 49.653 41.5333 50.0381 41.1115C57.9993 32.3818 53.9613 36.875 60.3059 29.4822C60.5387 29.211 61.2207 28.5249 61.2207 27.3158V17.0207C61.2207 15.8019 62.2002 14.8099 63.4013 14.8099C64.6034 14.8099 65.5813 15.8019 65.5813 17.0207V26.8718H65.5818Z" fill="black"/>
<path d="M37.2607 23.4746C36.6946 23.4746 36.2353 23.9397 36.2353 24.5142C36.2353 25.0887 36.6946 25.5538 37.2607 25.5538H50.4423C51.4309 25.5538 52.2351 24.7384 52.2351 23.7361V18.5634C52.2351 15.9134 50.7446 13.6105 48.5699 12.468C49.355 11.6655 49.841 10.562 49.841 9.34532C49.841 6.90002 47.8788 4.91064 45.4665 4.91064C43.0547 4.91064 41.0926 6.90002 41.0926 9.34532C41.0926 10.562 41.5786 11.665 42.3631 12.4675C42.2654 12.5189 42.1682 12.5725 42.0726 12.6288C41.2341 11.1316 39.9486 9.9247 38.4004 9.19587C39.4786 8.23205 40.1612 6.82313 40.1612 5.25447C40.1612 2.35704 37.8364 0 34.9781 0C32.1204 0 29.7957 2.35704 29.7957 5.25447C29.7957 6.82313 30.4776 8.23205 31.5559 9.19587C30.0077 9.9247 28.7227 11.1316 27.8837 12.6288C27.7881 12.5725 27.6915 12.5184 27.5932 12.4675C28.3783 11.665 28.8643 10.562 28.8643 9.34532C28.8643 6.90002 26.9016 4.91064 24.4898 4.91064C22.078 4.91064 20.1153 6.90002 20.1153 9.34532C20.1153 10.562 20.6019 11.6655 21.3869 12.468C19.2122 13.6105 17.7217 15.9134 17.7217 18.5634V23.7361C17.7217 24.7384 18.526 25.5538 19.5145 25.5538H32.4756C33.0417 25.5538 33.5009 25.0882 33.5009 24.5142C33.5009 23.9397 33.0417 23.4746 32.4756 23.4746H28.8744V16.6975C28.8744 13.304 31.5949 10.5089 34.9781 10.5089C38.3502 10.5089 41.0824 13.2927 41.0824 16.6975V23.4746H37.2607ZM45.4665 6.9899C46.7477 6.9899 47.7902 8.04632 47.7902 9.34532C47.7902 10.6443 46.7477 11.7013 45.4665 11.7013C44.1858 11.7013 43.1434 10.6443 43.1434 9.34532C43.1434 8.04632 44.1858 6.9899 45.4665 6.9899ZM50.1844 18.5634V23.4746H43.1332V16.698C43.1332 15.9594 43.0328 15.2284 42.8619 14.5771C45.9931 12.4702 50.1844 14.7639 50.1844 18.5634ZM24.4898 6.9899C25.771 6.9899 26.8129 8.04632 26.8129 9.34532C26.8129 10.6443 25.771 11.7013 24.4898 11.7013C23.2086 11.7013 22.1666 10.6443 22.1666 9.34532C22.1666 8.04632 23.2086 6.9899 24.4898 6.9899ZM26.8236 16.698V23.4746H19.7725V18.5634C19.7725 14.7649 23.9632 12.4702 27.0949 14.5771C26.9251 15.2236 26.8236 15.9594 26.8236 16.698ZM34.9781 8.43023C33.2515 8.43023 31.8464 7.0056 31.8464 5.25502C31.8464 3.50389 33.2515 2.07926 34.9781 2.07926C36.7053 2.07926 38.1099 3.50389 38.1099 5.25447C38.1099 7.0056 36.7053 8.43023 34.9781 8.43023Z" fill="black"/>
</g>
<defs>
<clipPath id="clip0_41:35">
<rect width="70" height="70.9722" fill="white"/>
</clipPath>
</defs>
</svg>
