<svg width="68" height="68" viewBox="0 0 68 68" fill="none" xmlns="http://www.w3.org/2000/svg">
<g filter="url(#filter0_d_430_864)">
<rect x="4" width="60" height="60" rx="30" fill="#EDA63C"/>
</g>
<path d="M18.6296 34.2727H17.5898V41.142H17.5046L12.7319 34.2727H11.7092V43H12.766V36.1477H12.8512L17.6069 43H18.6296V34.2727ZM22.5341 43.1534C23.6761 43.1534 24.2727 42.5398 24.4773 42.1136H24.5284V43H25.5341V38.6875C25.5341 36.608 23.9489 36.3693 23.1136 36.3693C22.125 36.3693 21 36.7102 20.4886 37.9034L21.4432 38.2443C21.6648 37.767 22.1889 37.2557 23.1477 37.2557C24.0724 37.2557 24.5284 37.7457 24.5284 38.5852V38.6193C24.5284 39.1051 24.0341 39.0625 22.8409 39.2159C21.6264 39.3736 20.3011 39.642 20.3011 41.142C20.3011 42.4205 21.2898 43.1534 22.5341 43.1534ZM22.6875 42.25C21.8864 42.25 21.3068 41.892 21.3068 41.1932C21.3068 40.4261 22.0057 40.1875 22.7898 40.0852C23.2159 40.0341 24.358 39.9148 24.5284 39.7102V40.6307C24.5284 41.4489 23.8807 42.25 22.6875 42.25ZM23.1307 45.1648C23.5227 45.1648 23.8466 44.858 23.8466 44.483C23.8466 44.108 23.5227 43.8011 23.1307 43.8011C22.7386 43.8011 22.4148 44.108 22.4148 44.483C22.4148 44.858 22.7386 45.1648 23.1307 45.1648ZM27.3697 45.4545H28.3754V41.9943H28.4606C28.6822 42.3523 29.1083 43.1364 30.3697 43.1364C32.006 43.1364 33.1481 41.8239 33.1481 39.7443C33.1481 37.6818 32.006 36.3693 30.3526 36.3693C29.0742 36.3693 28.6822 37.1534 28.4606 37.4943H28.3413V36.4545H27.3697V45.4545ZM28.3583 39.7273C28.3583 38.2614 29.006 37.2727 30.2333 37.2727C31.5117 37.2727 32.1424 38.3466 32.1424 39.7273C32.1424 41.125 31.4947 42.233 30.2333 42.233C29.0231 42.233 28.3583 41.2102 28.3583 39.7273ZM40.9038 36.4545H39.506V34.8864H38.5004V36.4545H37.5117V37.3068H38.5004V41.3977C38.5004 42.5398 39.4208 43.0852 40.2731 43.0852C40.6481 43.0852 40.8867 43.017 41.0231 42.9659L40.8185 42.0625C40.7333 42.0795 40.5969 42.1136 40.3754 42.1136C39.9322 42.1136 39.506 41.9773 39.506 41.125V37.3068H40.9038V36.4545ZM42.4165 43H43.4222V36.4545H42.4165V43ZM42.9279 35.3636C43.32 35.3636 43.6438 35.0568 43.6438 34.6818C43.6438 34.3068 43.32 34 42.9279 34C42.5359 34 42.212 34.3068 42.212 34.6818C42.212 35.0568 42.5359 35.3636 42.9279 35.3636ZM48.0085 43.1364C49.3381 43.1364 50.3097 42.4716 50.6165 41.483L49.6449 41.2102C49.3892 41.892 48.7969 42.233 48.0085 42.233C46.8281 42.233 46.0142 41.4702 45.9673 40.0682H50.7188V39.642C50.7188 37.2045 49.2699 36.3693 47.9062 36.3693C46.1335 36.3693 44.9574 37.767 44.9574 39.7784C44.9574 41.7898 46.1165 43.1364 48.0085 43.1364ZM45.9673 39.1989C46.0355 38.1804 46.7557 37.2727 47.9062 37.2727C48.9972 37.2727 49.696 38.0909 49.696 39.1989H45.9673ZM48.3153 34.1023H47.3778L45.6562 35.6534H46.8835L47.8551 34.75L48.8267 35.6534H50.054L48.3153 34.1023ZM45.2812 33.0625H44.0199L45.2301 34.6136H46.0994L45.2812 33.0625ZM53.2543 39.0625C53.2543 37.9205 53.9616 37.2727 54.9247 37.2727C55.858 37.2727 56.4247 37.8821 56.4247 38.9091V43H57.4304V38.8409C57.4304 37.1705 56.5398 36.3693 55.2145 36.3693C54.2259 36.3693 53.6122 36.8125 53.3054 37.4773H53.2202V36.4545H52.2486V43H53.2543V39.0625Z" fill="white"/>
<path d="M41.2175 13.7825C39.4232 11.9881 37.0375 11 34.5 11C31.9625 11 29.5768 11.9881 27.7825 13.7825C25.9881 15.5768 25 17.9625 25 20.5C25 23.0375 25.9882 25.4232 27.7825 27.2175C29.5767 29.0119 31.9625 30 34.5 30C37.0375 30 39.4232 29.0119 41.2175 27.2175C43.0119 25.4232 44 23.0375 44 20.5C44 17.9625 43.0118 15.5768 41.2175 13.7825ZM34.5 19.9062C35.9733 19.9062 37.1719 21.1048 37.1719 22.5781C37.1719 23.7982 36.3496 24.8291 35.2304 25.1477C35.15 25.1706 35.0938 25.2429 35.0938 25.3265V25.827C35.0938 26.1467 34.848 26.4218 34.5287 26.4368C34.1877 26.4529 33.9062 26.1812 33.9062 25.8438V25.3264C33.9062 25.243 33.8504 25.1707 33.7702 25.1478C32.6557 24.8309 31.8356 23.8077 31.8282 22.5947C31.8262 22.2709 32.0808 21.9939 32.4044 21.9846C32.7403 21.975 33.0156 22.2444 33.0156 22.5781C33.0156 23.4317 33.7399 24.1194 34.6061 24.0588C35.3373 24.0077 35.9296 23.4153 35.9807 22.6841C36.0412 21.8179 35.3536 21.0938 34.5 21.0938C33.0267 21.0938 31.8281 19.8952 31.8281 18.4219C31.8281 17.2018 32.6504 16.1709 33.7696 15.8523C33.85 15.8294 33.9062 15.7571 33.9062 15.6735V15.173C33.9062 14.8533 34.152 14.5782 34.4713 14.5632C34.8123 14.5471 35.0938 14.8188 35.0938 15.1562V15.6736C35.0938 15.757 35.1496 15.8293 35.2298 15.8522C36.3443 16.1691 37.1644 17.1923 37.1718 18.4053C37.1738 18.7291 36.9192 19.0061 36.5956 19.0154C36.2597 19.025 35.9844 18.7556 35.9844 18.4219C35.9844 17.5683 35.2601 16.8806 34.3939 16.9412C33.6627 16.9923 33.0704 17.5847 33.0193 18.3159C32.9588 19.1821 33.6464 19.9062 34.5 19.9062Z" fill="white"/>
<defs>
<filter id="filter0_d_430_864" x="0" y="0" width="68" height="68" filterUnits="userSpaceOnUse" color-interpolation-filters="sRGB">
<feFlood flood-opacity="0" result="BackgroundImageFix"/>
<feColorMatrix in="SourceAlpha" type="matrix" values="0 0 0 0 0 0 0 0 0 0 0 0 0 0 0 0 0 0 127 0" result="hardAlpha"/>
<feOffset dy="4"/>
<feGaussianBlur stdDeviation="2"/>
<feComposite in2="hardAlpha" operator="out"/>
<feColorMatrix type="matrix" values="0 0 0 0 0 0 0 0 0 0 0 0 0 0 0 0 0 0 0.1 0"/>
<feBlend mode="normal" in2="BackgroundImageFix" result="effect1_dropShadow_430_864"/>
<feBlend mode="normal" in="SourceGraphic" in2="effect1_dropShadow_430_864" result="shape"/>
</filter>
</defs>
</svg>
