<svg width="19" height="19" viewBox="0 0 19 19" fill="none" xmlns="http://www.w3.org/2000/svg">
<path d="M16.2175 2.78246C14.4232 0.988149 12.0375 0 9.5 0C6.96246 0 4.57677 0.988149 2.78246 2.78246C0.988149 4.57677 0 6.96246 0 9.5C0 12.0375 0.988186 14.4232 2.78246 16.2175C4.57674 18.0119 6.96246 19 9.5 19C12.0375 19 14.4232 18.0119 16.2175 16.2175C18.0119 14.4232 19 12.0375 19 9.5C19 6.96246 18.0118 4.57681 16.2175 2.78246ZM9.5 8.90625C10.9733 8.90625 12.1719 10.1048 12.1719 11.5781C12.1719 12.7982 11.3496 13.8291 10.2304 14.1477C10.15 14.1706 10.0938 14.2429 10.0938 14.3265V14.827C10.0938 15.1467 9.84805 15.4218 9.52869 15.4368C9.18769 15.4529 8.90625 15.1812 8.90625 14.8438V14.3264C8.90625 14.243 8.85036 14.1707 8.77017 14.1478C7.6557 13.8309 6.83558 12.8077 6.82816 11.5947C6.8262 11.2709 7.08077 10.9939 7.40443 10.9846C7.74031 10.975 8.01562 11.2444 8.01562 11.5781C8.01562 12.4317 8.73989 13.1194 9.6061 13.0588C10.3373 13.0077 10.9296 12.4153 10.9807 11.6841C11.0412 10.8179 10.3536 10.0938 9.5 10.0938C8.02672 10.0938 6.82812 8.89515 6.82812 7.42188C6.82812 6.20183 7.65036 5.17086 8.76961 4.85231C8.85003 4.82941 8.90625 4.75709 8.90625 4.67348V4.17302C8.90625 3.85329 9.15195 3.5782 9.47131 3.56317C9.81231 3.54714 10.0938 3.81881 10.0938 4.15625V4.67359C10.0938 4.75698 10.1496 4.82934 10.2298 4.85216C11.3443 5.16908 12.1644 6.19229 12.1718 7.40529C12.1738 7.72907 11.9192 8.00609 11.5956 8.01536C11.2597 8.02501 10.9844 7.7556 10.9844 7.42188C10.9844 6.56828 10.2601 5.88065 9.3939 5.94121C8.6627 5.99231 8.0704 6.58465 8.01934 7.31585C7.95885 8.1821 8.64645 8.90625 9.5 8.90625Z" fill="#EDA63C"/>
</svg>
