<svg width="60" height="60" viewBox="0 0 60 60" fill="none" xmlns="http://www.w3.org/2000/svg">
<circle cx="30" cy="30" r="30" fill="#874D7F"/>
<g filter="url(#filter0_d_430_845)">
<path d="M30.501 10.0038C19.9633 9.79602 11.2435 18.1525 11.0029 28.6894C11.0304 34.0532 13.4055 39.1359 17.5023 42.5981V48.1875C17.5023 48.6362 17.866 49 18.3147 49C18.467 49 18.6162 48.9572 18.7453 48.8765L23.2737 46.0477C25.5809 46.9301 28.0309 47.3801 30.501 47.3752C41.0388 47.583 49.7585 39.2265 49.9991 28.6895C49.7585 18.1525 41.0388 9.79602 30.501 10.0038Z" fill="white"/>
</g>
<path d="M43.3363 23.3276C43.0946 23.0036 42.6514 22.9067 42.2964 23.1001L33.8473 27.7065L28.591 23.1992C28.2686 22.9229 27.7879 22.9412 27.4877 23.2415L17.7387 32.9905C17.4224 33.3087 17.4239 33.8231 17.7422 34.1395C17.9966 34.3924 18.3868 34.4485 18.7022 34.2774L27.1514 29.671L32.4126 34.1799C32.7349 34.4562 33.2157 34.4379 33.5158 34.1376L43.2649 24.3886C43.549 24.1018 43.5794 23.6499 43.3363 23.3276Z" fill="#874D7F"/>
<defs>
<filter id="filter0_d_430_845" x="7.00293" y="10" width="46.9961" height="47" filterUnits="userSpaceOnUse" color-interpolation-filters="sRGB">
<feFlood flood-opacity="0" result="BackgroundImageFix"/>
<feColorMatrix in="SourceAlpha" type="matrix" values="0 0 0 0 0 0 0 0 0 0 0 0 0 0 0 0 0 0 127 0" result="hardAlpha"/>
<feOffset dy="4"/>
<feGaussianBlur stdDeviation="2"/>
<feComposite in2="hardAlpha" operator="out"/>
<feColorMatrix type="matrix" values="0 0 0 0 0 0 0 0 0 0 0 0 0 0 0 0 0 0 0.05 0"/>
<feBlend mode="normal" in2="BackgroundImageFix" result="effect1_dropShadow_430_845"/>
<feBlend mode="normal" in="SourceGraphic" in2="effect1_dropShadow_430_845" result="shape"/>
</filter>
</defs>
</svg>
