<svg width="118" height="118" viewBox="0 0 118 118" fill="none" xmlns="http://www.w3.org/2000/svg">
<g opacity="0.2">
<path d="M97.3737 62.3677C96.4253 62.3677 95.6565 63.1365 95.6565 64.0849C95.6565 65.2872 94.6783 66.2654 93.476 66.2654C92.2739 66.2654 91.2955 65.2872 91.2955 64.0849C91.2955 63.1363 90.5267 62.3677 89.5783 62.3677C88.6299 62.3677 87.8611 63.1365 87.8611 64.0849C87.8611 67.181 90.3801 69.6998 93.476 69.6998C96.5719 69.6998 99.0909 67.1808 99.0909 64.0849C99.0909 63.1361 98.322 62.3677 97.3737 62.3677Z" fill="white"/>
<path d="M113.493 62.6482L108.66 61.0999C108.041 60.9015 107.553 60.4073 107.355 59.7779C106.336 56.5392 104.799 53.4986 102.786 50.7403C101.868 49.4831 100.848 48.2826 99.7333 47.1397C100.446 44.0116 100.834 40.4713 100.784 37.4128C100.712 33.0373 99.8374 30.4711 98.1108 29.5667C97.1808 29.079 94.3507 27.5976 79.0321 34.6098C78.6694 34.7758 78.3306 34.9802 78.0169 35.2143C76.9842 34.9369 75.9286 34.6801 74.8666 34.4496C74.7387 34.4218 74.6069 34.3971 74.4781 34.3699C75.7194 31.6582 76.4442 28.713 76.5804 25.6727C76.6228 24.725 75.8892 23.9225 74.9415 23.8803C73.9964 23.8333 73.1913 24.5713 73.1492 25.519C72.9254 30.5181 70.8516 35.2217 67.3102 38.7633C65.1943 40.8793 62.7168 42.4163 60.0763 43.3842C55.4971 42.7417 50.8329 42.7417 46.2537 43.3842C43.613 42.4163 41.1357 40.8793 39.0197 38.7633C35.2414 34.985 33.1605 29.9615 33.1605 24.6181C33.1605 19.2744 35.2414 14.2511 39.0197 10.4728C42.798 6.69429 47.8218 4.61339 53.165 4.61339C58.5082 4.61339 63.5319 6.69429 67.3102 10.4728C68.8286 11.9912 70.0832 13.7238 71.0395 15.6222C71.4661 16.4694 72.4988 16.8105 73.3458 16.3837C74.193 15.9573 74.5338 14.9246 74.1072 14.0776C72.9865 11.8515 71.5168 9.82175 69.7392 8.04391C65.3121 3.61684 59.4259 1.17871 53.1652 1.17871C46.9045 1.17871 41.0184 3.61684 36.5913 8.04391C32.1642 12.4712 29.7261 18.3572 29.7261 24.6178C29.7261 30.8785 32.1642 36.7647 36.5913 41.1918C37.8683 42.4688 39.2576 43.567 40.7271 44.487C40.7275 44.487 40.728 44.4868 40.7284 44.4868C39.6607 44.7643 38.601 45.0759 37.553 45.4262C36.6535 45.7269 36.1682 46.6997 36.4689 47.5995C36.7694 48.499 37.7427 48.9844 38.642 48.6838C48.0073 45.5529 58.3231 45.5529 67.6884 48.6838C67.8691 48.7442 68.0526 48.7728 68.233 48.7728C68.9514 48.7728 69.6211 48.3183 69.8615 47.5995C70.1623 46.7 69.6769 45.7269 68.7774 45.4262C67.7295 45.0759 66.6698 44.764 65.602 44.4868C65.6025 44.4868 65.6029 44.487 65.6034 44.487C67.0731 43.567 68.4621 42.4688 69.7392 41.1918C70.8689 40.062 71.8661 38.8283 72.732 37.5172C73.2054 37.6091 73.6753 37.7055 74.1383 37.806C74.7551 37.9399 75.369 38.0837 75.9775 38.2346C75.9584 38.3093 75.9388 38.3837 75.9229 38.4596C75.0853 42.434 75.1397 45.9491 76.0844 48.9067C76.9335 51.5652 78.4659 53.7189 80.6385 55.3084C83.1992 57.1817 86.2907 57.9909 89.0912 57.9909C91.1988 57.9909 93.1419 57.5322 94.5689 56.724C96.1831 55.8097 97.5355 53.8832 98.6061 50.9908C99.1009 51.5684 99.5699 52.16 100.012 52.7657C101.804 55.2211 103.173 57.9273 104.079 60.8086C104.611 62.5009 105.932 63.8326 107.612 64.3712L112.446 65.9195C113.714 66.3258 114.566 67.4931 114.566 68.8248V76.8393C114.566 78.1709 113.714 79.3383 112.446 79.7446L104.658 82.239C103.412 82.6384 102.358 83.4945 101.689 84.6501C98.63 89.9375 93.8199 94.313 87.3919 97.655C86.6493 98.0415 86.1349 98.7327 85.9801 99.5518L83.4859 112.758C83.417 113.122 83.0983 113.386 82.7279 113.386H74.6184C74.248 113.386 73.9293 113.122 73.8604 112.758L72.479 105.46C72.207 104.024 70.8602 103.07 69.4105 103.289C65.9173 103.818 62.3178 104.085 58.7126 104.085C56.0304 104.085 53.3826 103.936 50.8421 103.64C49.4374 103.479 48.1288 104.436 47.8663 105.823L46.5535 112.758C46.4846 113.122 46.1659 113.386 45.7955 113.386H37.686C37.3157 113.386 36.9969 113.122 36.9271 112.753L34.5256 100.279C34.371 99.4757 33.8662 98.7924 33.14 98.4045C22.1826 92.555 16.3909 82.7822 16.3909 70.1433C16.3909 63.7574 17.788 58.1107 20.5433 53.3594C23.1144 48.9254 26.8697 45.2593 31.7047 42.4626C32.5256 41.9876 32.8061 40.9371 32.3313 40.1159C31.8565 39.295 30.8061 39.015 29.9849 39.4893C20.6097 44.9127 14.9551 53.2796 13.3983 63.9065V63.9063C13.2331 63.8913 13.0676 63.877 12.9028 63.86C12.9328 62.7134 12.7253 61.5565 12.2736 60.4336C11.2773 57.957 9.23073 56.1695 7.05949 55.8798C5.34849 55.6507 3.72023 56.3771 2.59024 57.8701C0.951836 60.0351 1.21895 61.7484 1.73128 62.8044C2.59623 64.5867 4.81956 65.8473 8.50914 66.6399C8.40773 66.7918 8.29618 66.9444 8.17404 67.0976C5.99403 69.8317 3.42569 70.4362 1.75802 70.4931C0.78175 70.5261 0 71.3099 0 72.2868V72.2951C0 73.2587 0.760316 74.0446 1.72298 74.0887C1.84629 74.0944 1.97512 74.0974 2.10925 74.0974C4.21942 74.0974 7.60616 73.3191 10.8599 69.2391C11.3736 68.5952 11.7922 67.9158 12.1139 67.2138C12.4379 67.2504 12.7493 67.2818 13.0475 67.3094C13.0475 67.3087 13.0475 67.3083 13.0478 67.3076C12.9892 68.2382 12.9567 69.1824 12.9567 70.1433C12.9567 77.2943 14.6615 83.6702 18.0233 89.0947C21.1232 94.0959 25.5613 98.1908 31.2188 101.27L33.5535 113.397C33.9289 115.381 35.6669 116.821 37.686 116.821H45.7955C47.8147 116.821 49.5526 115.381 49.9281 113.397L51.115 107.126C53.5801 107.387 56.1323 107.52 58.7124 107.52C62.2524 107.52 65.7882 107.273 69.2342 106.786L70.4854 113.397C70.8611 115.381 72.599 116.821 74.6179 116.821H82.7274C84.7466 116.821 86.4846 115.381 86.8602 113.396L89.2887 100.538C96.1493 96.9104 101.321 92.1447 104.662 86.3701C104.903 85.9539 105.274 85.6485 105.706 85.51L113.493 83.0156C116.189 82.1516 118 79.6697 118 76.8388V68.8243C118 65.9937 116.189 63.5117 113.493 62.6482ZM97.0914 42.2386C96.4304 47.891 94.6574 52.7263 92.8759 53.7353C90.851 54.8823 86.176 55.1038 82.6659 52.5361C79.1517 49.9655 77.9821 45.3427 79.2831 39.1676C79.2831 39.1673 79.2831 39.1673 79.2831 39.1673C79.4138 38.5471 79.8544 38.0106 80.4617 37.7327C89.0591 33.7972 94.0158 32.51 95.8573 32.51C96.1352 32.51 96.3422 32.5393 96.48 32.5932C97.0331 33.1828 97.7586 36.534 97.0914 42.2386ZM4.82164 61.3048C4.64395 60.9383 5.0634 60.2942 5.32936 59.9425C5.75089 59.3857 6.13923 59.2718 6.43261 59.2718C6.49461 59.2718 6.55246 59.2769 6.60546 59.284C7.39505 59.3894 8.5013 60.2582 9.08738 61.715C9.22543 62.058 9.40474 62.6261 9.44668 63.3345C7.0694 62.842 5.22242 62.1319 4.82164 61.3048Z" fill="white"/>
<path d="M54.8327 22.65V16.5047C56.9519 16.6561 57.7392 17.6248 58.4656 17.6248C59.3739 17.6248 59.7977 16.4745 59.7977 15.8993C59.7977 14.4158 56.8913 13.7801 54.8327 13.7195V12.9018C54.8327 12.5386 54.3785 12.2056 53.9245 12.2056C53.4096 12.2056 53.0464 12.5386 53.0464 12.9018V13.7797C50.1704 14.0825 47.2943 15.5962 47.2943 19.4107C47.2943 23.2858 50.3218 24.3757 53.0464 25.3444V32.4587C49.9583 32.2165 49.1411 30.0973 48.142 30.0973C47.3851 30.0973 46.7495 31.0964 46.7495 31.8231C46.7495 33.3064 49.2925 35.3347 53.0464 35.3953V36.3338C53.0464 36.697 53.4098 37.0301 53.9245 37.0301C54.3787 37.0301 54.8327 36.697 54.8327 36.3338V35.3045C58.1024 34.8503 60.3426 32.7917 60.3426 29.068C60.3426 24.951 57.4665 23.6186 54.8327 22.65ZM53.228 22.0749C51.6235 21.4695 50.3218 20.8339 50.3218 19.1083C50.3218 17.534 51.5327 16.7771 53.228 16.5653V22.0749ZM54.6509 32.3981V26.0104C56.1342 26.6461 57.3149 27.4937 57.3149 29.4008C57.3149 31.1268 56.2856 32.0955 54.6509 32.3981Z" fill="white"/>
</g>
</svg>
