<svg width="426" height="284" viewBox="0 0 426 284" fill="none" xmlns="http://www.w3.org/2000/svg">
<path d="M426 0H0V284H426V0Z" fill="white"/>
<path opacity="0.47" d="M32.6721 182.044C31.5095 182.403 30.429 182.987 29.4924 183.764C28.5558 184.54 27.7813 185.494 27.2132 186.57C26.6452 187.646 26.2946 188.823 26.1816 190.035C26.0686 191.246 26.1954 192.468 26.5547 193.631C28.0656 198.521 34.3022 204.656 39.187 203.145C44.0718 201.634 41.9759 193.892 43.0154 188.882C44.4638 181.896 37.5569 180.533 32.6721 182.044Z" fill="#ECF1F7"/>
<path opacity="0.47" d="M88.0396 28.8259C86.2806 25.5473 83.2914 23.1016 79.7295 22.0268C76.1675 20.9521 72.3244 21.3362 69.0456 23.0947C62.2296 26.7583 54.9024 37.8116 58.566 44.639C62.2296 51.4663 73.1296 46.0987 80.8771 46.1896C91.6918 46.3146 91.7145 35.6532 88.0396 28.8259Z" fill="#ECF1F7"/>
<path opacity="0.47" d="M390.216 220.691C395.061 212.983 396.277 203.418 395.266 194.37C394.172 185.151 391.604 176.168 387.66 167.765C384.014 160.011 378.737 153.099 377.232 144.477C375.244 133.071 380.447 122.103 381.656 110.914C384.065 88.6366 369.007 69.0122 350.337 58.4133C335.12 49.7911 317.353 46.5762 299.904 46.7921C284.21 47.0022 268.539 49.7854 253.328 53.5285C238.668 57.1353 224.36 61.8895 208.973 60.39C196.199 59.1461 184.691 53.8353 172.792 49.8763C144.392 40.4305 109.965 39.0843 83.9904 53.4831C67.3139 62.7131 55.6472 77.7026 50.4784 93.8111C46.6842 105.62 45.5595 119.195 48.3371 131.14C51.4611 144.562 57.2263 156.388 55.7211 170.531C54.4715 182.135 50.2115 193.444 50.6091 205.219C50.9328 215.335 54.7214 225.451 60.6172 233.619C60.992 234.152 61.4059 234.657 61.8555 235.129H373.619C380.151 231.636 386.24 226.967 390.216 220.691Z" fill="#ECF1F7"/>
<path opacity="0.81" d="M350.161 212.966C351.263 204.372 348.679 196.386 349.025 188.031C349.673 171.962 364.435 160.869 369.581 146.425C376.09 128.13 375.778 107.636 367.877 89.8124C364.054 81.2242 358.482 73.2722 350.877 67.7228C339.153 59.2028 323.794 57.3455 309.345 58.4247C287.846 60.0321 265.16 68.9724 243.542 66.5357C231.614 65.1896 227.967 52.7844 221.81 44.5996C214.841 35.3468 205.338 28.0764 194.858 23.2371C175.512 14.3252 152.344 13.4845 132.6 21.5842C111.51 30.1894 93.1524 51.2622 94.3452 75.0841C94.9132 86.109 99.4969 97.0601 97.3669 107.886C94.6973 121.478 84.0417 133.866 76.3169 144.942C67.1307 158.076 61.9673 173.6 61.4569 189.62C60.9465 205.639 65.1113 221.46 73.4428 235.152H342.749C346.65 228.314 349.169 220.776 350.161 212.966Z" fill="#ECF1F7"/>
<path opacity="0.58" d="M390.5 152.224C391.911 152.224 393.056 151.08 393.056 149.668C393.056 148.257 391.911 147.112 390.5 147.112C389.088 147.112 387.944 148.257 387.944 149.668C387.944 151.08 389.088 152.224 390.5 152.224Z" fill="#209956"/>
<path opacity="0.58" d="M372.324 222.656C373.422 222.656 374.312 221.766 374.312 220.668C374.312 219.57 373.422 218.68 372.324 218.68C371.226 218.68 370.336 219.57 370.336 220.668C370.336 221.766 371.226 222.656 372.324 222.656Z" fill="#874D7F"/>
<path opacity="0.58" d="M63.8997 63.6159C65.3114 63.6159 66.4557 62.4715 66.4557 61.0599C66.4557 59.6483 65.3114 58.5039 63.8997 58.5039C62.4881 58.5039 61.3438 59.6483 61.3438 61.0599C61.3438 62.4715 62.4881 63.6159 63.8997 63.6159Z" fill="#874D7F"/>
<path opacity="0.58" d="M44.5881 159.039C45.686 159.039 46.5761 158.149 46.5761 157.051C46.5761 155.954 45.686 155.063 44.5881 155.063C43.4902 155.063 42.6001 155.954 42.6001 157.051C42.6001 158.149 43.4902 159.039 44.5881 159.039Z" fill="#209956"/>
<path opacity="0.58" d="M47.4282 74.4081C47.8987 74.4081 48.2802 74.0266 48.2802 73.5561C48.2802 73.0856 47.8987 72.7041 47.4282 72.7041C46.9576 72.7041 46.5762 73.0856 46.5762 73.5561C46.5762 74.0266 46.9576 74.4081 47.4282 74.4081Z" fill="#209956"/>
<path opacity="0.58" d="M258.702 35.3411C258.574 35.9336 258.274 36.4751 257.839 36.8971C257.403 37.3191 256.853 37.6027 256.257 37.712C255.66 37.8214 255.045 37.7516 254.489 37.5115C253.932 37.2714 253.459 36.8718 253.129 36.3631C252.8 35.8543 252.628 35.2593 252.637 34.6532C252.645 34.0471 252.832 33.457 253.176 32.9575C253.519 32.458 254.003 32.0714 254.566 31.8466C255.129 31.6218 255.746 31.5689 256.339 31.6945C256.734 31.7774 257.109 31.9378 257.442 32.1663C257.775 32.3948 258.06 32.687 258.279 33.0259C258.499 33.3649 258.65 33.7439 258.722 34.1413C258.794 34.5386 258.788 34.9464 258.702 35.3411Z" fill="#874D7F"/>
<path opacity="0.58" d="M234.221 45.4395C234.181 45.6389 234.082 45.8217 233.938 45.9647C233.793 46.1076 233.609 46.2041 233.409 46.2419C233.209 46.2796 233.002 46.2569 232.816 46.1766C232.629 46.0963 232.47 45.9621 232.36 45.7911C232.25 45.6202 232.193 45.4202 232.197 45.2168C232.201 45.0135 232.266 44.8159 232.383 44.6495C232.5 44.4831 232.663 44.3553 232.853 44.2825C233.043 44.2097 233.251 44.1953 233.449 44.241C233.708 44.3008 233.934 44.4595 234.079 44.6833C234.223 44.9072 234.274 45.1784 234.221 45.4395Z" fill="#209956"/>
<path d="M155.264 106.216H147.312C146.526 106.215 145.774 105.902 145.219 105.346C144.664 104.79 144.352 104.037 144.352 103.251V97.1283C142.24 96.549 140.21 95.7055 138.309 94.6177L133.975 98.9516C133.7 99.2274 133.373 99.4462 133.014 99.5955C132.654 99.7448 132.268 99.8217 131.879 99.8217C131.49 99.8217 131.104 99.7448 130.744 99.5955C130.385 99.4462 130.058 99.2274 129.783 98.9516L124.183 93.3511C123.629 92.7953 123.318 92.0427 123.318 91.258C123.318 90.4733 123.629 89.7207 124.183 89.1649L128.516 84.8254C127.427 82.9259 126.585 80.895 126.012 78.7819H119.906C119.121 78.7804 118.369 78.4681 117.815 77.9135C117.26 77.3588 116.948 76.607 116.946 75.8226V67.8706C116.946 67.0852 117.258 66.3319 117.813 65.7761C118.368 65.2202 119.12 64.9071 119.906 64.9056H126.034C126.61 62.7933 127.452 60.7625 128.539 58.8621L124.205 54.5283C123.651 53.9725 123.34 53.2199 123.34 52.4352C123.34 51.6505 123.651 50.8979 124.205 50.3421L129.806 44.736C130.363 44.1817 131.116 43.8705 131.902 43.8705C132.687 43.8705 133.441 44.1817 133.998 44.736L138.331 49.0698C140.234 47.9902 142.265 47.1525 144.375 46.5763V40.4476C144.377 39.6632 144.689 38.9113 145.243 38.3567C145.798 37.802 146.55 37.4898 147.334 37.4883H155.286C156.071 37.4898 156.823 37.802 157.377 38.3567C157.932 38.9113 158.244 39.6632 158.246 40.4476V46.5763C160.357 47.1547 162.387 47.9963 164.289 49.0812L168.623 44.7473C169.179 44.1934 169.931 43.8824 170.716 43.8824C171.501 43.8824 172.253 44.1934 172.809 44.7473L178.415 50.3535C178.969 50.9092 179.28 51.6619 179.28 52.4466C179.28 53.2312 178.969 53.9839 178.415 54.5396L174.081 58.8735C175.169 60.7739 176.01 62.8046 176.586 64.917H182.715C183.5 64.9185 184.253 65.2315 184.808 65.7874C185.363 66.3433 185.674 67.0966 185.674 67.882V75.834C185.673 76.6183 185.361 77.3702 184.806 77.9248C184.251 78.4795 183.499 78.7917 182.715 78.7932H176.564C175.99 80.9063 175.148 82.9373 174.059 84.8368L178.393 89.1763C178.946 89.732 179.257 90.4847 179.257 91.2694C179.257 92.054 178.946 92.8067 178.393 93.3624L172.786 98.9629C172.512 99.2386 172.186 99.4573 171.827 99.6065C171.467 99.7558 171.082 99.8326 170.693 99.8326C170.304 99.8326 169.919 99.7558 169.56 99.6065C169.201 99.4573 168.875 99.2386 168.6 98.9629L164.266 94.6291C162.364 95.712 160.334 96.5516 158.223 97.1283V103.251C158.223 104.037 157.911 104.79 157.356 105.346C156.802 105.902 156.049 106.215 155.264 106.216ZM138.116 92.9308L138.564 93.1977C140.633 94.4364 142.872 95.3645 145.21 95.9525L145.721 96.0832V103.251C145.721 103.679 145.891 104.089 146.194 104.392C146.496 104.694 146.906 104.864 147.334 104.864H155.286C155.714 104.864 156.124 104.694 156.427 104.392C156.729 104.089 156.899 103.679 156.899 103.251V96.0661L157.405 95.9355C159.744 95.3496 161.983 94.4213 164.051 93.1807L164.505 92.9137L169.577 97.986C169.88 98.2843 170.288 98.4515 170.713 98.4515C171.138 98.4515 171.546 98.2843 171.849 97.986L177.45 92.3798C177.749 92.0777 177.917 91.6693 177.917 91.2438C177.917 90.8182 177.749 90.4099 177.45 90.1078L172.377 85.0356L172.65 84.5868C173.885 82.5166 174.813 80.2781 175.405 77.9412L175.53 77.43H182.704C183.131 77.43 183.542 77.2601 183.844 76.9576C184.147 76.6551 184.317 76.2447 184.317 75.8169V67.8649C184.317 67.4371 184.147 67.0268 183.844 66.7243C183.542 66.4218 183.131 66.2518 182.704 66.2518H175.513L175.388 65.7406C174.797 63.4035 173.869 61.1648 172.633 59.095L172.36 58.6406L177.433 53.5684C177.732 53.2662 177.9 52.8579 177.9 52.4324C177.9 52.0068 177.732 51.5985 177.433 51.2964L171.832 45.6959C171.53 45.3962 171.122 45.228 170.696 45.228C170.271 45.228 169.862 45.3962 169.56 45.6959L164.488 50.7681L164.033 50.5012C161.965 49.2611 159.726 48.3311 157.388 47.7407L156.882 47.6157V40.4476C156.881 40.0202 156.71 39.6108 156.408 39.3086C156.106 39.0064 155.697 38.8359 155.269 38.8344H147.317C146.889 38.8344 146.479 39.0044 146.177 39.3069C145.874 39.6094 145.704 40.0197 145.704 40.4476V47.6214L145.193 47.7464C142.871 48.343 140.648 49.2728 138.593 50.5068L138.144 50.7738L133.072 45.7016C132.77 45.4019 132.361 45.2337 131.936 45.2337C131.51 45.2337 131.102 45.4019 130.8 45.7016L125.199 51.302C124.9 51.6042 124.731 52.0125 124.731 52.438C124.731 52.8636 124.9 53.2719 125.199 53.574L130.272 58.6463L129.999 59.1007C128.761 61.1693 127.833 63.4083 127.244 65.7463L127.113 66.2575H119.906C119.478 66.2575 119.067 66.4274 118.765 66.73C118.462 67.0325 118.292 67.4428 118.292 67.8706V75.8226C118.292 76.0344 118.334 76.2442 118.415 76.4399C118.496 76.6356 118.615 76.8135 118.765 76.9632C118.915 77.113 119.093 77.2319 119.288 77.3129C119.484 77.394 119.694 77.4357 119.906 77.4357H127.074L127.204 77.9469C127.794 80.2845 128.722 82.5234 129.959 84.5925L130.232 85.0412L125.16 90.1135C124.86 90.4156 124.692 90.8239 124.692 91.2495C124.692 91.675 124.86 92.0833 125.16 92.3855L130.76 97.9916C131.064 98.2886 131.471 98.4549 131.896 98.4549C132.321 98.4549 132.728 98.2886 133.032 97.9916L138.116 92.9308ZM151.299 90.5906C147.592 90.5906 143.968 89.4913 140.885 87.4317C137.803 85.372 135.4 82.4446 133.982 79.0196C132.563 75.5946 132.192 71.8258 132.915 68.1898C133.638 64.5538 135.424 61.214 138.045 58.5926C140.666 55.9712 144.006 54.186 147.642 53.4628C151.278 52.7395 155.047 53.1107 158.472 54.5294C161.897 55.9481 164.824 58.3506 166.884 61.433C168.944 64.5154 170.043 68.1394 170.043 71.8466C170.038 76.8149 168.062 81.5781 164.547 85.0896C161.032 88.6011 156.267 90.5736 151.299 90.5736V90.5906ZM151.299 54.4772C147.861 54.4772 144.501 55.4965 141.643 57.4064C138.784 59.3162 136.557 62.0307 135.241 65.2066C133.926 68.3825 133.581 71.8772 134.252 75.2488C134.923 78.6203 136.578 81.7173 139.009 84.148C141.44 86.5788 144.537 88.2341 147.908 88.9048C151.28 89.5754 154.774 89.2312 157.95 87.9157C161.126 86.6002 163.841 84.3725 165.751 81.5142C167.66 78.656 168.68 75.2956 168.68 71.858C168.68 67.2467 166.849 62.8241 163.59 59.5618C160.331 56.2996 155.91 54.4646 151.299 54.4601V54.4772Z" fill="white"/>
<path d="M144.135 125.465L140.812 123.665C141.16 122.302 141.307 120.895 141.25 119.49L144.868 118.416C145.198 118.316 145.475 118.09 145.639 117.787C145.803 117.484 145.84 117.128 145.743 116.797L144.459 112.481C144.411 112.317 144.331 112.165 144.224 112.032C144.116 111.9 143.984 111.79 143.834 111.708C143.684 111.627 143.52 111.576 143.35 111.559C143.181 111.541 143.009 111.557 142.846 111.606L139.222 112.685C138.508 111.474 137.618 110.375 136.581 109.425L138.376 106.102C138.539 105.799 138.576 105.444 138.478 105.114C138.38 104.784 138.156 104.506 137.853 104.341L133.877 102.2C133.727 102.118 133.563 102.067 133.393 102.049C133.223 102.031 133.052 102.046 132.888 102.095C132.724 102.144 132.572 102.224 132.44 102.332C132.307 102.439 132.197 102.572 132.116 102.722L130.316 106.04C128.953 105.693 127.546 105.548 126.141 105.608L125.067 101.99C125.019 101.826 124.938 101.673 124.83 101.541C124.723 101.408 124.59 101.298 124.439 101.217C124.289 101.136 124.124 101.085 123.954 101.067C123.784 101.05 123.612 101.066 123.449 101.115L119.138 102.393C118.973 102.441 118.82 102.521 118.687 102.629C118.554 102.736 118.443 102.869 118.361 103.02C118.279 103.17 118.228 103.335 118.21 103.505C118.192 103.676 118.208 103.848 118.257 104.012L119.336 107.63C118.127 108.349 117.029 109.241 116.076 110.277L112.77 108.488C112.62 108.406 112.455 108.355 112.285 108.337C112.115 108.32 111.944 108.336 111.78 108.385C111.616 108.434 111.464 108.515 111.332 108.623C111.199 108.732 111.09 108.865 111.009 109.016L108.868 112.992C108.704 113.296 108.667 113.652 108.765 113.983C108.863 114.314 109.088 114.593 109.391 114.758L112.708 116.553C112.362 117.916 112.217 119.323 112.276 120.728L108.658 121.807C108.494 121.855 108.342 121.935 108.209 122.043C108.077 122.15 107.967 122.282 107.886 122.432C107.804 122.582 107.753 122.746 107.736 122.916C107.718 123.086 107.734 123.257 107.783 123.42L109.067 127.737C109.115 127.901 109.195 128.053 109.302 128.186C109.41 128.318 109.542 128.428 109.692 128.509C109.842 128.591 110.006 128.642 110.176 128.659C110.345 128.677 110.517 128.661 110.68 128.612L114.304 127.538C115.019 128.749 115.909 129.848 116.945 130.799L115.15 134.116C115.068 134.266 115.017 134.43 114.999 134.6C114.981 134.77 114.997 134.941 115.045 135.105C115.094 135.268 115.174 135.421 115.282 135.553C115.39 135.686 115.522 135.796 115.673 135.877L119.649 138.024C119.952 138.187 120.307 138.224 120.637 138.126C120.967 138.028 121.245 137.803 121.41 137.501L123.204 134.178C124.569 134.527 125.978 134.672 127.385 134.61L128.458 138.234C128.507 138.398 128.588 138.55 128.696 138.683C128.803 138.815 128.936 138.925 129.087 139.007C129.237 139.088 129.402 139.139 129.572 139.156C129.742 139.174 129.914 139.157 130.077 139.108L134.388 137.825C134.552 137.776 134.705 137.695 134.837 137.588C134.97 137.48 135.08 137.347 135.161 137.197C135.242 137.046 135.293 136.881 135.311 136.711C135.328 136.541 135.312 136.37 135.263 136.206L134.19 132.588C135.398 131.869 136.496 130.979 137.45 129.947L140.767 131.742C141.071 131.905 141.427 131.943 141.758 131.845C142.089 131.747 142.368 131.522 142.533 131.219L144.675 127.243C144.758 127.091 144.81 126.924 144.828 126.752C144.845 126.58 144.829 126.406 144.779 126.241C144.728 126.075 144.645 125.921 144.535 125.788C144.425 125.655 144.289 125.545 144.135 125.465ZM121.875 129.112C120.091 128.147 118.632 126.675 117.684 124.882C116.736 123.088 116.341 121.054 116.549 119.036C116.757 117.018 117.558 115.107 118.852 113.545C120.146 111.982 121.874 110.839 123.818 110.258C125.761 109.678 127.834 109.687 129.772 110.284C131.711 110.881 133.429 112.04 134.71 113.613C135.99 115.187 136.775 117.104 136.966 119.124C137.156 121.144 136.743 123.174 135.78 124.96C135.14 126.146 134.272 127.194 133.227 128.044C132.182 128.895 130.979 129.531 129.688 129.917C128.397 130.302 127.042 130.43 125.702 130.291C124.361 130.153 123.061 129.752 121.875 129.112Z" fill="white"/>
<g opacity="0.36">
<path opacity="0.36" d="M118.741 95.1856L116.185 93.7997C116.454 92.7503 116.567 91.6671 116.52 90.5848L119.309 89.7556C119.435 89.7185 119.552 89.6568 119.654 89.574C119.757 89.4913 119.841 89.3891 119.904 89.2734C119.966 89.1578 120.005 89.0309 120.018 88.9001C120.031 88.7694 120.018 88.6373 119.979 88.5116L118.991 85.2002C118.954 85.0736 118.893 84.9556 118.811 84.8529C118.728 84.7502 118.626 84.6649 118.51 84.602C118.395 84.5391 118.267 84.4999 118.136 84.4865C118.005 84.4732 117.873 84.486 117.747 84.5243L114.964 85.3536C114.411 84.4224 113.726 83.5766 112.93 82.843L114.31 80.287C114.374 80.1721 114.414 80.0456 114.428 79.915C114.442 79.7844 114.43 79.6523 114.393 79.5265C114.355 79.4006 114.293 79.2835 114.209 79.182C114.126 79.0804 114.023 78.9965 113.907 78.9352L110.863 77.2823C110.629 77.1568 110.355 77.1288 110.101 77.2044C109.847 77.2799 109.633 77.4529 109.505 77.6856L108.125 80.2416C107.076 79.9731 105.992 79.8602 104.91 79.9064L104.081 77.1232C104.005 76.8693 103.831 76.6558 103.598 76.5292C103.365 76.4026 103.091 76.3732 102.837 76.4473L99.5141 77.4356C99.2603 77.5118 99.0472 77.6857 98.9215 77.9189C98.7959 78.1521 98.7679 78.4257 98.8439 78.6796L99.6731 81.4628C98.7408 82.0156 97.8949 82.7027 97.1626 83.5019L94.6066 82.116C94.3729 81.9905 94.099 81.9625 93.8448 82.038C93.5905 82.1136 93.3764 82.2865 93.2491 82.5192L91.6019 85.5637C91.4811 85.7968 91.4569 86.0681 91.5345 86.3189C91.6121 86.5697 91.7852 86.78 92.0165 86.9042L94.5725 88.2901C94.3034 89.3395 94.1905 90.4227 94.2374 91.505L91.4485 92.34C91.1947 92.4162 90.9816 92.59 90.8559 92.8232C90.7303 93.0565 90.7023 93.3301 90.7783 93.5839L91.7666 96.9067C91.8037 97.0328 91.8654 97.1504 91.948 97.2527C92.0307 97.355 92.1327 97.44 92.2483 97.5028C92.3638 97.5656 92.4906 97.6049 92.6214 97.6186C92.7522 97.6323 92.8844 97.6201 93.0105 97.5826L95.7937 96.7533C96.346 97.6845 97.031 98.5302 97.8271 99.2639L96.4469 101.814C96.384 101.93 96.3446 102.057 96.3308 102.187C96.317 102.318 96.3292 102.451 96.3667 102.577C96.4042 102.703 96.4662 102.82 96.5491 102.922C96.6321 103.025 96.7344 103.109 96.8502 103.172L99.8947 104.819C100.01 104.882 100.136 104.922 100.267 104.936C100.398 104.95 100.53 104.938 100.656 104.902C100.782 104.865 100.899 104.803 101.002 104.721C101.104 104.638 101.189 104.537 101.252 104.421L102.632 101.865C103.683 102.129 104.765 102.24 105.847 102.195L106.677 104.984C106.755 105.235 106.93 105.446 107.162 105.571C107.395 105.695 107.667 105.723 107.92 105.648L111.243 104.66C111.497 104.584 111.71 104.41 111.836 104.177C111.962 103.943 111.989 103.67 111.914 103.416L111.084 100.627C112.018 100.08 112.866 99.3989 113.6 98.605L116.156 99.9909C116.39 100.116 116.664 100.144 116.918 100.069C117.173 99.9933 117.387 99.8204 117.514 99.5876L119.161 96.5375C119.223 96.4213 119.262 96.294 119.274 96.1629C119.287 96.0317 119.273 95.8994 119.234 95.7736C119.195 95.6479 119.131 95.5311 119.046 95.4302C118.962 95.3292 118.858 95.2461 118.741 95.1856ZM101.616 97.9916C100.242 97.2486 99.119 96.1149 98.3896 94.7337C97.6602 93.3525 97.3568 91.786 97.5179 90.2324C97.679 88.6788 98.2973 87.2079 99.2945 86.0057C100.292 84.8036 101.623 83.9243 103.12 83.479C104.618 83.0338 106.213 83.0426 107.705 83.5044C109.197 83.9662 110.519 84.8602 111.503 86.0733C112.487 87.2864 113.089 88.7641 113.233 90.3194C113.376 91.8747 113.056 93.4378 112.311 94.8108C111.818 95.722 111.15 96.527 110.345 97.18C109.541 97.833 108.615 98.3212 107.622 98.6165C106.629 98.9119 105.587 99.0087 104.557 98.9015C103.526 98.7943 102.527 98.4851 101.616 97.9916Z" fill="#599AF2"/>
</g>
<g opacity="0.18">
<path opacity="0.18" d="M215.84 59.3389L212.688 57.6349C213.019 56.337 213.157 54.9971 213.097 53.6589L216.533 52.6365C216.846 52.543 217.11 52.3292 217.267 52.0419C217.423 51.7545 217.46 51.4169 217.368 51.1029L216.147 47.0076C216.053 46.694 215.839 46.4302 215.552 46.2737C215.265 46.1173 214.927 46.0809 214.613 46.1726L211.177 47.195C210.495 46.0464 209.649 45.0035 208.666 44.0994L210.37 40.9527C210.452 40.8085 210.503 40.6495 210.522 40.485C210.541 40.3206 210.527 40.154 210.48 39.9951C210.434 39.8362 210.356 39.6883 210.251 39.5601C210.146 39.4319 210.017 39.326 209.87 39.2487L206.116 37.2152C205.973 37.1384 205.817 37.0904 205.656 37.0739C205.495 37.0575 205.332 37.0729 205.177 37.1193C205.022 37.1657 204.878 37.2422 204.752 37.3445C204.627 37.4467 204.523 37.5726 204.446 37.7151L202.742 40.8618C201.443 40.5337 200.104 40.3959 198.766 40.4529L197.749 37.0165C197.703 36.8613 197.627 36.7167 197.525 36.5911C197.422 36.4654 197.297 36.3611 197.154 36.2841C197.012 36.2071 196.856 36.1589 196.695 36.1423C196.533 36.1256 196.371 36.1409 196.216 36.1872L192.12 37.4027C191.807 37.4961 191.543 37.7099 191.386 37.9973C191.23 38.2846 191.194 38.6222 191.285 38.9363L192.308 42.3443C191.16 43.0266 190.117 43.8723 189.212 44.8549L186.065 43.1509C185.778 42.995 185.44 42.9595 185.126 43.0521C184.812 43.1447 184.547 43.3579 184.39 43.645L182.356 47.4052C182.28 47.5476 182.232 47.7038 182.215 47.8649C182.199 48.0259 182.214 48.1886 182.26 48.3437C182.307 48.4987 182.383 48.6431 182.486 48.7686C182.588 48.8941 182.714 48.9983 182.856 49.0751L186.003 50.7791C185.672 52.0771 185.534 53.4169 185.594 54.7551L182.158 55.7775C182.002 55.8237 181.858 55.9 181.732 56.0021C181.607 56.1042 181.502 56.2301 181.425 56.3725C181.348 56.5149 181.3 56.6711 181.283 56.8321C181.267 56.9932 181.282 57.1559 181.328 57.3111L182.544 61.4064C182.59 61.5615 182.666 61.7061 182.768 61.8317C182.871 61.9574 182.996 62.0617 183.139 62.1387C183.281 62.2157 183.437 62.2639 183.598 62.2806C183.76 62.2972 183.922 62.2819 184.077 62.2357L187.514 61.2132C188.194 62.3625 189.04 63.4056 190.024 64.3089L188.32 67.4612C188.244 67.6037 188.196 67.7599 188.179 67.921C188.163 68.082 188.178 68.2447 188.224 68.3997C188.271 68.5548 188.347 68.6992 188.45 68.8247C188.552 68.9502 188.678 69.0543 188.82 69.1312L192.552 71.2271C192.696 71.3085 192.855 71.3602 193.02 71.3791C193.184 71.3981 193.351 71.3838 193.51 71.3372C193.668 71.2906 193.816 71.2126 193.945 71.1078C194.073 71.0031 194.179 70.8737 194.256 70.7272L195.96 67.5749C197.258 67.9048 198.598 68.0445 199.936 67.9895L200.958 71.3975C201.005 71.5527 201.081 71.6972 201.183 71.8229C201.285 71.9485 201.411 72.0528 201.553 72.1298C201.696 72.2069 201.852 72.2551 202.013 72.2717C202.174 72.2883 202.337 72.2731 202.492 72.2268L206.587 71.0056C206.742 70.9594 206.887 70.883 207.013 70.7809C207.138 70.6788 207.243 70.553 207.32 70.4106C207.397 70.2682 207.445 70.112 207.461 69.9509C207.478 69.7899 207.463 69.6271 207.417 69.472L206.394 66.064C207.543 65.3855 208.586 64.5415 209.49 63.5591L212.642 65.2631C212.929 65.4187 213.266 65.4541 213.579 65.3614C213.892 65.2688 214.156 65.0557 214.312 64.7689L216.345 61.0088C216.422 60.866 216.47 60.7094 216.486 60.5482C216.502 60.3869 216.486 60.2241 216.439 60.069C216.392 59.9139 216.315 59.7695 216.212 59.6443C216.109 59.519 215.983 59.4152 215.84 59.3389ZM194.716 62.798C193.023 61.8808 191.639 60.4821 190.741 58.7787C189.843 57.0753 189.47 55.1438 189.67 53.2284C189.869 51.3131 190.632 49.4999 191.863 48.0183C193.093 46.5368 194.735 45.4533 196.581 44.905C198.427 44.3566 200.394 44.3681 202.233 44.9379C204.073 45.5077 205.702 46.6103 206.915 48.1061C208.128 49.6019 208.87 51.4238 209.047 53.3414C209.224 55.2589 208.829 57.186 207.911 58.8788C207.301 60.0037 206.476 60.9975 205.483 61.8034C204.489 62.6093 203.346 63.2115 202.12 63.5754C200.894 63.9394 199.607 64.0581 198.335 63.9247C197.063 63.7913 195.829 63.4084 194.705 62.798H194.716Z" stroke="#4C65BA" stroke-miterlimit="10"/>
</g>
<path d="M163.936 137.052H76.044C73.4152 137.052 71.2842 139.183 71.2842 141.812V203.411C71.2842 206.04 73.4152 208.171 76.044 208.171H163.936C166.565 208.171 168.696 206.04 168.696 203.411V141.812C168.696 139.183 166.565 137.052 163.936 137.052Z" fill="white"/>
<path d="M71.2842 156.699V140.664C71.2842 140.19 71.3776 139.72 71.5592 139.282C71.7407 138.844 72.0068 138.445 72.3423 138.11C72.6777 137.774 73.0759 137.508 73.5142 137.327C73.9525 137.145 74.4223 137.052 74.8967 137.052H165.084C166.042 137.052 166.961 137.432 167.638 138.11C168.316 138.787 168.696 139.706 168.696 140.664V156.318L71.2842 156.699Z" fill="#874D7F"/>
<path d="M89.6031 160.545H78.8281V169.167H89.6031V160.545Z" fill="#874D7F"/>
<path opacity="0.54" d="M89.6031 175.632H78.8281V184.254H89.6031V175.632Z" fill="#874D7F"/>
<path opacity="0.54" d="M89.6031 190.285H78.8281V198.907H89.6031V190.285Z" fill="#874D7F"/>
<path opacity="0.54" d="M108.136 160.545H97.3608V169.167H108.136V160.545Z" fill="#874D7F"/>
<path d="M108.136 175.632H97.3608V184.254H108.136V175.632Z" fill="#874D7F"/>
<path opacity="0.54" d="M108.136 190.285H97.3608V198.907H108.136V190.285Z" fill="#874D7F"/>
<g opacity="0.98">
<path opacity="0.5" d="M126.239 160.545H115.464V169.167H126.239V160.545Z" fill="#874D7F"/>
<path opacity="0.5" d="M126.239 175.631H115.464V184.253H126.239V175.631Z" fill="#874D7F"/>
<path opacity="0.98" d="M126.239 190.285H115.464V198.907H126.239V190.285Z" fill="#874D7F"/>
</g>
<g opacity="0.54">
<path opacity="0.54" d="M144.773 160.545H133.998V169.167H144.773V160.545Z" fill="#874D7F"/>
<path opacity="0.54" d="M144.772 175.632H133.997V184.254H144.772V175.632Z" fill="#874D7F"/>
<path opacity="0.54" d="M144.772 190.286H133.997V198.908H144.772V190.286Z" fill="#874D7F"/>
</g>
<path opacity="0.43" d="M162.449 160.545H151.674V169.167H162.449V160.545Z" fill="#874D7F"/>
<path d="M162.449 175.632H151.674V184.254H162.449V175.632Z" fill="#874D7F"/>
<path opacity="0.43" d="M162.449 190.285H151.674V198.907H162.449V190.285Z" fill="#874D7F"/>
<path d="M103.376 168.128C105.258 168.128 106.784 166.603 106.784 164.72C106.784 162.838 105.258 161.312 103.376 161.312C101.494 161.312 99.9683 162.838 99.9683 164.72C99.9683 166.603 101.494 168.128 103.376 168.128Z" stroke="white" stroke-miterlimit="10" stroke-linecap="round"/>
<path d="M101.809 162.164L104.66 166.992" stroke="white" stroke-miterlimit="10" stroke-linecap="round"/>
<path d="M105.648 163.151L100.82 166.003" stroke="white" stroke-miterlimit="10" stroke-linecap="round"/>
<path opacity="0.58" d="M83.2179 148.691C85.5988 148.691 87.529 146.76 87.529 144.379C87.529 141.999 85.5988 140.068 83.2179 140.068C80.8369 140.068 78.9067 141.999 78.9067 144.379C78.9067 146.76 80.8369 148.691 83.2179 148.691Z" fill="white"/>
<path d="M83.2174 145.932C82.7147 145.93 82.2331 145.73 81.8776 145.374C81.5222 145.019 81.3218 144.537 81.3203 144.034V131.624C81.3218 131.121 81.5222 130.639 81.8776 130.284C82.2331 129.928 82.7147 129.728 83.2174 129.727C83.7201 129.728 84.2018 129.928 84.5572 130.284C84.9127 130.639 85.1131 131.121 85.1146 131.624V144.034C85.1131 144.537 84.9127 145.019 84.5572 145.374C84.2018 145.73 83.7201 145.93 83.2174 145.932Z" fill="#209956"/>
<path opacity="0.58" d="M95.981 148.691C98.362 148.691 100.292 146.76 100.292 144.379C100.292 141.999 98.362 140.068 95.981 140.068C93.6001 140.068 91.6699 141.999 91.6699 144.379C91.6699 146.76 93.6001 148.691 95.981 148.691Z" fill="white"/>
<path d="M95.9918 145.932C95.4892 145.93 95.0075 145.73 94.652 145.374C94.2966 145.019 94.0962 144.537 94.0947 144.034V131.624C94.0962 131.121 94.2966 130.639 94.652 130.284C95.0075 129.928 95.4892 129.728 95.9918 129.727C96.4945 129.728 96.9762 129.928 97.3317 130.284C97.6871 130.639 97.8875 131.121 97.889 131.624V144.034C97.8875 144.537 97.6871 145.019 97.3317 145.374C96.9762 145.73 96.4945 145.93 95.9918 145.932Z" fill="#209956"/>
<path opacity="0.58" d="M108.017 148.691C110.398 148.691 112.328 146.76 112.328 144.379C112.328 141.999 110.398 140.068 108.017 140.068C105.636 140.068 103.706 141.999 103.706 144.379C103.706 146.76 105.636 148.691 108.017 148.691Z" fill="white"/>
<path d="M108.017 145.932C107.514 145.93 107.032 145.73 106.677 145.374C106.321 145.019 106.121 144.537 106.12 144.034V131.624C106.121 131.121 106.321 130.639 106.677 130.284C107.032 129.928 107.514 129.728 108.017 129.727C108.519 129.728 109.001 129.928 109.357 130.284C109.712 130.639 109.912 131.121 109.914 131.624V144.034C109.912 144.537 109.712 145.019 109.357 145.374C109.001 145.73 108.519 145.93 108.017 145.932Z" fill="#209956"/>
<path opacity="0.58" d="M120.78 148.691C123.161 148.691 125.091 146.76 125.091 144.379C125.091 141.999 123.161 140.068 120.78 140.068C118.399 140.068 116.469 141.999 116.469 144.379C116.469 146.76 118.399 148.691 120.78 148.691Z" fill="white"/>
<path d="M120.78 145.932C120.277 145.93 119.796 145.73 119.44 145.374C119.085 145.019 118.884 144.537 118.883 144.034V131.624C118.884 131.121 119.085 130.639 119.44 130.284C119.796 129.928 120.277 129.728 120.78 129.727C121.283 129.728 121.764 129.928 122.12 130.284C122.475 130.639 122.676 131.121 122.677 131.624V144.034C122.676 144.537 122.475 145.019 122.12 145.374C121.764 145.73 121.283 145.93 120.78 145.932Z" fill="#209956"/>
<path opacity="0.58" d="M132.782 148.691C135.163 148.691 137.093 146.76 137.093 144.379C137.093 141.999 135.163 140.068 132.782 140.068C130.401 140.068 128.471 141.999 128.471 144.379C128.471 146.76 130.401 148.691 132.782 148.691Z" fill="white"/>
<path d="M132.783 145.932C132.28 145.93 131.799 145.73 131.445 145.374C131.09 145.018 130.891 144.537 130.891 144.034V131.624C130.891 131.122 131.09 130.64 131.445 130.284C131.799 129.929 132.28 129.728 132.783 129.727C133.285 129.728 133.767 129.928 134.122 130.284C134.478 130.639 134.678 131.121 134.68 131.624V144.034C134.678 144.537 134.478 145.019 134.122 145.374C133.767 145.73 133.285 145.93 132.783 145.932Z" fill="#209956"/>
<path opacity="0.58" d="M145.551 148.691C147.932 148.691 149.862 146.76 149.862 144.379C149.862 141.999 147.932 140.068 145.551 140.068C143.17 140.068 141.24 141.999 141.24 144.379C141.24 146.76 143.17 148.691 145.551 148.691Z" fill="white"/>
<path d="M145.55 145.932C145.048 145.93 144.566 145.73 144.211 145.374C143.855 145.019 143.655 144.537 143.653 144.034V131.624C143.655 131.121 143.855 130.639 144.211 130.284C144.566 129.928 145.048 129.728 145.55 129.727C146.053 129.728 146.535 129.928 146.89 130.284C147.246 130.639 147.446 131.121 147.448 131.624V144.034C147.446 144.537 147.246 145.019 146.89 145.374C146.535 145.73 146.053 145.93 145.55 145.932Z" fill="#209956"/>
<path opacity="0.58" d="M157.586 148.691C159.966 148.691 161.897 146.76 161.897 144.379C161.897 141.999 159.966 140.068 157.586 140.068C155.205 140.068 153.274 141.999 153.274 144.379C153.274 146.76 155.205 148.691 157.586 148.691Z" fill="white"/>
<path d="M157.586 145.932C157.083 145.93 156.602 145.73 156.246 145.374C155.891 145.019 155.69 144.537 155.689 144.034V131.624C155.69 131.121 155.891 130.639 156.246 130.284C156.602 129.928 157.083 129.728 157.586 129.727C158.089 129.728 158.57 129.928 158.926 130.284C159.281 130.639 159.482 131.121 159.483 131.624V144.034C159.482 144.537 159.281 145.019 158.926 145.374C158.57 145.73 158.089 145.93 157.586 145.932Z" fill="#209956"/>
<path d="M130.163 233.619C144.16 233.619 155.507 222.137 155.507 207.973C155.507 193.81 144.16 182.328 130.163 182.328C116.166 182.328 104.819 193.81 104.819 207.973C104.819 222.137 116.166 233.619 130.163 233.619Z" fill="#599AF2"/>
<path d="M130.163 227.683C140.922 227.683 149.645 218.859 149.645 207.973C149.645 197.088 140.922 188.264 130.163 188.264C119.403 188.264 110.68 197.088 110.68 207.973C110.68 218.859 119.403 227.683 130.163 227.683Z" fill="white"/>
<path d="M130.6 193.172H129.731C129.449 193.172 129.22 193.401 129.22 193.683V206.043C129.22 206.325 129.449 206.554 129.731 206.554H130.6C130.883 206.554 131.112 206.325 131.112 206.043V193.683C131.112 193.401 130.883 193.172 130.6 193.172Z" fill="#599AF2"/>
<path d="M140.973 208.733V207.864C140.973 207.581 140.744 207.353 140.462 207.353H130.738C130.455 207.353 130.227 207.581 130.227 207.864V208.733C130.227 209.015 130.455 209.244 130.738 209.244H140.462C140.744 209.244 140.973 209.015 140.973 208.733Z" fill="#599AF2"/>
<path d="M132.998 207.973C132.998 208.535 132.831 209.084 132.519 209.551C132.207 210.018 131.764 210.382 131.245 210.597C130.726 210.812 130.155 210.868 129.604 210.758C129.053 210.649 128.547 210.378 128.15 209.981C127.753 209.584 127.482 209.078 127.372 208.527C127.263 207.976 127.319 207.405 127.534 206.886C127.749 206.367 128.113 205.924 128.58 205.611C129.047 205.299 129.596 205.133 130.158 205.133C130.911 205.133 131.633 205.432 132.166 205.965C132.699 206.497 132.998 207.22 132.998 207.973Z" fill="#209956"/>
<path d="M76.0441 110.254H53.7558C53.6332 110.253 53.5117 110.277 53.3984 110.323C53.285 110.37 53.182 110.438 53.0954 110.525C53.0087 110.612 52.9402 110.715 52.8936 110.828C52.8471 110.941 52.8235 111.063 52.8242 111.185V127.436C52.8235 127.558 52.8471 127.68 52.8936 127.793C52.9402 127.907 53.0087 128.01 53.0954 128.096C53.182 128.183 53.285 128.252 53.3984 128.298C53.5117 128.345 53.6332 128.368 53.7558 128.367H76.0441C76.1669 128.368 76.2886 128.345 76.4023 128.298C76.516 128.252 76.6193 128.183 76.7064 128.097C76.7935 128.01 76.8627 127.907 76.9098 127.794C76.957 127.68 76.9813 127.559 76.9813 127.436V111.185C76.9813 111.063 76.957 110.941 76.9098 110.828C76.8627 110.714 76.7935 110.611 76.7064 110.525C76.6193 110.438 76.516 110.37 76.4023 110.323C76.2886 110.277 76.1669 110.253 76.0441 110.254Z" fill="white"/>
<path opacity="0.8" d="M62.2133 118.355L64.6613 119.638C64.7321 119.676 64.8111 119.696 64.8914 119.696C64.9716 119.696 65.0506 119.676 65.1214 119.638L75.9759 113.248L76.7938 112.771C76.8502 112.734 76.9144 112.711 76.9813 112.703V111.192C76.9813 111.069 76.957 110.948 76.9098 110.834C76.8626 110.721 76.7935 110.618 76.7064 110.532C76.6193 110.445 76.516 110.377 76.4023 110.33C76.2886 110.284 76.1669 110.26 76.0441 110.261H53.7557C53.6337 110.26 53.5127 110.283 53.3997 110.33C53.2867 110.376 53.184 110.444 53.0974 110.53C53.0108 110.616 52.9421 110.718 52.8952 110.831C52.8483 110.944 52.8242 111.065 52.8242 111.187V113.601L53.3922 113.902L62.2133 118.355Z" fill="#599AF2"/>
<path opacity="0.8" d="M52.8242 114.753V126.283L61.4578 119.144L52.8242 114.753Z" fill="#599AF2"/>
<path opacity="0.8" d="M76.9814 126.345V113.866L68.2456 119.007L76.9814 126.345Z" fill="#599AF2"/>
<path opacity="0.8" d="M76.3735 127.199L67.2855 119.57L65.644 120.536C65.4124 120.669 65.15 120.74 64.8829 120.74C64.6353 120.741 64.3913 120.681 64.1729 120.564L62.4689 119.661C62.4453 119.692 62.4187 119.721 62.3893 119.746L53.3525 127.233C53.2579 127.31 53.1395 127.352 53.0173 127.352C52.9511 127.35 52.8858 127.337 52.8242 127.312V127.466C52.8302 127.708 52.9311 127.939 53.1053 128.108C53.2795 128.276 53.5131 128.37 53.7557 128.369H76.0441C76.1669 128.369 76.2886 128.346 76.4023 128.299C76.516 128.253 76.6193 128.184 76.7064 128.098C76.7935 128.011 76.8626 127.908 76.9098 127.795C76.957 127.682 76.9813 127.56 76.9813 127.437V127.233C76.8995 127.284 76.8051 127.311 76.7086 127.312C76.5868 127.316 76.4676 127.276 76.3735 127.199Z" fill="#599AF2"/>
<path d="M76.9813 112.697C76.9144 112.705 76.8502 112.729 76.7938 112.765L75.9759 113.243L65.1214 119.633C65.0506 119.67 64.9716 119.69 64.8914 119.69C64.8111 119.69 64.7321 119.67 64.6613 119.633L62.2133 118.349L53.3922 113.879L52.8242 113.6V114.736L61.4578 119.127L52.8242 126.284V127.284C52.8858 127.308 52.9511 127.321 53.0173 127.323C53.1395 127.323 53.2579 127.281 53.3525 127.204L62.3723 119.746C62.4017 119.721 62.4283 119.692 62.4518 119.661L64.1558 120.564C64.3742 120.681 64.6182 120.741 64.8658 120.74C65.133 120.739 65.3954 120.669 65.6269 120.536L67.2685 119.57L76.3565 127.198C76.4489 127.28 76.5683 127.324 76.6916 127.323C76.7881 127.322 76.8824 127.295 76.9642 127.244V126.346L68.2284 119.008L76.9642 113.867L76.9813 112.697Z" fill="#4C65BA"/>
<path d="M213 239.695C261.937 239.695 301.608 200.024 301.608 151.087C301.608 102.151 261.937 62.4795 213 62.4795C164.063 62.4795 124.392 102.151 124.392 151.087C124.392 200.024 164.063 239.695 213 239.695Z" fill="#209956"/>
<path opacity="0.55" d="M212.999 231.618C257.475 231.618 293.53 195.563 293.53 151.087C293.53 106.611 257.475 70.5557 212.999 70.5557C168.523 70.5557 132.468 106.611 132.468 151.087C132.468 195.563 168.523 231.618 212.999 231.618Z" fill="white"/>
<path d="M213.001 223.4C252.937 223.4 285.313 191.024 285.313 151.087C285.313 111.151 252.937 78.7754 213.001 78.7754C173.064 78.7754 140.688 111.151 140.688 151.087C140.688 191.024 173.064 223.4 213.001 223.4Z" fill="white"/>
<path d="M212.949 81.9404H212.807C211.768 81.9404 210.927 82.7822 210.927 83.8205V93.2323C210.927 94.2706 211.768 95.1124 212.807 95.1124H212.949C213.987 95.1124 214.829 94.2706 214.829 93.2323V83.8205C214.829 82.7822 213.987 81.9404 212.949 81.9404Z" fill="#373449"/>
<path d="M213.194 207.064H213.052C212.014 207.064 211.172 207.906 211.172 208.945V218.356C211.172 219.395 212.014 220.236 213.052 220.236H213.194C214.232 220.236 215.074 219.395 215.074 218.356V208.945C215.074 207.906 214.232 207.064 213.194 207.064Z" fill="#373449"/>
<path d="M282.148 151.037V150.895C282.148 149.856 281.307 149.015 280.268 149.015H270.857C269.818 149.015 268.977 149.856 268.977 150.895V151.037C268.977 152.075 269.818 152.917 270.857 152.917H280.268C281.307 152.917 282.148 152.075 282.148 151.037Z" fill="#373449"/>
<path d="M157.023 151.281V151.139C157.023 150.101 156.182 149.259 155.143 149.259H145.732C144.693 149.259 143.852 150.101 143.852 151.139V151.281C143.852 152.319 144.693 153.161 145.732 153.161H155.143C156.182 153.161 157.023 152.319 157.023 151.281Z" fill="#373449"/>
<path d="M260.391 103.619L260.291 103.518C259.557 102.784 258.367 102.783 257.632 103.517L254.193 106.954C253.458 107.688 253.458 108.879 254.192 109.613L254.292 109.714C255.026 110.448 256.217 110.448 256.951 109.714L260.39 106.278C261.125 105.544 261.125 104.353 260.391 103.619Z" fill="#373449"/>
<path d="M172.506 191.832L172.406 191.731C171.672 190.997 170.482 190.996 169.747 191.73L165.517 195.958C164.782 196.692 164.782 197.882 165.516 198.617L165.616 198.717C166.35 199.452 167.54 199.452 168.275 198.718L172.506 194.491C173.24 193.757 173.24 192.566 172.506 191.832Z" fill="#373449"/>
<path d="M260.473 198.534L260.573 198.433C261.308 197.699 261.308 196.509 260.574 195.775L257.138 192.335C256.404 191.601 255.213 191.601 254.479 192.334L254.378 192.435C253.644 193.169 253.643 194.359 254.377 195.094L257.814 198.533C258.548 199.267 259.739 199.268 260.473 198.534Z" fill="#373449"/>
<path d="M172.249 110.656L172.35 110.556C173.084 109.822 173.085 108.631 172.351 107.897L168.123 103.666C167.389 102.931 166.199 102.931 165.464 103.665L165.364 103.765C164.629 104.499 164.629 105.69 165.363 106.424L169.591 110.655C170.324 111.389 171.515 111.39 172.249 110.656Z" fill="#373449"/>
<path d="M213.057 102.648H212.893C211.748 102.648 210.819 103.577 210.819 104.722V150.133C210.819 151.278 211.748 152.206 212.893 152.206H213.057C214.202 152.206 215.13 151.278 215.13 150.133V104.722C215.13 103.577 214.202 102.648 213.057 102.648Z" fill="#209956"/>
<path d="M246.371 153.905V153.74C246.371 152.595 245.442 151.667 244.297 151.667H212.893C211.748 151.667 210.819 152.595 210.819 153.74V153.905C210.819 155.05 211.748 155.978 212.893 155.978H244.297C245.442 155.978 246.371 155.05 246.371 153.905Z" fill="#209956"/>
<path d="M245.564 121.774L213.245 150.862" stroke="#373449" stroke-width="2" stroke-miterlimit="10" stroke-linecap="round"/>
<path d="M213 158.898C217.314 158.898 220.81 155.402 220.81 151.088C220.81 146.775 217.314 143.278 213 143.278C208.687 143.278 205.19 146.775 205.19 151.088C205.19 155.402 208.687 158.898 213 158.898Z" fill="#4C65BA"/>
<path d="M379.134 199.021V203.656C379.135 204.077 379.053 204.494 378.892 204.883C378.731 205.272 378.495 205.626 378.198 205.923C377.9 206.221 377.547 206.457 377.158 206.618C376.769 206.778 376.352 206.861 375.931 206.86H364.758" stroke="white" stroke-width="2" stroke-miterlimit="10" stroke-linecap="round"/>
<path d="M349.212 169.293H353.864C354.285 169.292 354.702 169.375 355.091 169.535C355.48 169.696 355.834 169.932 356.131 170.23C356.429 170.527 356.665 170.881 356.826 171.27C356.986 171.659 357.069 172.076 357.068 172.497V183.669" stroke="white" stroke-width="2" stroke-miterlimit="10" stroke-linecap="round"/>
<path d="M319.113 214.704H364.224C364.76 214.704 365.195 214.269 365.195 213.733V184.742C365.195 184.206 364.76 183.771 364.224 183.771H319.113C318.577 183.771 318.142 184.206 318.142 184.742V213.733C318.142 214.269 318.577 214.704 319.113 214.704Z" fill="white"/>
<path opacity="0.66" d="M319.113 214.704H364.224C364.76 214.704 365.195 214.269 365.195 213.733V184.742C365.195 184.206 364.76 183.771 364.224 183.771H319.113C318.577 183.771 318.142 184.206 318.142 184.742V213.733C318.142 214.269 318.577 214.704 319.113 214.704Z" fill="#599AF2"/>
<path d="M325.378 198.147H357.964C358.35 198.147 358.663 197.835 358.663 197.449V190.57C358.663 190.184 358.35 189.872 357.964 189.872H325.378C324.992 189.872 324.68 190.184 324.68 190.57V197.449C324.68 197.835 324.992 198.147 325.378 198.147Z" fill="white"/>
<path d="M325.141 202.122H358.198C358.32 202.122 358.437 202.074 358.523 201.987C358.61 201.901 358.658 201.784 358.658 201.662C358.658 201.54 358.61 201.422 358.524 201.335C358.438 201.248 358.321 201.198 358.198 201.196H325.141C325.017 201.196 324.899 201.245 324.811 201.333C324.724 201.42 324.675 201.539 324.675 201.662C324.676 201.785 324.726 201.902 324.813 201.988C324.9 202.074 325.018 202.122 325.141 202.122Z" fill="white"/>
<path d="M325.141 204.77H358.198C358.32 204.77 358.437 204.721 358.523 204.635C358.61 204.549 358.658 204.432 358.658 204.31C358.658 204.187 358.61 204.069 358.524 203.982C358.438 203.895 358.321 203.845 358.198 203.844H325.141C325.017 203.844 324.899 203.893 324.811 203.98C324.724 204.068 324.675 204.186 324.675 204.31C324.676 204.432 324.726 204.549 324.813 204.635C324.9 204.721 325.018 204.77 325.141 204.77Z" fill="white"/>
<path d="M325.141 207.644H358.198C358.321 207.642 358.438 207.592 358.524 207.505C358.61 207.418 358.658 207.3 358.658 207.178C358.658 207.056 358.61 206.939 358.523 206.853C358.437 206.766 358.32 206.718 358.198 206.718H325.141C325.018 206.718 324.9 206.766 324.813 206.852C324.726 206.938 324.676 207.055 324.675 207.178C324.675 207.301 324.724 207.42 324.811 207.507C324.899 207.595 325.017 207.644 325.141 207.644Z" fill="white"/>
<path d="M325.141 210.29H358.198C358.321 210.289 358.438 210.239 358.524 210.152C358.61 210.065 358.658 209.947 358.658 209.824C358.658 209.702 358.61 209.585 358.523 209.499C358.437 209.413 358.32 209.364 358.198 209.364H325.141C325.018 209.364 324.9 209.413 324.813 209.499C324.726 209.585 324.676 209.702 324.675 209.824C324.675 209.948 324.724 210.066 324.811 210.154C324.899 210.241 325.017 210.29 325.141 210.29Z" fill="white"/>
<path d="M374.011 199.459H384.701C385.237 199.459 385.672 199.024 385.672 198.488V191.717C385.672 191.181 385.237 190.746 384.701 190.746H374.011C373.474 190.746 373.04 191.181 373.04 191.717V198.488C373.04 199.024 373.474 199.459 374.011 199.459Z" fill="white"/>
<path opacity="0.58" d="M374.011 199.459H384.701C385.237 199.459 385.672 199.024 385.672 198.488V191.717C385.672 191.181 385.237 190.746 384.701 190.746H374.011C373.474 190.746 373.04 191.181 373.04 191.717V198.488C373.04 199.024 373.474 199.459 374.011 199.459Z" fill="#874D7F"/>
<g opacity="0.68">
<g opacity="0.89">
<path opacity="0.89" d="M347.912 136.251H289.499C288.972 136.251 288.544 136.678 288.544 137.205V174.063C288.544 174.59 288.972 175.017 289.499 175.017H347.912C348.439 175.017 348.866 174.59 348.866 174.063V137.205C348.866 136.678 348.439 136.251 347.912 136.251Z" fill="#4C65BA"/>
</g>
<path opacity="0.68" d="M339.335 146.002H296.497C296.455 146.011 296.411 146.01 296.37 145.999C296.328 145.989 296.289 145.97 296.256 145.943C296.223 145.915 296.196 145.881 296.178 145.842C296.159 145.804 296.15 145.761 296.15 145.718C296.15 145.676 296.159 145.633 296.178 145.594C296.196 145.556 296.223 145.521 296.256 145.494C296.289 145.467 296.328 145.448 296.37 145.437C296.411 145.427 296.455 145.426 296.497 145.434H339.358C339.424 145.448 339.483 145.483 339.525 145.535C339.567 145.587 339.591 145.651 339.591 145.718C339.591 145.785 339.567 145.85 339.525 145.902C339.483 145.954 339.424 145.989 339.358 146.002H339.335Z" fill="white"/>
<path opacity="0.68" d="M314.008 157.51H296.497C296.422 157.51 296.349 157.48 296.296 157.427C296.243 157.374 296.213 157.302 296.213 157.226C296.213 157.151 296.243 157.079 296.296 157.026C296.349 156.972 296.422 156.942 296.497 156.942H314.031C314.106 156.942 314.179 156.972 314.232 157.026C314.285 157.079 314.315 157.151 314.315 157.226C314.315 157.302 314.285 157.374 314.232 157.427C314.179 157.48 314.106 157.51 314.031 157.51H314.008Z" fill="white"/>
<path opacity="0.68" d="M314.008 164.378H296.497C296.455 164.387 296.411 164.386 296.37 164.375C296.328 164.365 296.289 164.346 296.256 164.318C296.223 164.291 296.196 164.257 296.178 164.218C296.159 164.18 296.15 164.137 296.15 164.094C296.15 164.051 296.159 164.009 296.178 163.97C296.196 163.932 296.223 163.897 296.256 163.87C296.289 163.843 296.328 163.824 296.37 163.813C296.411 163.803 296.455 163.802 296.497 163.81H314.031C314.096 163.824 314.155 163.859 314.198 163.911C314.24 163.963 314.263 164.027 314.263 164.094C314.263 164.161 314.24 164.226 314.198 164.278C314.155 164.33 314.096 164.365 314.031 164.378H314.008Z" fill="white"/>
<path opacity="0.68" d="M318.876 150.576H296.497C296.455 150.584 296.411 150.583 296.37 150.573C296.328 150.562 296.289 150.543 296.256 150.516C296.223 150.489 296.196 150.454 296.178 150.416C296.159 150.377 296.15 150.335 296.15 150.292C296.15 150.249 296.159 150.206 296.178 150.168C296.196 150.129 296.223 150.095 296.256 150.068C296.289 150.04 296.328 150.021 296.37 150.011C296.411 150 296.455 149.999 296.497 150.008H318.876C318.918 149.999 318.961 150 319.003 150.011C319.045 150.021 319.083 150.04 319.116 150.068C319.15 150.095 319.176 150.129 319.195 150.168C319.213 150.206 319.223 150.249 319.223 150.292C319.223 150.335 319.213 150.377 319.195 150.416C319.176 150.454 319.15 150.489 319.116 150.516C319.083 150.543 319.045 150.562 319.003 150.573C318.961 150.583 318.918 150.584 318.876 150.576Z" fill="white"/>
<path opacity="0.68" d="M338.875 150.689H323.272C323.016 150.689 322.812 150.536 322.812 150.343C322.812 150.15 323.016 150.002 323.272 150.002H338.875C339.131 150.002 339.335 150.155 339.335 150.343C339.335 150.53 339.131 150.689 338.875 150.689Z" fill="white"/>
<path opacity="0.68" d="M338.58 153.847H319.12C318.493 153.847 317.984 154.355 317.984 154.983V166.053C317.984 166.68 318.493 167.189 319.12 167.189H338.58C339.207 167.189 339.716 166.68 339.716 166.053V154.983C339.716 154.355 339.207 153.847 338.58 153.847Z" fill="white"/>
<path opacity="0.68" d="M320.267 163.39L321.46 159.817C321.482 159.751 321.521 159.693 321.572 159.647C321.624 159.601 321.687 159.569 321.754 159.555C321.822 159.54 321.892 159.544 321.958 159.565C322.024 159.586 322.083 159.624 322.13 159.675L325.442 163.259C325.488 163.309 325.546 163.346 325.61 163.367C325.675 163.388 325.744 163.393 325.81 163.38C325.877 163.366 325.939 163.336 325.991 163.293C326.043 163.249 326.082 163.192 326.106 163.128L328.088 157.744C328.112 157.677 328.153 157.617 328.208 157.572C328.263 157.526 328.328 157.496 328.399 157.484C328.469 157.472 328.541 157.48 328.607 157.506C328.673 157.531 328.732 157.574 328.776 157.63L333.246 163.31C333.285 163.36 333.336 163.4 333.394 163.426C333.452 163.452 333.515 163.464 333.578 163.46C333.642 163.457 333.704 163.439 333.758 163.407C333.813 163.374 333.859 163.33 333.893 163.276L337.801 157.085" stroke="#4C65BA" stroke-width="2" stroke-miterlimit="10" stroke-linecap="round"/>
<path opacity="0.68" d="M336.574 157.25L337.977 156.903V158.301" stroke="#4C65BA" stroke-width="2" stroke-miterlimit="10" stroke-linecap="round"/>
</g>
<g opacity="0.77">
<path opacity="0.39" d="M342.503 118.525L340.464 117.417C340.66 116.607 340.733 115.772 340.68 114.941L342.873 114.338C342.97 114.313 343.062 114.267 343.141 114.205C343.221 114.142 343.287 114.064 343.335 113.975C343.383 113.887 343.413 113.789 343.422 113.688C343.432 113.588 343.421 113.486 343.389 113.39L342.503 110.806C342.437 110.607 342.297 110.441 342.112 110.342C341.927 110.242 341.712 110.217 341.509 110.272L339.317 110.868C338.863 110.137 338.309 109.473 337.67 108.897L338.726 106.949C338.822 106.764 338.84 106.549 338.777 106.351C338.714 106.153 338.576 105.988 338.391 105.892L335.954 104.575C335.774 104.472 335.561 104.445 335.361 104.499C335.16 104.553 334.99 104.685 334.886 104.864L333.83 106.818C332.999 106.596 332.14 106.492 331.28 106.511L330.581 104.347C330.516 104.148 330.376 103.981 330.191 103.882C330.006 103.782 329.79 103.758 329.587 103.813L326.997 104.512C326.899 104.538 326.807 104.584 326.727 104.646C326.647 104.709 326.58 104.788 326.532 104.877C326.483 104.967 326.454 105.065 326.445 105.166C326.436 105.268 326.448 105.37 326.48 105.466L327.179 107.63C326.453 108.041 325.792 108.558 325.219 109.164L323.174 108.028C323.085 107.977 322.987 107.944 322.885 107.931C322.783 107.918 322.68 107.925 322.581 107.953C322.482 107.98 322.39 108.027 322.309 108.091C322.229 108.154 322.162 108.234 322.112 108.323L320.845 110.652C320.752 110.837 320.735 111.051 320.799 111.248C320.863 111.445 321.002 111.608 321.186 111.703L323.231 112.839C323.035 113.649 322.963 114.484 323.015 115.315L320.817 115.918C320.719 115.943 320.628 115.989 320.549 116.051C320.47 116.114 320.404 116.192 320.356 116.281C320.308 116.37 320.279 116.468 320.27 116.568C320.262 116.669 320.274 116.77 320.306 116.866L321.135 119.445C321.201 119.645 321.34 119.812 321.525 119.912C321.71 120.013 321.926 120.038 322.129 119.984L324.322 119.416C324.778 120.144 325.332 120.806 325.969 121.382L324.895 123.319C324.848 123.41 324.82 123.51 324.811 123.613C324.803 123.716 324.815 123.819 324.846 123.918C324.878 124.016 324.929 124.107 324.996 124.185C325.063 124.264 325.144 124.328 325.236 124.375L327.673 125.693C327.853 125.796 328.066 125.823 328.267 125.769C328.467 125.714 328.637 125.583 328.741 125.403L329.797 123.449C330.629 123.67 331.487 123.771 332.347 123.75L333.04 125.914C333.106 126.114 333.245 126.281 333.43 126.382C333.615 126.482 333.831 126.508 334.034 126.454L336.653 125.744C336.751 125.717 336.842 125.671 336.922 125.608C337.001 125.545 337.066 125.466 337.114 125.377C337.162 125.288 337.191 125.19 337.2 125.089C337.208 124.987 337.196 124.886 337.164 124.79L336.471 122.626C337.197 122.216 337.855 121.699 338.425 121.092L340.47 122.194C340.559 122.246 340.657 122.28 340.759 122.294C340.861 122.308 340.965 122.301 341.065 122.274C341.164 122.247 341.258 122.201 341.339 122.137C341.42 122.074 341.488 121.994 341.538 121.904L342.799 119.575C342.897 119.397 342.921 119.186 342.866 118.99C342.811 118.793 342.681 118.626 342.503 118.525ZM328.957 120.416C327.946 119.803 327.138 118.906 326.632 117.837C326.126 116.769 325.946 115.575 326.112 114.405C326.278 113.234 326.785 112.139 327.568 111.253C328.352 110.368 329.378 109.732 330.519 109.425C331.661 109.117 332.867 109.152 333.99 109.524C335.112 109.896 336.1 110.589 336.832 111.517C337.564 112.446 338.007 113.569 338.106 114.747C338.206 115.925 337.957 117.106 337.391 118.144C336.574 119.563 335.226 120.6 333.644 121.026C332.063 121.452 330.377 121.233 328.957 120.416Z" fill="#599AF2"/>
</g>
<g opacity="0.39">
<path opacity="0.39" d="M361.111 88.5452L357.789 86.7446C358.136 85.3816 358.283 83.9753 358.226 82.5698L361.844 81.4963C362.174 81.3964 362.451 81.1702 362.615 80.867C362.779 80.5638 362.816 80.2082 362.719 79.8775L361.435 75.5607C361.387 75.3972 361.307 75.2448 361.2 75.1122C361.092 74.9797 360.96 74.8696 360.81 74.7884C360.66 74.7071 360.496 74.6562 360.326 74.6386C360.157 74.6211 359.985 74.6372 359.822 74.686L356.198 75.7652C355.484 74.5536 354.594 73.4549 353.557 72.5049L355.352 69.1821C355.515 68.8792 355.552 68.5237 355.454 68.1937C355.356 67.8636 355.132 67.5859 354.829 67.4213L350.853 65.2799C350.703 65.1981 350.539 65.1467 350.369 65.1287C350.199 65.1107 350.028 65.1265 349.864 65.175C349.701 65.2236 349.548 65.304 349.416 65.4117C349.283 65.5194 349.173 65.6522 349.092 65.8025L347.292 69.1196C345.929 68.7735 344.522 68.6281 343.117 68.6879L342.044 65.0698C341.995 64.906 341.914 64.7535 341.806 64.6209C341.699 64.4883 341.566 64.3782 341.415 64.297C341.265 64.2158 341.1 64.165 340.93 64.1475C340.76 64.13 340.589 64.1461 340.425 64.195L336.114 65.473C335.949 65.5213 335.796 65.6014 335.663 65.709C335.53 65.8165 335.419 65.9493 335.337 66.0996C335.256 66.25 335.204 66.4151 335.186 66.5854C335.169 66.7556 335.184 66.9277 335.233 67.0918L336.312 70.71C335.103 71.4293 334.005 72.3209 333.052 73.3569L329.746 71.5677C329.596 71.4861 329.431 71.435 329.261 71.4175C329.091 71.3999 328.92 71.4161 328.756 71.4652C328.592 71.5143 328.44 71.5953 328.308 71.7036C328.176 71.8118 328.066 71.9452 327.986 72.0959L325.844 76.0719C325.68 76.3757 325.643 76.732 325.741 77.0629C325.839 77.3939 326.064 77.6727 326.367 77.8384L329.684 79.6333C329.338 80.9966 329.193 82.4029 329.252 83.8081L325.634 84.8873C325.47 84.9355 325.318 85.0155 325.186 85.1227C325.053 85.23 324.943 85.3623 324.862 85.5122C324.78 85.6621 324.73 85.8265 324.712 85.9961C324.694 86.1657 324.71 86.337 324.759 86.5004L326.043 90.8172C326.091 90.9807 326.171 91.1332 326.278 91.2657C326.386 91.3982 326.518 91.5083 326.668 91.5896C326.818 91.6708 326.982 91.7217 327.152 91.7393C327.321 91.7568 327.493 91.7407 327.656 91.6919L331.28 90.6184C331.995 91.829 332.885 92.9276 333.921 93.8787L332.126 97.1958C332.044 97.3457 331.993 97.5102 331.975 97.6799C331.957 97.8496 331.973 98.0213 332.021 98.1849C332.07 98.3485 332.15 98.501 332.258 98.6334C332.366 98.7659 332.499 98.8757 332.649 98.9566L336.625 101.104C336.928 101.267 337.283 101.304 337.613 101.206C337.943 101.108 338.221 100.884 338.386 100.581L340.181 97.2583C341.545 97.6069 342.954 97.7523 344.361 97.69L345.435 101.314C345.483 101.478 345.564 101.63 345.672 101.763C345.779 101.895 345.912 102.005 346.063 102.087C346.213 102.168 346.378 102.219 346.548 102.236C346.718 102.254 346.89 102.237 347.053 102.189L351.364 100.905C351.528 100.856 351.681 100.775 351.813 100.668C351.946 100.56 352.056 100.427 352.137 100.277C352.218 100.126 352.269 99.9615 352.287 99.7915C352.304 99.6216 352.288 99.4498 352.239 99.2861L351.166 95.6679C352.374 94.9489 353.472 94.0593 354.426 93.0267L357.743 94.8216C358.047 94.9855 358.403 95.0226 358.734 94.9247C359.065 94.8268 359.344 94.6018 359.51 94.299L361.651 90.323C361.734 90.1713 361.786 90.0045 361.804 89.8324C361.822 89.6603 361.805 89.4863 361.755 89.3208C361.704 89.1552 361.622 89.0013 361.511 88.8682C361.401 88.735 361.265 88.6252 361.111 88.5452ZM338.851 92.1918C337.067 91.2272 335.608 89.7552 334.66 87.9618C333.712 86.1684 333.317 84.1341 333.525 82.1162C333.733 80.0983 334.534 78.1873 335.828 76.6248C337.122 75.0624 338.85 73.9187 340.794 73.3382C342.738 72.7578 344.81 72.7667 346.749 73.3639C348.687 73.961 350.405 75.1196 351.686 76.6931C352.966 78.2666 353.751 80.1844 353.942 82.2041C354.132 84.2237 353.72 86.2545 352.756 88.0397C352.116 89.2256 351.249 90.2738 350.203 91.1243C349.158 91.9748 347.955 92.6111 346.664 92.9967C345.373 93.3822 344.018 93.5096 342.678 93.3715C341.337 93.2334 340.037 92.8325 338.851 92.1918Z" fill="white"/>
</g>
<path d="M311.405 47.541H296.478V56.1746H311.405V47.541Z" fill="#209956"/>
<path d="M312.678 44.3047H295.201C294.58 44.3047 294.076 44.8082 294.076 45.4293V49.1156C294.076 49.7368 294.58 50.2403 295.201 50.2403H312.678C313.299 50.2403 313.803 49.7368 313.803 49.1156V45.4293C313.803 44.8082 313.299 44.3047 312.678 44.3047Z" fill="#4C65BA"/>
<path d="M303.942 126.664C323.671 126.664 339.664 110.482 339.664 90.5217C339.664 70.5611 323.671 54.3799 303.942 54.3799C284.214 54.3799 268.221 70.5611 268.221 90.5217C268.221 110.482 284.214 126.664 303.942 126.664Z" fill="#874D7F"/>
<path d="M303.942 118.304C319.107 118.304 331.4 105.866 331.4 90.5231C331.4 75.1801 319.107 62.7422 303.942 62.7422C288.778 62.7422 276.485 75.1801 276.485 90.5231C276.485 105.866 288.778 118.304 303.942 118.304Z" fill="white"/>
<path opacity="0.81" d="M328.468 102.677C326.278 107.284 322.842 111.185 318.55 113.94C314.257 116.695 309.279 118.194 304.179 118.266C299.079 118.339 294.061 116.983 289.691 114.351C285.322 111.72 281.776 107.918 279.456 103.376C278.462 101.456 290.56 90.6471 303.261 90.4824C315.961 90.3177 329.355 100.837 328.468 102.677Z" fill="#ECF1F7"/>
<path opacity="0.55" d="M319.256 108.544C317.898 111.432 315.756 113.879 313.075 115.609C310.394 117.339 307.281 118.281 304.09 118.328C300.9 118.375 297.761 117.526 295.029 115.877C292.298 114.227 290.085 111.844 288.641 108.999C288.022 107.8 295.576 101.047 303.5 100.95C311.424 100.854 319.785 107.397 319.256 108.544Z" fill="white"/>
<path d="M304.766 69.6602H303.124C302.842 69.6602 302.613 69.889 302.613 70.1714V88.0122C302.613 88.2946 302.842 88.5234 303.124 88.5234H304.766C305.048 88.5234 305.277 88.2946 305.277 88.0122V70.1714C305.277 69.889 305.048 69.6602 304.766 69.6602Z" fill="#874D7F"/>
<path d="M303.943 94.5668C306.148 94.5668 307.936 92.7562 307.936 90.5227C307.936 88.2891 306.148 86.4785 303.943 86.4785C301.737 86.4785 299.95 88.2891 299.95 90.5227C299.95 92.7562 301.737 94.5668 303.943 94.5668Z" fill="#209956"/>
<path d="M362.338 113.032H347.661C347.581 113.032 347.501 113.048 347.427 113.079C347.352 113.11 347.284 113.155 347.228 113.212C347.171 113.269 347.125 113.336 347.095 113.411C347.064 113.485 347.048 113.565 347.048 113.646V124.347C347.048 124.427 347.064 124.507 347.095 124.582C347.125 124.656 347.171 124.724 347.228 124.781C347.284 124.838 347.352 124.883 347.427 124.914C347.501 124.944 347.581 124.96 347.661 124.96H362.338C362.419 124.96 362.499 124.944 362.573 124.914C362.648 124.883 362.715 124.838 362.772 124.781C362.829 124.724 362.874 124.656 362.905 124.582C362.936 124.507 362.952 124.427 362.952 124.347V113.646C362.952 113.565 362.936 113.485 362.905 113.411C362.874 113.336 362.829 113.269 362.772 113.212C362.715 113.155 362.648 113.11 362.573 113.079C362.499 113.048 362.419 113.032 362.338 113.032Z" fill="white"/>
<path opacity="0.8" d="M353.233 118.366L354.841 119.212C354.888 119.239 354.94 119.252 354.994 119.252C355.048 119.252 355.101 119.239 355.148 119.212L362.293 115.009L362.827 114.691C362.867 114.671 362.909 114.656 362.952 114.646V113.652C362.952 113.571 362.936 113.491 362.905 113.417C362.874 113.342 362.829 113.275 362.772 113.218C362.715 113.161 362.648 113.116 362.573 113.085C362.499 113.054 362.419 113.038 362.338 113.038H347.661C347.581 113.038 347.501 113.054 347.427 113.085C347.352 113.116 347.284 113.161 347.228 113.218C347.171 113.275 347.125 113.342 347.095 113.417C347.064 113.491 347.048 113.571 347.048 113.652V115.231L347.434 115.424L353.233 118.366Z" fill="#599AF2"/>
<path opacity="0.8" d="M347.048 115.996V123.585L352.734 118.887L347.048 115.996Z" fill="#599AF2"/>
<path opacity="0.8" d="M362.953 123.631V115.412L357.199 118.797L362.953 123.631Z" fill="#599AF2"/>
<path opacity="0.8" d="M362.554 124.194L356.573 119.167L355.488 119.803C355.336 119.891 355.164 119.938 354.988 119.939C354.826 119.94 354.665 119.899 354.523 119.82L353.387 119.252L353.336 119.309L347.394 124.217C347.332 124.268 347.254 124.296 347.173 124.296C347.132 124.304 347.089 124.304 347.048 124.296V124.398C347.048 124.561 347.112 124.717 347.228 124.832C347.343 124.947 347.499 125.012 347.661 125.012H362.338C362.501 125.012 362.657 124.947 362.772 124.832C362.887 124.717 362.952 124.561 362.952 124.398V124.273C362.899 124.306 362.838 124.324 362.776 124.324C362.688 124.31 362.609 124.264 362.554 124.194Z" fill="#599AF2"/>
<path d="M362.952 114.64C362.909 114.65 362.867 114.665 362.827 114.685L362.293 115.003L355.148 119.206C355.101 119.233 355.048 119.247 354.994 119.247C354.94 119.247 354.888 119.233 354.841 119.206L353.233 118.36L347.434 115.412L347.048 115.219V115.991L352.728 118.883L347.048 123.58V124.239C347.089 124.247 347.132 124.247 347.173 124.239C347.254 124.239 347.332 124.21 347.394 124.159L353.336 119.28L353.387 119.223L354.523 119.791C354.665 119.87 354.826 119.911 354.988 119.911C355.164 119.91 355.336 119.863 355.488 119.774L356.573 119.138L362.554 124.165C362.617 124.216 362.695 124.244 362.776 124.245C362.838 124.244 362.899 124.226 362.952 124.193V123.625L357.198 118.792L362.952 115.384V114.64Z" fill="#4C65BA"/>
<path d="M288.454 234.089H288.545V235.003L278.548 235.151V234.475C278.548 234.426 278.562 234.378 278.59 234.338C278.617 234.297 278.656 234.266 278.701 234.248H278.775L288.454 234.089Z" fill="#373449"/>
<path d="M284.954 230.739L287.976 230.699C288.048 230.698 288.118 230.722 288.175 230.767C288.196 230.781 288.215 230.799 288.231 230.819C288.29 230.882 288.323 230.965 288.322 231.051V231.404L288.373 232.54L288.436 234.09L278.78 234.227H278.706C278.804 233.884 278.991 233.573 279.247 233.325C279.503 233.076 279.82 232.9 280.166 232.812L282.375 232.642L283.875 231.869L284.772 230.762H284.823H284.869L284.954 230.739Z" fill="#373449"/>
<path d="M303.471 234.118H303.562V235.038L293.576 235.118V234.442C293.576 234.393 293.591 234.345 293.618 234.305C293.645 234.264 293.684 234.233 293.73 234.215C293.756 234.209 293.783 234.209 293.809 234.215L303.471 234.118Z" fill="#373449"/>
<path d="M299.995 230.743H303.011C303.084 230.74 303.155 230.765 303.21 230.812C303.233 230.825 303.254 230.843 303.273 230.863C303.327 230.928 303.357 231.011 303.358 231.096V231.448L303.397 232.584L303.454 234.134L293.798 234.214C293.772 234.209 293.745 234.209 293.719 234.214C293.821 233.872 294.01 233.563 294.268 233.317C294.526 233.071 294.844 232.897 295.19 232.811L297.405 232.652L298.905 231.891L299.808 230.789C299.827 230.786 299.846 230.786 299.865 230.789C299.865 230.789 299.865 230.789 299.91 230.789L299.995 230.743Z" fill="#373449"/>
<path d="M250.488 117.604C250.51 117.526 250.547 117.452 250.597 117.389C250.647 117.325 250.709 117.272 250.78 117.232C250.851 117.192 250.929 117.167 251.009 117.158C251.09 117.149 251.172 117.155 251.249 117.178L251.789 117.331C251.789 117.331 251.789 117.286 251.789 117.263L250.926 117.047C250.834 117.029 250.747 116.992 250.67 116.938C250.593 116.884 250.528 116.815 250.48 116.735C250.431 116.655 250.4 116.565 250.388 116.472C250.375 116.38 250.383 116.285 250.409 116.195C250.698 115.468 251.295 115.741 251.67 115.832L252.124 115.991C252.124 115.991 251.346 115.678 251.335 115.667C251.282 115.6 251.244 115.523 251.222 115.441C251.199 115.359 251.193 115.274 251.204 115.19C251.216 115.11 251.245 115.033 251.287 114.964C251.329 114.895 251.384 114.835 251.45 114.788C251.515 114.74 251.59 114.706 251.668 114.687C251.747 114.669 251.829 114.666 251.908 114.679L254.067 115.008C255.33 115.11 256.584 115.3 257.821 115.576L257.026 113.815C256.959 113.632 256.964 113.431 257.04 113.251C257.115 113.072 257.256 112.928 257.433 112.847C257.61 112.767 257.811 112.756 257.996 112.818C258.181 112.879 258.335 113.008 258.429 113.179L259.849 116.331C260.016 116.566 260.159 116.817 260.275 117.081C260.4 117.513 261.559 119.921 261.559 119.921L258.651 120.887C258.651 120.887 254.26 119.546 252.448 118.831L250.903 118.393C250.823 118.37 250.749 118.331 250.684 118.278C250.62 118.226 250.567 118.16 250.528 118.087C250.489 118.013 250.466 117.932 250.459 117.849C250.452 117.766 250.462 117.683 250.488 117.604Z" fill="#F9DCD2"/>
<path d="M257.815 115.628C257.805 115.618 257.793 115.61 257.78 115.604C257.767 115.599 257.752 115.596 257.738 115.596C257.724 115.596 257.71 115.599 257.697 115.604C257.683 115.61 257.672 115.618 257.661 115.628C257.483 115.761 257.336 115.931 257.23 116.128C257.125 116.324 257.065 116.541 257.054 116.764C257.079 117.23 257.283 117.669 257.622 117.991C257.643 118.011 257.672 118.023 257.701 118.023C257.731 118.023 257.76 118.011 257.781 117.991C257.791 117.981 257.799 117.969 257.804 117.955C257.81 117.942 257.813 117.928 257.813 117.914C257.813 117.9 257.81 117.886 257.804 117.872C257.799 117.859 257.791 117.847 257.781 117.837C257.486 117.558 257.306 117.18 257.275 116.775C257.288 116.584 257.341 116.397 257.432 116.229C257.524 116.06 257.65 115.913 257.803 115.798C257.816 115.788 257.827 115.776 257.835 115.762C257.842 115.747 257.847 115.732 257.848 115.715C257.849 115.699 257.846 115.683 257.841 115.668C257.835 115.653 257.826 115.639 257.815 115.628Z" fill="#FFA06E"/>
<path d="M294.377 132.435H288.998C286.925 132.435 284.664 133.406 282.75 134.775C279.547 134.559 275.542 134.207 274.798 133.639C273.622 132.702 263.892 121.143 261.734 118.581C261.621 118.449 261.462 118.364 261.289 118.345C261.115 118.326 260.941 118.374 260.803 118.479L258.116 120.507C257.978 120.609 257.885 120.76 257.854 120.929C257.824 121.098 257.858 121.272 257.951 121.416C259.86 124.398 269.271 139.024 270.737 139.916C271.379 140.302 274.713 141.529 278.501 142.881L279.319 147.663C280.552 154.849 280.819 162.167 280.115 169.423L279.723 173.433C279.723 173.729 279.41 173.973 279.723 173.973H303.113C303.425 173.973 301.619 165.606 301.619 165.305L304.97 142.142C305.743 136.161 299.824 132.435 294.377 132.435Z" fill="#874D7F"/>
<path d="M260.008 149.259C259.991 149.207 259.986 149.153 259.995 149.099C260.003 149.046 260.023 148.995 260.055 148.951C260.087 148.908 260.128 148.872 260.176 148.847C260.225 148.823 260.278 148.81 260.332 148.81H263.03L259.9 148.412C259.811 148.402 259.728 148.359 259.668 148.292C259.607 148.225 259.573 148.139 259.571 148.049V148.009C259.571 147.962 259.58 147.916 259.599 147.873C259.617 147.829 259.644 147.79 259.678 147.758C259.712 147.726 259.752 147.7 259.796 147.684C259.841 147.668 259.887 147.66 259.934 147.663L263.019 147.788L260.48 147.322C260.384 147.305 260.299 147.252 260.241 147.174C260.184 147.095 260.16 146.998 260.173 146.902V146.816C260.191 146.73 260.24 146.654 260.312 146.602C260.383 146.551 260.472 146.528 260.559 146.538L262.984 146.811H263.041L264.927 146.737C264.993 146.737 265.058 146.718 265.113 146.683C265.168 146.647 265.212 146.596 265.239 146.536C265.266 146.476 265.276 146.409 265.265 146.344C265.255 146.279 265.227 146.218 265.183 146.169L264.24 144.965C264.18 144.901 264.147 144.816 264.147 144.729C264.147 144.642 264.18 144.557 264.24 144.493L264.285 144.453C264.351 144.401 264.432 144.373 264.515 144.373C264.599 144.373 264.68 144.401 264.745 144.453L266.705 145.828C267.443 146.235 268.068 146.821 268.522 147.532L268.244 151.162C268.244 151.162 268.216 151.162 268.199 151.162C266.572 151.151 264.948 151.056 263.331 150.878C263.331 150.878 263.331 150.878 263.297 150.878H261.28C261.228 150.879 261.175 150.868 261.127 150.848C261.078 150.827 261.035 150.797 260.999 150.758C260.963 150.72 260.936 150.674 260.918 150.624C260.901 150.574 260.895 150.521 260.9 150.469C260.909 150.394 260.942 150.325 260.995 150.272C261.047 150.219 261.116 150.184 261.19 150.173L263.036 149.884L260.366 149.662C260.292 149.655 260.222 149.628 260.164 149.582C260.105 149.537 260.061 149.476 260.037 149.406L260.008 149.259Z" fill="#F9DCD2"/>
<path d="M302.234 136.632C301.424 136.034 300.423 135.752 299.42 135.84C298.417 135.928 297.48 136.379 296.787 137.109C295.475 138.472 289.931 145.215 288.483 145.578C287.034 145.942 271.914 146.612 268.603 146.76C268.428 146.764 268.263 146.837 268.142 146.962C268.02 147.088 267.953 147.256 267.955 147.43L267.921 150.798C267.92 150.969 267.983 151.133 268.098 151.259C268.213 151.385 268.37 151.464 268.54 151.48C272.067 151.781 289.408 153.229 291.004 152.616C291.856 152.286 297.446 148.679 302.035 145.68C302.774 145.198 303.385 144.545 303.818 143.776C304.25 143.007 304.491 142.145 304.519 141.263C304.548 140.381 304.363 139.505 303.981 138.71C303.599 137.915 303.031 137.224 302.325 136.695L302.234 136.632Z" fill="#874D7F"/>
<path opacity="0.31" d="M268.527 151.485C272.055 151.786 289.396 153.234 290.992 152.621C292.228 151.969 293.43 151.255 294.593 150.479" stroke="#ECF1F7" stroke-miterlimit="10" stroke-linecap="round"/>
<path opacity="0.31" d="M302.233 136.632C301.423 136.034 300.423 135.752 299.419 135.84C298.416 135.928 297.48 136.379 296.786 137.109V137.109C295.474 138.472 289.93 145.215 288.482 145.578C287.034 145.942 271.913 146.612 268.602 146.76" stroke="#ECF1F7" stroke-miterlimit="10" stroke-linecap="round"/>
<path d="M280.025 167.077C280.025 166.396 280.593 166.413 281.263 166.39L301.075 165.884C301.404 165.875 301.726 165.985 301.982 166.194C302.237 166.402 302.409 166.696 302.466 167.02C302.466 167.02 303.517 175.648 303.602 179.545L303.92 230.21C303.922 230.388 303.888 230.564 303.821 230.728C303.754 230.892 303.655 231.042 303.53 231.168C303.405 231.293 303.256 231.393 303.092 231.461C302.928 231.528 302.752 231.563 302.574 231.562H298.354C297.971 231.561 297.601 231.417 297.318 231.159C297.034 230.901 296.857 230.547 296.82 230.165L292.702 185.639C292.681 185.318 292.538 185.018 292.303 184.798C292.067 184.579 291.757 184.457 291.436 184.458C291.1 184.458 290.778 184.59 290.54 184.827C290.302 185.063 290.166 185.383 290.163 185.719L288.846 230.443C288.846 230.744 288.726 231.033 288.513 231.246C288.3 231.46 288.011 231.579 287.71 231.579H283.433C283.141 231.58 282.86 231.468 282.649 231.267C282.437 231.066 282.311 230.791 282.297 230.5L279.604 176.046C279.57 174.495 280.025 167.077 280.025 167.077Z" fill="#373449"/>
<path d="M300.286 121.092C300.311 121.006 300.346 120.922 300.388 120.842C300.785 119.996 301.319 119.138 301.16 118.155C301.02 117.482 300.648 116.879 300.11 116.451C299.82 116.238 299.578 115.967 299.396 115.657C299.215 115.346 299.098 115.002 299.053 114.645C299.035 113.913 298.879 113.19 298.593 112.515C298.312 112.082 297.937 111.717 297.497 111.447C296.358 110.645 295.009 110.195 293.617 110.152C292.943 110.226 292.277 110.365 291.629 110.567C291.22 110.647 290.987 110.465 290.579 110.374C290.205 110.291 289.825 110.243 289.443 110.232C288.548 110.22 287.66 110.4 286.841 110.76C285.137 111.481 282.865 113.174 282.388 115.077C282.318 115.773 282.204 116.463 282.047 117.144C281.542 118.434 280.014 118.655 279.111 119.581C278.81 119.863 278.584 120.215 278.453 120.605C278.321 120.996 278.287 121.413 278.355 121.819C278.525 122.24 278.671 122.671 278.793 123.108C278.819 123.553 278.714 123.995 278.491 124.381C277.997 125.369 277.179 126.295 277.236 127.403C277.284 127.865 277.43 128.312 277.662 128.715C280.309 133.764 287.244 134.349 292.254 133.679C295.287 133.27 298.502 132.373 300.91 130.424C301.938 129.696 302.66 128.614 302.938 127.385C303.273 125.221 301.564 123.438 300.456 121.779C300.342 121.64 300.271 121.47 300.252 121.291C300.248 121.223 300.26 121.155 300.286 121.092Z" fill="#373449"/>
<path d="M295.78 120.081H296.138C296.334 120.092 296.525 120.142 296.701 120.228C296.877 120.314 297.035 120.433 297.165 120.58C297.295 120.727 297.394 120.898 297.458 121.083C297.521 121.268 297.548 121.464 297.536 121.66L297.445 123.148C297.433 123.344 297.383 123.535 297.297 123.711C297.212 123.887 297.092 124.045 296.945 124.175C296.799 124.304 296.628 124.404 296.442 124.468C296.257 124.531 296.061 124.558 295.866 124.545L295.224 124.505H295.105L294.378 134.394C293.952 136.513 292.23 137.967 290.447 137.711C288.527 137.433 287.26 135.315 287.647 133.02L287.686 130.998C285.023 130.833 282.006 128.311 282.347 124.983L283.035 118.269C283.071 117.917 283.179 117.577 283.353 117.269C285.948 119.541 287.732 116.031 289.305 115.878C292.912 115.525 294.508 116.849 295.292 120.03C295.36 120.382 295.78 120.098 295.78 120.081Z" fill="#F9DCD2"/>
<path opacity="0.37" d="M292.48 131.083L287.686 131.163L287.652 132.878L292.48 131.083Z" fill="#874D7F"/>
<path d="M288.907 112.656C288.464 113.214 288.259 113.925 288.339 114.633C288.589 116.53 290.747 116.735 291.963 117.746C292.246 117.961 292.477 118.237 292.639 118.554C292.801 118.87 292.891 119.219 292.9 119.575C292.86 120.853 291.497 121.744 291.315 122.983C291.162 124.016 292.094 124.556 292.287 125.493C292.434 126.22 291.986 126.919 291.599 127.549C291.213 128.18 290.515 128.685 290.6 129.583C290.645 129.91 290.763 130.222 290.943 130.498C291.124 130.774 291.364 131.007 291.645 131.179C292.21 131.517 292.85 131.712 293.508 131.747C294.765 131.846 296.03 131.762 297.262 131.497C299.449 131.054 301.937 129.526 302.942 127.464C304.181 124.942 299.87 121.938 300.29 121.063C300.71 120.188 302.232 118.121 300.08 116.428C298.137 114.9 300.364 114.332 297.847 111.674C296.746 110.555 292.98 108.01 288.907 112.656Z" fill="#373449"/>
<path d="M285.057 120.95C284.931 120.985 284.798 120.985 284.671 120.95L284.274 120.899H283.876C283.746 120.915 283.614 120.893 283.495 120.837C283.393 120.774 283.365 120.61 283.495 120.422C283.597 120.301 283.727 120.208 283.874 120.149C284.02 120.091 284.179 120.069 284.336 120.087C284.494 120.093 284.648 120.138 284.783 120.218C284.919 120.299 285.033 120.412 285.114 120.547C285.222 120.752 285.165 120.905 285.057 120.95Z" fill="#373449"/>
<path d="M289.822 121.246C289.694 121.28 289.559 121.28 289.43 121.246C289.301 121.223 289.17 121.208 289.038 121.201C288.914 121.201 288.777 121.201 288.641 121.201C288.509 121.216 288.375 121.194 288.255 121.138C288.158 121.076 288.124 120.911 288.255 120.723C288.361 120.607 288.491 120.517 288.637 120.459C288.783 120.402 288.941 120.378 289.097 120.39C289.254 120.402 289.406 120.449 289.541 120.529C289.677 120.608 289.792 120.718 289.879 120.848C289.981 121.042 289.93 121.195 289.822 121.246Z" fill="#373449"/>
<path d="M284.001 122.903C283.96 122.9 283.92 122.889 283.884 122.871C283.848 122.852 283.816 122.826 283.79 122.795C283.764 122.764 283.744 122.728 283.733 122.688C283.721 122.649 283.718 122.608 283.722 122.568L283.785 121.955C283.788 121.914 283.8 121.875 283.819 121.839C283.837 121.803 283.863 121.771 283.894 121.746C283.925 121.72 283.961 121.7 284 121.688C284.039 121.676 284.08 121.672 284.12 121.676C284.16 121.68 284.199 121.691 284.235 121.71C284.271 121.729 284.303 121.755 284.329 121.786C284.355 121.817 284.374 121.853 284.386 121.892C284.398 121.93 284.402 121.971 284.398 122.011L284.341 122.63C284.331 122.711 284.29 122.785 284.226 122.836C284.163 122.887 284.082 122.911 284.001 122.903Z" fill="#373449"/>
<path d="M288.596 123.352C288.555 123.349 288.516 123.337 288.48 123.318C288.444 123.3 288.413 123.274 288.387 123.243C288.361 123.212 288.341 123.176 288.329 123.137C288.318 123.098 288.313 123.058 288.317 123.017L288.38 122.404C288.383 122.363 288.395 122.324 288.414 122.288C288.433 122.252 288.458 122.221 288.489 122.195C288.521 122.169 288.557 122.149 288.595 122.138C288.634 122.126 288.675 122.122 288.715 122.125C288.755 122.129 288.795 122.141 288.83 122.159C288.866 122.178 288.898 122.204 288.924 122.235C288.95 122.266 288.969 122.302 288.981 122.341C288.993 122.38 288.997 122.42 288.993 122.461L288.931 123.074C288.927 123.114 288.916 123.154 288.897 123.189C288.878 123.225 288.852 123.257 288.821 123.283C288.79 123.309 288.754 123.328 288.715 123.34C288.677 123.352 288.636 123.356 288.596 123.352Z" fill="#373449"/>
<path d="M286.381 121.869L285.461 123.255C285.399 123.362 285.365 123.482 285.362 123.605C285.36 123.728 285.388 123.849 285.444 123.959C285.501 124.068 285.584 124.161 285.686 124.23C285.788 124.298 285.906 124.34 286.029 124.351L286.517 124.38" stroke="#874D7F" stroke-width="0.5" stroke-miterlimit="10" stroke-linecap="round"/>
<path d="M286.753 125.286L289.587 125.459L289.553 126.026C289.535 126.327 289.398 126.608 289.172 126.808C288.946 127.008 288.651 127.109 288.35 127.091L287.154 127.018C287.018 127.01 286.892 126.948 286.802 126.847C286.712 126.745 286.666 126.612 286.674 126.477L286.747 125.286L286.753 125.286Z" fill="#373449"/>
<path d="M288.34 127.113H288.278C288.148 127.092 288.03 127.027 287.943 126.929C287.856 126.831 287.806 126.705 287.801 126.574C287.841 125.949 289.539 126.057 289.539 126.057C289.518 126.355 289.381 126.634 289.157 126.831C288.932 127.029 288.639 127.131 288.34 127.113Z" fill="#874D7F"/>
</svg>
