<svg width="24" height="24" viewBox="0 0 24 24" fill="none" xmlns="http://www.w3.org/2000/svg">
<path opacity="0.4" d="M24 12C24 18.618 18.6168 24 12 24C5.3832 24 0 18.618 0 12C0 5.3832 5.3832 0 12 0C18.6168 0 24 5.3832 24 12Z" fill="#874D7F"/>
<path d="M17.0654 10.2719C17.0654 10.5011 16.9778 10.7315 16.8026 10.9067L12.6386 15.0911C12.4694 15.2603 12.2402 15.3551 12.0002 15.3551C11.7614 15.3551 11.5322 15.2603 11.363 15.0911L7.19658 10.9067C6.84618 10.5551 6.84618 9.9863 7.19898 9.6347C7.55178 9.2843 8.12178 9.2855 8.47218 9.6371L12.0002 13.1807L15.5282 9.6371C15.8786 9.2855 16.4474 9.2843 16.8002 9.6347C16.9778 9.8099 17.0654 10.0415 17.0654 10.2719Z" fill="#874D7F"/>
</svg>
