<svg width="123" height="123" viewBox="0 0 123 123" fill="none" xmlns="http://www.w3.org/2000/svg">
<g opacity="0.2" clip-path="url(#clip0_85:137)">
<path d="M115.016 3.94509H107.123C106.126 3.94509 105.318 4.75308 105.318 5.75024C105.318 6.74741 106.126 7.55539 107.123 7.55539H115.016C115.476 7.55539 115.85 7.92942 115.85 8.38913V56.8538C115.85 57.3135 115.476 57.6875 115.016 57.6875H41.1545V54.0775H89.9054C90.9025 54.0775 91.7105 53.2695 91.7105 52.2723C91.7105 51.2752 90.9025 50.4672 89.9054 50.4672H41.1545V42.8097C41.1545 37.9702 37.2171 34.0326 32.3772 34.0326C27.5377 34.0326 23.6001 37.97 23.6001 42.8097V50.4672H19.4239C18.7753 48.0052 16.8324 46.0624 14.3704 45.4137V32.5878C14.3704 31.5906 13.5625 30.7826 12.5653 30.7826C11.5681 30.7826 10.7601 31.5906 10.7601 32.5878V46.9861C10.7601 47.9833 11.5681 48.7913 12.5653 48.7913C14.4848 48.7913 16.0463 50.3528 16.0463 52.2723C16.0463 53.2695 16.8543 54.0775 17.8515 54.0775H23.6003V57.6875H7.98359C7.52388 57.6875 7.14985 57.3135 7.14985 56.8538V8.38889C7.14985 7.92918 7.52388 7.55515 7.98359 7.55515H32.9228V11.1655H17.8515C16.8543 11.1655 16.0463 11.9734 16.0463 12.9706C16.0463 14.8901 14.4848 16.4517 12.5653 16.4517C11.5681 16.4517 10.7601 17.2596 10.7601 18.2568V24.8945C10.7601 25.8916 11.5681 26.6996 12.5653 26.6996C13.5625 26.6996 14.3704 25.8916 14.3704 24.8945V19.8294C16.8324 19.1808 18.7753 17.238 19.4239 14.776H32.9228V15.4718C32.9228 19.8025 36.4462 23.3259 40.7771 23.3259C42.7861 23.3259 44.6204 22.567 46.0109 21.3217C47.3539 23.731 49.9268 25.365 52.8755 25.365C55.8239 25.365 58.3971 23.731 59.7399 21.3217C61.1303 22.5668 62.9646 23.3259 64.9736 23.3259C68.0501 23.3259 70.7176 21.547 72.0057 18.9647C73.3745 20.1231 75.1424 20.8237 77.0717 20.8237C80.7807 20.8237 83.8954 18.2387 84.7138 14.7762H103.576C104.225 17.2382 106.168 19.181 108.63 19.8297V45.414C106.168 46.0626 104.225 48.0054 103.576 50.4674H97.5984C96.6013 50.4674 95.7933 51.2754 95.7933 52.2726C95.7933 53.2697 96.6013 54.0777 97.5984 54.0777H105.149C106.146 54.0777 106.954 53.2697 106.954 52.2726C106.954 50.3531 108.515 48.7915 110.435 48.7915C111.432 48.7915 112.24 47.9835 112.24 46.9864V18.257C112.24 17.2599 111.432 16.4519 110.435 16.4519C108.515 16.4519 106.954 14.8903 106.954 12.9708C106.954 11.9737 106.146 11.1657 105.149 11.1657H84.926V7.55539H99.4305C100.428 7.55539 101.236 6.74741 101.236 5.75024C101.236 4.75308 100.428 3.94509 99.4305 3.94509H84.5903C83.7796 1.64967 81.5899 0 79.0205 0H75.1221C73.5307 0 72.0854 0.633968 71.0225 1.66122C69.9597 0.633968 68.5141 0 66.9227 0H63.0243C61.4329 0 59.9873 0.633968 58.9244 1.66122C57.8613 0.633968 56.416 0 54.8243 0H50.9262C49.3347 0 47.8892 0.633968 46.8263 1.66122C45.7632 0.633968 44.3179 0 42.7265 0H38.8281C36.259 0 34.069 1.64967 33.2588 3.94509H7.98359C5.53316 3.94509 3.53955 5.9387 3.53955 8.38913V56.8538C3.53955 59.3042 5.53316 61.2978 7.98359 61.2978H23.6003V74.687C23.6003 78.538 25.0998 82.1584 27.8227 84.8813L35.5523 92.6107V121.195C35.5523 122.192 36.3603 123 37.3575 123C38.3546 123 39.1626 122.192 39.1626 121.195V91.8631C39.1626 91.3844 38.9725 90.9254 38.6341 90.5865L30.3756 82.3281C28.3346 80.2873 27.2106 77.5733 27.2106 74.6867V42.8095C27.2106 39.9605 29.5284 37.6427 32.3774 37.6427C35.2264 37.6427 37.5445 39.9605 37.5445 42.8095V59.4927C37.5445 60.4898 38.3525 61.2978 39.3496 61.2978C47.4649 61.2978 54.0669 67.9001 54.0669 76.0151V77.1716C54.0669 78.1688 54.8749 78.9767 55.872 78.9767C56.8692 78.9767 57.6772 78.1688 57.6772 77.1716V76.0151C57.6772 69.9914 54.754 64.6402 50.2542 61.2976H88.1002V62.2302C88.1002 65.4352 87.1132 68.5066 85.2461 71.1116L80.0502 78.3611C79.8305 78.6675 79.7123 79.0355 79.7123 79.4126V121.195C79.7123 122.192 80.5203 123 81.5174 123C82.5146 123 83.3226 122.192 83.3226 121.195V79.9932L88.1806 73.2152C90.4902 69.9931 91.7107 66.1948 91.7107 62.2305V61.2978H115.016C117.467 61.2978 119.461 59.3042 119.461 56.8538V8.38889C119.46 5.9387 117.467 3.94509 115.016 3.94509V3.94509ZM75.1221 3.6103H79.0205C80.2858 3.6103 81.3153 4.63972 81.3153 5.90501V12.9692C81.3153 15.3094 79.4114 17.2132 77.0712 17.2132C74.731 17.2132 72.8274 15.3094 72.8274 12.9692V5.90501C72.8277 4.63972 73.8569 3.6103 75.1221 3.6103ZM63.0243 3.6103H66.9227C68.188 3.6103 69.2174 4.63972 69.2174 5.90501V15.4716C69.2174 17.8118 67.3136 19.7154 64.9734 19.7154C62.6332 19.7154 60.7293 17.8118 60.7293 15.4716V5.90501C60.7293 4.63972 61.759 3.6103 63.0243 3.6103V3.6103ZM50.9262 3.6103H54.8243C56.0896 3.6103 57.119 4.63972 57.119 5.90501V17.5109C57.119 19.8511 55.2154 21.7547 52.8752 21.7547H52.875C50.5348 21.7547 48.6312 19.8511 48.6312 17.5109V5.90501C48.6315 4.63972 49.6609 3.6103 50.9262 3.6103V3.6103ZM36.5331 5.90501C36.5331 4.63972 37.5625 3.6103 38.8278 3.6103H42.7262C43.9915 3.6103 45.0209 4.63972 45.0209 5.90501V15.4716C45.0209 17.8118 43.1171 19.7154 40.7769 19.7154C38.4367 19.7154 36.5329 17.8118 36.5329 15.4716V5.90501H36.5331Z" fill="white"/>
<path d="M47.882 27.5424C46.899 27.3907 45.975 28.0668 45.8234 29.0522C45.7004 29.8525 45.6378 30.6706 45.6378 31.4834C45.6378 40.2379 52.7602 47.3603 61.5147 47.3603C70.2692 47.3603 77.3916 40.2379 77.3916 31.4834C77.3916 29.9988 77.1824 28.5198 76.7699 27.0865C76.4941 26.1281 75.4916 25.5743 74.5361 25.8511C73.5781 26.1269 73.0248 27.127 73.3006 28.0849C73.6195 29.1932 73.7813 30.3365 73.7813 31.4831C73.7813 38.2472 68.2787 43.7497 61.5147 43.7497C54.7507 43.7497 49.2481 38.2472 49.2481 31.4831C49.2481 30.8535 49.2963 30.2203 49.3918 29.6007C49.5437 28.6156 48.8676 27.694 47.882 27.5424V27.5424Z" fill="white"/>
</g>
<defs>
<clipPath id="clip0_85:137">
<rect width="123" height="123" fill="white"/>
</clipPath>
</defs>
</svg>
