<svg width="22" height="22" viewBox="0 0 22 22" fill="none" xmlns="http://www.w3.org/2000/svg">
<path d="M14.857 1H4.28762C3.57807 1 3 1.5783 3 2.28784V20.7119C3 21.4225 3.57803 22 4.28762 22H17.2341C17.9444 22 18.5218 21.4225 18.5218 20.7119V4.98209L14.857 1ZM15.1609 2.9271L16.7672 4.67288H15.1609V2.9271ZM17.4404 20.712C17.4404 20.8254 17.3475 20.9186 17.2336 20.9186H4.28762C4.17378 20.9186 4.08145 20.8254 4.08145 20.712V2.28784C4.08145 2.17413 4.17378 2.08198 4.28762 2.08198H14.0788V5.21382C14.0788 5.51201 14.3218 5.75375 14.6201 5.75375H17.4403V20.712H17.4404ZM6.1451 8.1868L5.01652 3.73883H5.83633L6.35791 5.96094C6.43137 6.27126 6.50205 6.58592 6.56283 6.87647C6.63222 6.57829 6.71567 6.2618 6.7981 5.9517L7.38367 3.73905H8.13618L8.6703 5.96714C8.73956 6.25797 8.80837 6.55812 8.86643 6.84813C8.92618 6.59002 8.99241 6.32522 9.06046 6.05247L9.08554 5.95353L9.66518 3.73932H10.4683L9.20768 8.18725H8.45646L7.90333 5.90364C7.83501 5.62299 7.77525 5.36582 7.72594 5.11409C7.66829 5.36479 7.60104 5.6213 7.51875 5.90815L6.8956 8.18725H6.14505V8.1868H6.1451ZM11.0873 7.24142H15.9268C16.1505 7.24142 16.332 7.423 16.332 7.64657C16.332 7.87023 16.1505 8.05172 15.9268 8.05172H11.0873C10.8636 8.05172 10.6821 7.87023 10.6821 7.64657C10.6822 7.42304 10.8637 7.24142 11.0873 7.24142ZM16.332 10.3519C16.332 10.5756 16.1506 10.7571 15.9269 10.7571H5.85414C5.63048 10.7571 5.44899 10.5756 5.44899 10.3519C5.44899 10.1282 5.63043 9.94677 5.85414 9.94677H15.9269C16.1505 9.94677 16.332 10.1283 16.332 10.3519ZM16.332 12.7491C16.332 12.9727 16.1506 13.1542 15.9269 13.1542H5.85414C5.63048 13.1542 5.44899 12.9727 5.44899 12.7491C5.44899 12.5254 5.63043 12.3439 5.85414 12.3439H15.9269C16.1505 12.3439 16.332 12.5254 16.332 12.7491ZM16.332 15.1462C16.332 15.3699 16.1506 15.5513 15.9269 15.5513H5.85414C5.63048 15.5513 5.44899 15.3699 5.44899 15.1462C5.44899 14.9225 5.63043 14.741 5.85414 14.741H15.9269C16.1505 14.741 16.332 14.9225 16.332 15.1462ZM16.332 17.5771C16.332 17.8008 16.1506 17.9823 15.9269 17.9823H5.85414C5.63048 17.9823 5.44899 17.8008 5.44899 17.5771C5.44899 17.3534 5.63043 17.172 5.85414 17.172H15.9269C16.1505 17.172 16.332 17.3534 16.332 17.5771Z" fill="black"/>
</svg>
