<svg width="18" height="22" viewBox="0 0 18 22" fill="none" xmlns="http://www.w3.org/2000/svg">
<path d="M17.1157 4.71763L12.5324 0.134277C12.4464 0.0483398 12.3301 0 12.2083 0H2.5833C1.57221 0 0.75 0.822207 0.75 1.83335V20.1667C0.75 21.1778 1.57221 22 2.58335 22H15.4167C16.4278 22 17.25 21.1778 17.25 20.1667V5.04165C17.25 4.91992 17.2017 4.80356 17.1157 4.71763ZM12.6667 1.56479L15.6852 4.58335H13.5833C13.078 4.58335 12.6667 4.17201 12.6667 3.6667V1.56479ZM16.3333 20.1667C16.3333 20.672 15.922 21.0833 15.4167 21.0833H2.58335C2.07804 21.0833 1.6667 20.672 1.6667 20.1667V1.83335C1.6667 1.32804 2.07804 0.916695 2.58335 0.916695H11.75V3.6667C11.75 4.67779 12.5722 5.5 13.5833 5.5H16.3333V20.1667Z" fill="black"/>
<path d="M11.3369 13.4552C10.9125 13.1213 10.5093 12.778 10.2407 12.5095C9.8916 12.1603 9.58051 11.822 9.31019 11.4997C9.73184 10.1968 9.9167 9.52494 9.9167 9.16684C9.9167 7.64549 9.36704 7.3335 8.5417 7.3335C7.91461 7.3335 7.1667 7.65933 7.1667 9.21071C7.1667 9.89465 7.54134 10.7249 8.28388 11.6899C8.10217 12.2445 7.88866 12.8841 7.64876 13.6052C7.53326 13.9512 7.40797 14.2716 7.27545 14.5679C7.1676 14.6158 7.06284 14.6646 6.96169 14.7152C6.59736 14.8974 6.25138 15.0612 5.93044 15.2134C4.4668 15.9062 3.5 16.3646 3.5 17.2696C3.5 17.9267 4.21393 18.3335 4.875 18.3335C5.7272 18.3335 7.01403 17.1953 7.95397 15.2778C8.9297 14.8929 10.1427 14.6077 11.1001 14.4291C11.8673 15.0191 12.7146 15.5835 13.125 15.5835C14.2614 15.5835 14.5 14.9264 14.5 14.3754C14.5 13.2918 13.2619 13.2918 12.6667 13.2918C12.4818 13.2918 11.9859 13.3465 11.3369 13.4552ZM4.875 17.4168C4.61315 17.4168 4.4359 17.2933 4.41665 17.2696C4.41665 16.9446 5.38568 16.4854 6.32296 16.0414C6.38247 16.0132 6.44293 15.985 6.50425 15.9559C5.81584 16.9541 5.13505 17.4168 4.875 17.4168ZM8.08335 9.21071C8.08335 8.25019 8.38146 8.25019 8.5417 8.25019C8.86577 8.25019 9.00004 8.25019 9.00004 9.16684C9.00004 9.3602 8.87114 9.8436 8.63524 10.5983C8.27533 10.0441 8.08335 9.56925 8.08335 9.21071ZM8.4347 14.1369C8.46336 14.0572 8.49112 13.9767 8.51798 13.8952C8.68805 13.385 8.84114 12.9266 8.97766 12.5139C9.16788 12.7234 9.37288 12.9378 9.59267 13.1576C9.67861 13.2435 9.89164 13.4369 10.1755 13.679C9.6105 13.8021 9.00941 13.9547 8.4347 14.1369ZM13.5833 14.3755C13.5833 14.5814 13.5833 14.6668 13.1581 14.6695C13.0333 14.6427 12.7446 14.4726 12.3883 14.23C12.5176 14.2157 12.6129 14.2085 12.6667 14.2085C13.3439 14.2085 13.5359 14.2748 13.5833 14.3755Z" fill="black"/>
</svg>
