<svg width="63" height="70" viewBox="0 0 63 70" fill="none" xmlns="http://www.w3.org/2000/svg">
<path d="M62.0394 66.4156L58.9427 48.2863C58.609 46.333 57.2234 44.7639 55.3261 44.1916L46.9737 41.6715C46.8007 39.6297 45.9636 37.7035 44.5704 36.1788C43.4561 34.9593 42.0544 34.0713 40.5093 33.5813C40.7738 33.2879 41.0189 32.9954 41.2438 32.7094C43.2301 30.1833 44.2935 27.4002 44.5642 25.5011H45.2085C46.8844 25.5011 48.2479 24.1377 48.2479 22.4617V20.9036C48.2479 19.7851 47.6187 18.7716 46.6725 18.2457V14.499C46.6725 13.9329 46.2135 13.4739 45.6474 13.4739C45.0812 13.4739 44.6224 13.9327 44.6224 14.499V18.705C44.2232 18.7744 43.7469 18.8941 43.2596 19.0993C43.2097 19.1175 43.1611 19.1386 43.1152 19.1639C43.0052 19.214 42.895 19.267 42.7852 19.3266V11.0657C42.7852 8.7835 40.9285 6.92686 38.6463 6.92686H35.8169C34.841 6.92686 33.8877 7.26687 33.1321 7.88457L32.8545 8.11152C32.3445 8.52852 31.7008 8.7582 31.042 8.7582C30.3831 8.7582 29.7393 8.52852 29.2294 8.11152L28.9518 7.88457C28.1963 7.26701 27.243 6.92686 26.2671 6.92686H23.4374C21.1552 6.92686 19.2985 8.7835 19.2985 11.0657V19.3266C19.1887 19.267 19.0786 19.214 18.9685 19.1639C18.9226 19.1386 18.8742 19.1175 18.8243 19.0993C18.337 18.8941 17.8605 18.7744 17.4614 18.705V8.06982C17.4614 4.75057 20.1619 2.0501 23.4812 2.0501H38.6024C41.9218 2.0501 44.6221 4.75057 44.6221 8.06982V9.68119C44.6221 10.2473 45.0811 10.7063 45.6471 10.7063C46.2131 10.7063 46.6722 10.2475 46.6722 9.68119V8.06982C46.6722 3.62018 43.052 0 38.6024 0H23.4812C19.0314 0 15.4113 3.62018 15.4113 8.06982V18.2458C14.4651 18.7718 13.8359 19.7851 13.8359 20.9037V22.4618C13.8359 24.1378 15.1994 25.5012 16.8753 25.5012H17.5197C17.7902 27.4004 18.8538 30.1834 20.84 32.7095C21.0647 32.9953 21.3097 33.2875 21.5738 33.5806C18.0219 34.7088 15.4316 37.9023 15.1102 41.6715L6.75746 44.1916C4.86021 44.7639 3.47443 46.333 3.14083 48.2863L1.8833 55.6485C1.788 56.2066 2.16316 56.7361 2.72111 56.8314C3.27892 56.927 3.80871 56.5517 3.90414 55.9936L5.16167 48.6314C5.36347 47.4496 6.20183 46.5005 7.34959 46.1543L15.0749 43.8234V45.8511C13.3041 46.177 11.7973 47.3934 11.1768 49.0788C11.012 49.5261 10.9096 49.9945 10.8724 50.4708L10.1258 60.0541C10.0695 60.776 10.3193 61.4949 10.8108 62.026C11.3023 62.5573 11.9994 62.8622 12.7233 62.8622H14.0014C14.5675 62.8622 15.0265 62.4034 15.0265 61.8371C15.0265 61.2708 14.5675 60.8121 14.0014 60.8121H12.7233C12.569 60.8121 12.4205 60.7473 12.3156 60.6338C12.2109 60.5206 12.1577 60.3675 12.1697 60.2137L12.9164 50.6302C12.9389 50.3416 13.0009 50.0579 13.1007 49.7871C13.5324 48.6147 14.6984 47.8208 16.0022 47.8116L16.1711 47.8104C16.179 47.8103 16.1868 47.8103 16.1946 47.8103C17.4619 47.8103 18.5836 48.5289 19.0568 49.646C19.1896 49.9592 19.2702 50.2904 19.2968 50.6302L20.0436 60.2138C20.0555 60.3675 20.0024 60.5206 19.8976 60.6339C19.7929 60.7471 19.6443 60.8121 19.4899 60.8121H18.2119C17.6457 60.8121 17.1868 61.2709 17.1868 61.8371C17.1868 62.4032 17.6457 62.8622 18.2119 62.8622H19.4899C20.2139 62.8622 20.9111 62.5574 21.4025 62.026C21.8941 61.4946 22.1439 60.7759 22.0876 60.0543L21.3407 50.4708C21.297 49.91 21.1636 49.3633 20.9445 48.8461C20.2692 47.2523 18.8253 46.1442 17.1248 45.8444V43.2049L20.6486 42.1416C20.9692 42.8169 21.6046 44.2761 22.8631 47.4216C24.1314 50.5954 25.7079 54.6634 27.2199 58.6182C27.2307 58.6514 27.2431 58.6838 27.2571 58.7155C28.2661 61.3557 29.2448 63.9416 30.0819 66.1723C30.2321 66.5723 30.6145 66.8373 31.0417 66.8373C31.469 66.8373 31.8514 66.5723 32.0015 66.1723C32.8385 63.9416 33.8172 61.3557 34.8264 58.7155C34.8404 58.6838 34.8528 58.6512 34.8636 58.6182C36.3744 54.6658 37.9501 50.6003 39.2179 47.4275C40.478 44.2779 41.1139 42.8174 41.4347 42.1416L44.9585 43.2049V49.2595C42.5169 49.7338 40.6675 51.8871 40.6675 54.4653C40.6675 57.3899 43.0469 59.7693 45.9715 59.7693C48.8962 59.7693 51.2755 57.39 51.2755 54.4653C51.2755 51.8956 49.4383 49.7474 47.0086 49.2639V43.8236L54.734 46.1545C55.8817 46.5006 56.72 47.4497 56.9219 48.6315L60.0186 66.7609C60.07 67.0615 59.99 67.3554 59.7933 67.5886C59.5967 67.8215 59.3204 67.95 59.0153 67.95H3.0681C2.76308 67.95 2.48691 67.8217 2.29017 67.5886C2.09357 67.3554 2.01345 67.0616 2.06486 66.7609L3.08683 60.7778C3.18212 60.2197 2.80697 59.6902 2.24902 59.5949C1.69121 59.4992 1.16142 59.8747 1.06599 60.4327L0.0440177 66.4158C-0.108424 67.3088 0.139174 68.2181 0.723237 68.9106C1.30757 69.603 2.1622 70 3.0681 70H59.0153C59.9212 70 60.776 69.603 61.3602 68.9105C61.9443 68.218 62.1919 67.3087 62.0394 66.4156ZM44.6344 20.7934C45.1806 20.6572 45.6191 20.6597 45.624 20.6598C45.8006 20.6622 45.9724 20.6209 46.1249 20.5409C46.1706 20.6545 46.1975 20.7766 46.1975 20.9037V22.4618C46.1975 23.0073 45.7537 23.4511 45.2082 23.4511H44.6344V20.7934ZM17.449 23.4511H16.8752C16.3297 23.4511 15.8859 23.0073 15.8859 22.4618V20.9037C15.8859 20.7766 15.913 20.6545 15.9585 20.541C16.1109 20.621 16.2827 20.6623 16.4594 20.6598C16.4672 20.6612 16.9044 20.6588 17.449 20.794V23.4511ZM19.4991 24.6005V21.9074C19.8097 22.0005 20.1495 21.9878 20.4631 21.857C21.0011 21.6325 21.3486 21.1112 21.3486 20.5286V11.0657C21.3486 9.91402 22.2857 8.97695 23.4374 8.97695H26.2668C26.771 8.97695 27.2636 9.15264 27.654 9.47174L27.9315 9.69869C28.8066 10.4143 29.9112 10.8082 31.0417 10.8082C32.1722 10.8082 33.2768 10.4141 34.1519 9.69869L34.4295 9.47174C34.8197 9.15264 35.3124 8.97695 35.8166 8.97695H38.646C39.7977 8.97695 40.7348 9.91402 40.7348 11.0657V20.5287C40.7348 21.1112 41.0823 21.6326 41.6203 21.8571C41.8 21.932 41.9881 21.9684 42.1746 21.9684C42.3136 21.9684 42.4516 21.948 42.5843 21.9084V24.6005C42.5843 26.0971 41.5496 29.0035 39.632 31.4423C38.9968 32.2502 38.1803 33.1181 37.1751 33.8766C37.1432 33.8979 37.1127 33.921 37.0836 33.9456C35.5262 35.0971 33.5237 35.9792 31.0417 35.9792C28.5597 35.9792 26.5572 35.0971 24.9997 33.9455C24.9706 33.921 24.9402 33.8979 24.9085 33.8767C23.9032 33.1181 23.0867 32.2502 22.4514 31.4423C20.5339 29.0037 19.4991 26.0971 19.4991 24.6005ZM37.7573 41.1619L31.0417 46.1814L24.3261 41.1619C24.992 40.3155 25.3652 39.229 25.3652 38.2594V36.607C26.9444 37.4563 28.8288 38.0294 31.0417 38.0294C33.2546 38.0294 35.1392 37.4563 36.7183 36.607V38.2594C36.7183 39.229 37.0914 40.3155 37.7573 41.1619ZM22.6153 40.0177C22.0679 39.8092 21.461 39.775 20.8869 39.9308C20.8618 39.9366 20.8372 39.9433 20.8132 39.9505L17.2718 41.019C17.8708 38.0738 20.2623 35.7297 23.3151 35.2756V38.2594C23.3151 38.9025 23.0279 39.5674 22.6153 40.0177ZM25.3974 48.2465C25.3955 48.2418 25.3936 48.237 25.3918 48.2323C25.3399 48.1009 25.2886 47.9713 25.2377 47.8432C25.2286 47.82 25.2194 47.7969 25.2103 47.7739C25.1605 47.6485 25.1111 47.5241 25.0625 47.4018C25.059 47.3931 25.0556 47.3847 25.0522 47.3759C24.9003 46.9941 24.7539 46.6278 24.6131 46.2768C24.6028 46.2514 24.5926 46.2256 24.5823 46.2003C24.5418 46.0996 24.502 46.0005 24.4625 45.9026C24.448 45.8667 24.4337 45.8311 24.4193 45.7956C24.3811 45.7007 24.343 45.6064 24.3056 45.5141C24.2944 45.4865 24.2834 45.4597 24.2724 45.4322C24.2044 45.2646 24.138 45.1012 24.0732 44.9419C24.0557 44.8988 24.0378 44.855 24.0204 44.8124C23.995 44.7504 23.9702 44.6899 23.9453 44.6291C23.9185 44.5635 23.8917 44.4984 23.8655 44.4344C23.8556 44.4105 23.8454 44.3852 23.8355 44.3614C23.8276 44.3423 23.8204 44.3246 23.8126 44.3056C23.6942 44.018 23.5817 43.7469 23.4749 43.4919C23.4741 43.4898 23.4731 43.4878 23.4723 43.4857C23.4154 43.35 23.3598 43.2173 23.3063 43.091C23.2786 43.0255 23.2512 42.9611 23.2244 42.898L29.0001 47.2147L26.5867 48.24C26.5825 48.2418 26.5781 48.2435 26.5739 48.2454L25.5663 48.6735C25.5091 48.529 25.4532 48.3874 25.3974 48.2465ZM27.8433 54.523C27.6408 53.9976 27.4369 53.4692 27.2325 52.9413C26.9128 52.1157 26.6075 51.3306 26.3153 50.5828L26.6979 50.4202L28.2609 52.2371L27.8433 54.523ZM31.0615 62.8544C31.0321 62.7934 30.9971 62.7359 30.9567 62.6823C30.4935 61.458 29.9056 59.9088 29.2549 58.2043L30.212 52.9646H31.8715L32.8285 58.2043C32.1467 59.99 31.5343 61.6046 31.0615 62.8544ZM32.2559 50.9146H29.8275L28.6784 49.5789L31.0417 48.5749L33.405 49.5789L32.2559 50.9146ZM34.851 52.9413C34.6466 53.4692 34.4426 53.9976 34.2401 54.523L33.8226 52.2369L35.3855 50.4201L35.7681 50.5827C35.4759 51.3305 35.1706 52.1157 34.851 52.9413ZM38.7773 43.091C38.7265 43.2108 38.6738 43.3364 38.62 43.4647C38.6131 43.4813 38.606 43.4982 38.599 43.515C38.5458 43.6421 38.4917 43.772 38.4356 43.9072C38.4319 43.9161 38.4281 43.9255 38.4244 43.9346C38.376 44.0512 38.3264 44.1715 38.2759 44.2941C38.2665 44.3171 38.2576 44.3383 38.2482 44.3614C38.2369 44.3889 38.2249 44.418 38.2136 44.4458C38.1912 44.5004 38.1683 44.5562 38.1453 44.612C38.1172 44.6808 38.0892 44.7493 38.0603 44.8197C38.0511 44.8421 38.0417 44.8655 38.0324 44.888C37.961 45.0629 37.8878 45.2431 37.8128 45.4282C37.8011 45.4572 37.7895 45.4856 37.7777 45.515C37.7407 45.6065 37.7029 45.6999 37.6651 45.7938C37.6503 45.8306 37.6354 45.8672 37.6205 45.9044C37.5814 46.0013 37.5419 46.0995 37.502 46.199C37.4907 46.2268 37.4794 46.2552 37.4682 46.2831C37.3291 46.6293 37.1849 46.9904 37.0352 47.3666C37.0303 47.3791 37.0253 47.3912 37.0204 47.4038C36.972 47.5254 36.9231 47.6489 36.8736 47.7735C36.8644 47.7967 36.8551 47.82 36.8458 47.8434C36.7947 47.9721 36.7432 48.1023 36.6909 48.2345C36.69 48.237 36.689 48.2394 36.6881 48.2418C36.6317 48.3842 36.5751 48.5275 36.5174 48.6738L35.5089 48.2453C35.5053 48.2438 35.5018 48.2423 35.4983 48.2408L33.0836 47.215L38.8593 42.8982C38.8322 42.9611 38.8049 43.0254 38.7773 43.091ZM41.2702 39.9506C41.2701 39.9506 41.2698 39.9505 41.2696 39.9505C41.2688 39.9502 41.2679 39.95 41.267 39.9496C40.6723 39.7712 40.0379 39.8007 39.4682 40.0177C39.0555 39.5674 38.7685 38.9025 38.7685 38.2594V35.2741C41.8404 35.7269 44.2247 38.0491 44.8159 41.0203L41.2702 39.9506ZM49.2254 54.4653C49.2254 56.2596 47.7657 57.7192 45.9715 57.7192C44.1774 57.7192 42.7176 56.2596 42.7176 54.4653C42.7176 52.671 44.1774 51.2114 45.9715 51.2114C47.7657 51.2114 49.2254 52.671 49.2254 54.4653Z" fill="black"/>
<path d="M31.5 67.5L41.5 42L56.5 47L60.5 67.5H31.5Z" fill="#209956" stroke="black"/>
</svg>
