<svg width="70" height="64" viewBox="0 0 70 64" fill="none" xmlns="http://www.w3.org/2000/svg">
<path d="M1.36719 61.0181H13.125C13.88 61.0181 14.4922 60.3975 14.4922 59.632V58.2772C18.9119 58.4821 21.8395 59.669 24.9219 60.919C28.4029 62.3308 32.0023 63.7905 37.7344 63.7905C40.2523 63.7905 43.9894 62.932 48.8421 61.2389C49.5562 60.9899 49.9357 60.2011 49.69 59.4773C49.4442 58.7533 48.666 58.3683 47.9523 58.6176C43.3866 60.2104 39.9488 61.0181 37.7344 61.0181C32.5289 61.0181 29.3273 59.7197 25.9375 58.3449C22.7419 57.049 19.4454 55.7134 14.4922 55.503V41.4193C15.3686 41.1892 16.2515 40.7819 17.1678 40.3579C19.8628 39.1109 22.9173 37.6971 27.1041 40.0848L33.704 43.8494C34.3164 44.1991 35.0123 44.384 35.7164 44.384H44.5703C46.078 44.384 47.3047 45.6277 47.3047 47.1564C47.3047 48.2916 46.604 49.3299 45.5566 49.7413C45.2435 49.8657 44.9117 49.9287 44.5703 49.9287H30.6715C29.9165 49.9287 29.3043 50.5493 29.3043 51.3149C29.3043 52.0805 29.9165 52.7011 30.6715 52.7011H44.5703C45.2352 52.7011 45.884 52.5798 46.4961 52.3443C46.5071 52.3405 46.5181 52.3379 46.5291 52.3337C46.5291 52.3337 63.5346 45.9602 63.5417 45.9573C63.8571 45.8331 64.19 45.7701 64.5312 45.7701C66.039 45.7701 67.2656 47.0137 67.2656 48.5424C67.2656 49.6089 66.6511 50.5934 65.7031 51.0489C65.4691 51.1632 65.2348 51.2784 64.7824 51.4969L64.3869 50.6949C64.0492 50.0101 63.2274 49.7326 62.5527 50.075C61.8773 50.4173 61.6036 51.25 61.9411 51.9348L62.3042 52.6713C61.4093 53.0877 60.392 53.5533 59.2796 54.0495C58.5885 54.358 58.2747 55.176 58.5791 55.8767C58.8837 56.5785 59.691 56.8948 60.3811 56.5871C63.0707 55.3869 64.8505 54.5357 66.8708 53.5559C68.7717 52.6426 70 50.6748 70 48.5425C70 45.4852 67.5467 42.9978 64.5312 42.9978C63.8539 42.9978 63.1917 43.1226 62.5626 43.3689L49.9581 48.0929C50.0108 47.7864 50.0391 47.4734 50.0391 47.1564C50.0391 44.099 47.5858 41.6117 44.5703 41.6117H35.7164C35.4815 41.6117 35.2498 41.5503 35.0455 41.4335L28.4447 37.6685C23.0465 34.5901 18.9926 36.4662 16.0326 37.8357C14.8688 38.3743 13.864 38.8393 13.125 38.8393H1.36719C0.612227 38.8393 0 39.4599 0 40.2255V59.632C0 60.3975 0.612227 61.0181 1.36719 61.0181ZM2.73438 41.6117H11.7578V58.2458H2.73438V41.6117Z" fill="black"/>
<path d="M45.2024 35.8388C45.4306 35.9908 45.6921 36.0669 45.9539 36.0669C46.2156 36.0669 46.4774 35.9908 46.7053 35.8388C66.7602 22.4606 67.421 12.5618 66.0297 7.852C64.5072 2.69708 59.5909 0 55.5215 0C50.7146 0 47.5377 2.78524 45.9541 4.64175C44.3706 2.78524 41.1939 0 36.3879 0C32.3229 0 27.4098 2.70166 25.8846 7.86544C24.4941 12.5721 25.1552 22.4649 45.2024 35.8388ZM28.5038 8.66083C29.6335 4.83623 33.409 2.77249 36.3877 2.77249C41.8405 2.77249 44.6518 7.44973 44.7757 7.66056C45.0214 8.08376 45.4695 8.34353 45.9539 8.34353C46.4397 8.34353 46.8888 8.08224 47.1341 7.65724C47.1623 7.6083 50.016 2.77249 55.5215 2.77249C58.5046 2.77249 62.2832 4.83152 63.4103 8.64738C64.3422 11.8026 64.4673 20.4379 45.9539 33.0171C27.4481 20.4424 27.5726 11.8135 28.5038 8.66083Z" fill="black"/>
<path d="M40.4688 19.4328H44.5703V23.5914C44.5703 24.357 45.1825 24.9775 45.9375 24.9775C46.6925 24.9775 47.3047 24.357 47.3047 23.5914V19.4328H51.4062C52.1612 19.4328 52.7734 18.8122 52.7734 18.0467C52.7734 17.2811 52.1612 16.6605 51.4062 16.6605H47.3047V12.502C47.3047 11.7364 46.6925 11.1158 45.9375 11.1158C45.1825 11.1158 44.5703 11.7364 44.5703 12.502V16.6605H40.4688C39.7138 16.6605 39.1016 17.2811 39.1016 18.0467C39.1016 18.8122 39.7138 19.4328 40.4688 19.4328Z" fill="black"/>
<path d="M54.1406 59.0775C54.8957 59.0775 55.5078 58.4568 55.5078 57.6913C55.5078 56.9257 54.8957 56.3051 54.1406 56.3051C53.3855 56.3051 52.7734 56.9257 52.7734 57.6913C52.7734 58.4568 53.3855 59.0775 54.1406 59.0775Z" fill="black"/>
<rect x="3" y="41" width="9" height="18" fill="#209956"/>
</svg>
