<svg width="21" height="23" viewBox="0 0 21 23" fill="none" xmlns="http://www.w3.org/2000/svg">
<path fill-rule="evenodd" clip-rule="evenodd" d="M18.0455 7.89587C18.0455 9.30879 18.4189 10.1416 19.2407 11.1013C19.8635 11.8083 20.0625 12.7159 20.0625 13.7005C20.0625 14.684 19.7394 15.6177 19.092 16.3757C18.2445 17.2844 17.0492 17.8645 15.8294 17.9654C14.0617 18.116 12.2929 18.243 10.5006 18.243C8.70714 18.243 6.93943 18.167 5.17172 17.9654C3.95076 17.8645 2.75552 17.2844 1.90912 16.3757C1.26175 15.6177 0.9375 14.684 0.9375 13.7005C0.9375 12.7159 1.13764 11.8083 1.7593 11.1013C2.60681 10.1416 2.95566 9.30879 2.95566 7.89587V7.41659C2.95566 5.52438 3.4275 4.28708 4.39912 3.07585C5.8437 1.30941 8.15927 0.25 10.4502 0.25H10.5509C12.891 0.25 15.2815 1.3604 16.7015 3.20275C17.6228 4.38906 18.0455 5.57424 18.0455 7.41659V7.89587ZM7.20789 20.5684C7.20789 20.0019 7.7278 19.7424 8.20858 19.6314C8.77099 19.5124 12.1979 19.5124 12.7603 19.6314C13.2411 19.7424 13.761 20.0019 13.761 20.5684C13.7331 21.1078 13.4167 21.5859 12.9795 21.8896C12.4126 22.3315 11.7474 22.6113 11.0519 22.7122C10.6673 22.762 10.2894 22.7632 9.91815 22.7122C9.22158 22.6113 8.55631 22.3315 7.99056 21.8884C7.55226 21.5859 7.23584 21.1078 7.20789 20.5684Z" fill="#874D7F"/>
</svg>
