<svg width="15" height="17" viewBox="0 0 15 17" fill="none" xmlns="http://www.w3.org/2000/svg">
<path d="M14.7772 2.51116L12.4888 0.222849C12.3451 0.0791547 12.154 0 11.9507 0H2.31605C1.89651 0 1.55516 0.341354 1.55516 0.760893V8.2943H1.02009C0.457597 8.2943 0 8.75192 0 9.31438V13.9799C0 14.5424 0.457597 15 1.02009 15H9.05519C9.47476 15 9.81608 14.6587 9.81608 14.2391V10.6104C9.81608 10.1908 9.47473 9.84948 9.05519 9.84948H1.02009C0.725035 9.84948 0.485016 9.60947 0.485016 9.31441C0.485016 9.01936 0.725035 8.77934 1.02009 8.77934H1.55516V9.05532C1.55516 9.18925 1.66374 9.29783 1.79766 9.29783C1.93159 9.29783 2.04017 9.18925 2.04017 9.05532V0.760893C2.04017 0.60876 2.16395 0.485016 2.31605 0.485016H11.6638V2.83447C11.6638 3.11112 11.8889 3.3362 12.1655 3.3362H14.515V15.7943C14.515 15.9465 14.3912 16.0702 14.2391 16.0702H2.31605C2.16392 16.0702 2.04017 15.9465 2.04017 15.7943C2.04017 15.6604 1.93159 15.5518 1.79766 15.5518C1.66374 15.5518 1.55516 15.6604 1.55516 15.7943C1.55516 16.2139 1.89651 16.5552 2.31605 16.5552H14.2391C14.6587 16.5552 15 16.2139 15 15.7943V3.0492C15 2.84598 14.9209 2.65488 14.7772 2.51116ZM1.02009 10.3345H9.05519C9.20732 10.3345 9.33107 10.4583 9.33107 10.6104V14.2392C9.33107 14.3913 9.20729 14.515 9.05519 14.515H1.02009C0.725035 14.515 0.485016 14.275 0.485016 13.9799V10.1826C0.640642 10.2789 0.823978 10.3345 1.02009 10.3345ZM12.1488 2.83447V0.568859L14.4312 2.85118H12.1655C12.1564 2.85118 12.1488 2.84368 12.1488 2.83447Z" fill="black"/>
<path d="M4.64929 13.699C4.66659 13.702 4.68063 13.7044 4.9125 13.7044C5.02441 13.7044 5.18708 13.7038 5.42529 13.7025C5.55922 13.7018 5.66718 13.5926 5.66644 13.4586C5.66569 13.3246 5.55589 13.2179 5.42257 13.2175C5.2532 13.2184 5.07136 13.2191 4.93277 13.2192V11.3665C4.93277 11.2326 4.82419 11.124 4.69026 11.124C4.55633 11.124 4.44775 11.2326 4.44775 11.3665V13.46C4.44775 13.5781 4.53286 13.6791 4.64929 13.699Z" fill="black"/>
<path d="M7.10988 13.7042C7.54203 13.7042 7.90476 13.4292 7.97244 13.0503C8.0232 12.7658 7.89312 12.394 7.37574 12.2031C7.11515 12.107 6.87277 12.0023 6.80183 11.9712C6.73497 11.9192 6.73713 11.8457 6.74146 11.8153C6.74732 11.7747 6.77655 11.6754 6.92173 11.6316C7.22722 11.5396 7.50837 11.7622 7.51616 11.7685C7.61866 11.8536 7.77086 11.8401 7.85671 11.738C7.94288 11.6354 7.92963 11.4825 7.82709 11.3963C7.80766 11.38 7.34434 10.9978 6.78182 11.1673C6.49989 11.2522 6.30046 11.4741 6.26136 11.7464C6.22476 12.0015 6.33528 12.2468 6.54979 12.3866C6.56052 12.3936 6.57174 12.3997 6.58345 12.405C6.59557 12.4104 6.88351 12.5385 7.20786 12.6582C7.30428 12.6937 7.52532 12.7948 7.49492 12.965C7.47261 13.0899 7.32248 13.2192 7.10982 13.2192C6.89622 13.2192 6.69044 13.1329 6.55942 12.9883C6.4695 12.889 6.31614 12.8815 6.21687 12.9714C6.11764 13.0613 6.11007 13.2147 6.20002 13.314C6.42152 13.5584 6.76161 13.7042 7.10988 13.7042Z" fill="black"/>
<path d="M1.91195 13.66C1.95441 13.6899 2.00313 13.7043 2.05141 13.7043C2.12762 13.7043 2.20264 13.6684 2.24988 13.6014L2.84189 12.761L3.433 13.6012C3.4802 13.6684 3.55528 13.7043 3.63156 13.7043C3.67977 13.7043 3.72847 13.6899 3.77089 13.6601C3.88044 13.583 3.90676 13.4317 3.82971 13.3222L3.13862 12.3398L3.72588 11.5062C3.80303 11.3967 3.77677 11.2455 3.66729 11.1683C3.55781 11.0912 3.40651 11.1174 3.32936 11.2269L2.84218 11.9185L2.35577 11.227C2.27872 11.1175 2.12743 11.0912 2.01788 11.1682C1.90833 11.2453 1.88201 11.3965 1.95906 11.5061L2.54545 12.3396L1.85336 13.322C1.77621 13.4316 1.80247 13.5828 1.91195 13.66Z" fill="black"/>
<path d="M11.6305 4.64919C11.6305 4.37254 11.4055 4.14746 11.1288 4.14746H5.42651C5.14985 4.14746 4.9248 4.37254 4.9248 4.64919V8.01873C4.9248 8.29538 5.14985 8.52043 5.42651 8.52043H11.1288C11.4055 8.52043 11.6305 8.29538 11.6305 8.01873V4.64919H11.6305ZM7.4834 6.73945V5.92847H9.07195V6.73945H7.4834ZM9.07195 7.22447V8.03545H7.4834V7.22447H9.07195ZM5.40982 5.92851H6.99838V6.73948H5.40982V5.92851ZM7.4834 5.44349V4.63251H9.07195V5.44349H7.4834ZM9.55697 5.92851H11.1455V6.73948H9.55697V5.92851ZM11.1455 4.64919V5.44346H9.55697V4.63248H11.1288C11.138 4.63251 11.1455 4.63998 11.1455 4.64919ZM5.42651 4.63251H6.99838V5.44349H5.40982V4.64923C5.40982 4.63998 5.41729 4.63251 5.42651 4.63251ZM5.40982 8.01876V7.2245H6.99838V8.03545H5.42651C5.41729 8.03545 5.40982 8.02798 5.40982 8.01876ZM11.1288 8.03545H9.55697V7.22447H11.1455V8.01873C11.1455 8.02798 11.138 8.03545 11.1288 8.03545Z" fill="black"/>
</svg>
