<svg width="61" height="70" viewBox="0 0 61 70" fill="none" xmlns="http://www.w3.org/2000/svg">
<path d="M60.3833 14.3008C60.1624 12.8147 59.1642 11.535 57.7783 10.9611L32.1041 0.328843C31.0447 -0.109614 29.8779 -0.109614 28.8185 0.328843L3.14436 10.9611C1.75844 11.535 0.760253 12.8147 0.539316 14.3008C0.000233748 17.9274 -0.903477 27.5223 2.33758 38.2649C4.14008 44.2391 6.96455 49.7371 10.7325 54.606C15.2557 60.4509 21.1912 65.4489 28.3743 69.461C29.018 69.8203 29.7396 70 30.4613 70C31.1829 70 31.9047 69.8203 32.5483 69.4608C39.7314 65.4488 45.6669 60.4508 50.1901 54.6059C53.9579 49.7369 56.7824 44.2389 58.5849 38.2647C61.8261 27.5223 60.9223 17.9274 60.3833 14.3008ZM56.6239 37.673C52.7729 50.4369 44.3368 60.5301 31.5496 67.6724C30.8787 68.0471 30.0447 68.0473 29.3734 67.6724C16.5861 60.5302 8.14977 50.4369 4.29881 37.673C1.17738 27.327 2.04691 18.092 2.56562 14.6019C2.68129 13.8237 3.20342 13.1537 3.92816 12.8538L29.6023 2.22158C29.8793 2.10687 30.1704 2.04945 30.4615 2.04945C30.7524 2.04945 31.0436 2.10687 31.3206 2.22158L56.9947 12.8538C57.7195 13.1539 58.2415 13.8237 58.357 14.6019C58.8758 18.0922 59.7452 27.3271 56.6239 37.673Z" fill="black"/>
<path d="M27.5 46L27 24L33.5 23.5L34 30.5L41.5 32L41 38.5L34.5 39L33.5 46H27.5Z" fill="#209956"/>
<path d="M52.4739 15.7743L42.4392 11.679C41.9151 11.4654 41.3174 11.7166 41.1038 12.2404C40.8903 12.7641 41.1414 13.362 41.6652 13.5757L51.7 17.671C52.2151 17.8811 52.5858 18.3479 52.6674 18.8889C53.0818 21.6362 53.7763 28.9057 51.2827 37.0507C48.2067 47.098 41.4642 55.0454 31.2429 60.6717C30.7611 60.9368 30.1622 60.9368 29.6804 60.6717C19.4589 55.0454 12.7165 47.0982 9.64047 37.0507C7.14659 28.9058 7.84112 21.6364 8.25551 18.8889C8.33713 18.3477 8.70778 17.8811 9.22307 17.671L29.8438 9.25553C30.2362 9.09529 30.6868 9.09516 31.0793 9.25553L37.2724 11.783C37.7963 11.9966 38.3942 11.7453 38.6078 11.2217C38.8215 10.6979 38.5702 10.1 38.0464 9.88635L31.8532 7.35883C30.9556 6.99256 29.9673 6.99283 29.0697 7.35883L8.44897 15.7743C7.26895 16.2558 6.41856 17.3323 6.22989 18.5834C5.79471 21.4692 5.06491 29.1038 7.68157 37.6504C9.13721 42.405 11.4181 46.7806 14.4609 50.6553C18.1112 55.3036 22.8993 59.2774 28.6925 62.4662C29.2382 62.7666 29.8497 62.9167 30.4615 62.9167C31.0732 62.9165 31.685 62.7666 32.2305 62.4662C38.0238 59.2775 42.812 55.3036 46.4621 50.6553C49.5048 46.7806 51.7857 42.4049 53.2413 37.6504C55.858 29.1037 55.1282 21.469 54.6929 18.5834C54.5042 17.3322 53.6539 16.2558 52.4739 15.7743Z" fill="black"/>
<path d="M28.42 47.4217H32.5028C33.9643 47.4217 35.1535 46.2382 35.1535 44.7836V40.256C35.1535 39.9309 35.4235 39.6663 35.7556 39.6663H40.3187C41.7804 39.6663 42.9694 38.4829 42.9694 37.0283V32.9773C42.9694 31.5227 41.7804 30.3392 40.3187 30.3392H35.7556C35.4235 30.3392 35.1535 30.0748 35.1535 29.7497V25.222C35.1535 23.7674 33.9645 22.584 32.5028 22.584H28.42C26.9584 22.584 25.7693 23.7673 25.7693 25.222V29.7497C25.7693 30.0747 25.4991 30.3392 25.1671 30.3392H20.6039C19.1424 30.3392 17.9532 31.5227 17.9532 32.9773V37.0283C17.9532 38.3485 18.9441 39.473 20.2581 39.644C20.8194 39.7179 21.3329 39.3214 21.406 38.7605C21.479 38.1996 21.0834 37.6858 20.5225 37.6127C20.2257 37.574 20.0018 37.3228 20.0018 37.0285V32.9775C20.0018 32.6524 20.2719 32.3878 20.6039 32.3878H25.1671C26.6287 32.3878 27.8179 31.2044 27.8179 29.7498V25.2221C27.8179 24.8971 28.088 24.6326 28.42 24.6326H32.5028C32.8349 24.6326 33.1049 24.897 33.1049 25.2221V29.7498C33.1049 31.2044 34.2939 32.3878 35.7555 32.3878H40.3186C40.6507 32.3878 40.9208 32.6522 40.9208 32.9775V37.0285C40.9208 37.3534 40.6507 37.618 40.3186 37.618H35.7555C34.2939 37.618 33.1049 38.8014 33.1049 40.2561V44.7837C33.1049 45.1088 32.8349 45.3734 32.5028 45.3734H28.42C28.088 45.3734 27.8179 45.1089 27.8179 44.7837V40.2561C27.8179 38.8016 26.6288 37.618 25.1671 37.618C24.6014 37.618 24.1429 38.0765 24.1429 38.6423C24.1429 39.208 24.6014 39.6666 25.1671 39.6666C25.4991 39.6666 25.7693 39.931 25.7693 40.2562V44.7838C25.7694 46.2382 26.9584 47.4217 28.42 47.4217Z" fill="black"/>
</svg>
